<svg xmlns="http://www.w3.org/2000/svg" width="40" height="40" viewBox="0 0 40 40">
    <g fill="none" fill-rule="evenodd">
        <g fill-rule="nonzero">
            <g>
                <path fill="#FFBD00" d="M14.022 20.333c-3.446 0-6.24-2.797-6.24-6.248s2.794-6.249 6.24-6.249c3.447 0 6.24 2.798 6.24 6.249 0 3.45-2.793 6.248-6.24 6.248z" transform="translate(6.000000, 6.000000)"/>
                <path fill="#FFA000" d="M14.022 19.262c2.856 0 5.17-2.318 5.17-5.177 0-2.86-2.314-5.178-5.17-5.178s-5.17 2.318-5.17 5.178 2.314 5.177 5.17 5.177zm0 1.071c-3.446 0-6.24-2.797-6.24-6.248s2.794-6.249 6.24-6.249c3.447 0 6.24 2.798 6.24 6.249 0 3.45-2.793 6.248-6.24 6.248z" transform="translate(6.000000, 6.000000)"/>
                <g fill="#FFA000">
                    <path d="M1.426 4.648c0 .395-.319.714-.713.714-.394 0-.713-.32-.713-.714V.714C0 .32.32 0 .713 0c.394 0 .713.32.713.714v3.934zM1.426 27.286c0 .394-.319.714-.713.714C.32 28 0 27.68 0 27.286v-3.934c0-.395.32-.714.713-.714.394 0 .713.32.713.714v3.934z" transform="translate(6.000000, 6.000000) translate(13.219838, 0.000000)"/>
                </g>
                <g fill="#FFA000">
                    <path d="M1.426 4.648c0 .395-.319.714-.713.714-.394 0-.713-.32-.713-.714V.714C0 .32.32 0 .713 0c.394 0 .713.32.713.714v3.934zM1.426 27.286c0 .394-.319.714-.713.714C.32 28 0 27.68 0 27.286v-3.934c0-.395.32-.714.713-.714.394 0 .713.32.713.714v3.934z" transform="translate(6.000000, 6.000000) translate(13.904693, 14.011759) rotate(-45.000000) translate(-13.904693, -14.011759) translate(13.191486, 0.011759)"/>
                </g>
                <g fill="#FFA000">
                    <path d="M1.426 4.648c0 .395-.319.714-.713.714-.394 0-.713-.32-.713-.714V.714C0 .32.32 0 .713 0c.394 0 .713.32.713.714v3.934zM1.426 27.286c0 .394-.319.714-.713.714C.32 28 0 27.68 0 27.286v-3.934c0-.395.32-.714.713-.714.394 0 .713.32.713.714v3.934z" transform="translate(6.000000, 6.000000) translate(13.961397, 14.011759) rotate(45.000000) translate(-13.961397, -14.011759) translate(13.248190, 0.011759)"/>
                </g>
                <g fill="#FFA000">
                    <path d="M1.426 4.648c0 .395-.319.714-.713.714-.394 0-.713-.32-.713-.714V.714C0 .32.32 0 .713 0c.394 0 .713.32.713.714v3.934zM1.426 27.321c0 .395-.319.714-.713.714-.394 0-.713-.32-.713-.714v-3.934c0-.394.32-.714.713-.714.394 0 .713.32.713.714v3.934z" transform="translate(6.000000, 6.000000) translate(14.000000, 13.995514) rotate(90.000000) translate(-14.000000, -13.995514) translate(13.286793, -0.022224)"/>
                </g>
            </g>
        </g>
    </g>
</svg>
