<svg xmlns="http://www.w3.org/2000/svg" width="40" height="40" viewBox="0 0 40 40">
    <g fill="none" fill-rule="evenodd">
        <g fill-rule="nonzero">
            <g>
                <g>
                    <path fill="#4CD7FF" d="M5.91 11.765C2.645 11.765 0 9.13 0 5.882 0 2.634 2.646 0 5.91 0c3.263 0 5.908 2.634 5.908 5.882 0 3.25-2.645 5.883-5.909 5.883z" transform="translate(3.000000, 10.000000)"/>
                    <path fill="#02A9F1" d="M5.91 10.679c2.66 0 4.817-2.148 4.817-4.797 0-2.649-2.157-4.796-4.818-4.796-2.66 0-4.818 2.147-4.818 4.796 0 2.65 2.157 4.797 4.818 4.797zm0 1.086C2.645 11.765 0 9.13 0 5.882 0 2.634 2.646 0 5.91 0c3.263 0 5.908 2.634 5.908 5.882 0 3.25-2.645 5.883-5.909 5.883z" transform="translate(3.000000, 10.000000)"/>
                </g>
                <g>
                    <path fill="#FFF" d="M17.657 4.715l-.276.043-.092-.263c-.86-2.454-3.192-4.13-5.846-4.13-3.236 0-5.919 2.48-6.17 5.673l-.025.308h-.656C2.357 6.346.545 8.15.545 10.375c0 2.225 1.812 4.028 4.047 4.028h13.817c2.686 0 4.864-2.181 4.864-4.873s-2.178-4.873-4.864-4.873c-.254 0-.505.02-.752.058z" transform="translate(3.000000, 10.000000) translate(10.363636, 5.248869)"/>
                    <path fill="#303193" d="M18.455 5.675c-.146 0-.402.028-.7.074l-1.12.172-.376-1.063c-.735-2.081-2.678-3.5-4.895-3.5-2.722 0-4.973 2.092-5.186 4.775l-.1 1.25H4.455c-1.71 0-3.091 1.343-3.091 2.992 0 1.658 1.389 3.019 3.09 3.019h13.91c2.155 0 3.909-1.732 3.909-3.86 0-2.152-1.688-3.86-3.818-3.86zm0-1.358c2.9 0 5.181 2.333 5.181 5.217 0 2.885-2.371 5.217-5.272 5.217H4.454C2.01 14.751 0 12.792 0 10.375c0-2.417 2.01-4.349 4.455-4.349h.363C5.085 2.67 7.898 0 11.364 0c2.879 0 5.283 1.864 6.181 4.407.265-.04.634-.09.91-.09z" transform="translate(3.000000, 10.000000) translate(10.363636, 5.248869)"/>
                </g>
            </g>
        </g>
    </g>
</svg>
