<svg xmlns="http://www.w3.org/2000/svg" width="40" height="40" viewBox="0 0 40 40">
    <g fill="none" fill-rule="evenodd">
        <g fill-rule="nonzero">
            <g>
                <g>
                    <path fill="#4CD7FF" d="M5.86 11.765C2.622 11.765 0 9.13 0 5.882 0 2.634 2.623 0 5.86 0c3.235 0 5.858 2.634 5.858 5.882 0 3.25-2.623 5.883-5.859 5.883z" transform="translate(4.000000, 10.000000)"/>
                    <path fill="#02A9F1" d="M5.86 10.679c2.638 0 4.777-2.148 4.777-4.797 0-2.649-2.14-4.796-4.778-4.796-2.638 0-4.777 2.147-4.777 4.796 0 2.65 2.139 4.797 4.777 4.797zm0 1.086C2.622 11.765 0 9.13 0 5.882 0 2.634 2.623 0 5.86 0c3.235 0 5.858 2.634 5.858 5.882 0 3.25-2.623 5.883-5.859 5.883z" transform="translate(4.000000, 10.000000)"/>
                </g>
                <g>
                    <path fill="#FFF" d="M14.41.452c-4.123 0-7.549 3.178-7.892 7.278l-.034.415h-.895c-2.838 0-5.138 2.309-5.138 5.158 0 2.85 2.3 5.159 5.138 5.159h17.757c3.436 0 6.22-2.796 6.22-6.245 0-3.448-2.784-6.244-6.22-6.244-.327 0-.652.025-.97.075l-.37.059-.125-.355c-1.11-3.15-4.087-5.3-7.47-5.3z" transform="translate(4.000000, 10.000000) translate(1.983099, 1.085973)"/>
                    <path fill="#303193" d="M14.41 1.357c-3.654 0-6.69 2.817-6.994 6.449L7.312 9.05H5.59c-2.34 0-4.237 1.904-4.237 4.253 0 2.35 1.897 4.254 4.237 4.254h17.757c2.938 0 5.319-2.391 5.319-5.34s-2.381-5.34-5.319-5.34c-.28 0-.558.023-.831.066l-1.11.174-.374-1.063c-.984-2.792-3.621-4.697-6.62-4.697zm0-1.357c3.645 0 6.746 2.337 7.895 5.601.34-.053.687-.08 1.041-.08 3.684 0 6.67 2.998 6.67 6.696 0 3.699-2.986 6.697-6.67 6.697H5.59C2.502 18.914 0 16.403 0 13.304c0-3.1 2.502-5.612 5.589-5.612h.48C6.43 3.384 10.027 0 14.411 0z" transform="translate(4.000000, 10.000000) translate(1.983099, 1.085973)"/>
                </g>
            </g>
        </g>
    </g>
</svg>
