<svg xmlns="http://www.w3.org/2000/svg" width="40" height="40" viewBox="0 0 40 40">
    <g fill="none" fill-rule="evenodd">
        <g fill-rule="nonzero">
            <g>
                <g>
                    <path fill="#FFF" d="M14.384.455c-4.116 0-7.536 3.192-7.878 7.31l-.034.417h-.893c-2.833 0-5.13 2.32-5.13 5.182 0 2.862 2.297 5.181 5.13 5.181h17.724c3.43 0 6.209-2.808 6.209-6.272 0-3.465-2.78-6.273-6.209-6.273-.327 0-.65.026-.97.076l-.368.058-.125-.356C20.732 2.613 17.762.455 14.384.455z" transform="translate(3.000000, 11.000000)"/>
                    <path fill="#303193" d="M14.384 1.364c-3.648 0-6.678 2.829-6.981 6.477l-.104 1.25H5.578c-2.335 0-4.228 1.913-4.228 4.273 0 2.36 1.893 4.272 4.229 4.272h17.724c2.932 0 5.309-2.401 5.309-5.363 0-2.963-2.377-5.364-5.309-5.364-.28 0-.557.022-.83.065l-1.107.175-.374-1.067c-.982-2.805-3.615-4.718-6.608-4.718zm0-1.364c3.638 0 6.733 2.348 7.88 5.627.339-.054.686-.082 1.04-.082 3.677 0 6.657 3.012 6.657 6.728 0 3.715-2.98 6.727-6.658 6.727H5.58C2.498 19 0 16.477 0 13.364s2.497-5.637 5.579-5.637h.479C6.418 3.4 10.008 0 14.384 0z" transform="translate(3.000000, 11.000000)"/>
                </g>
                <g>
                    <path fill="#FFF" d="M11.018.331c-3.158 0-5.781 2.456-6.044 5.623l-.026.32h-.685C2.089 6.274.328 8.06.328 10.26c0 2.201 1.761 3.985 3.935 3.985H17.86c2.63 0 4.763-2.16 4.763-4.824 0-2.665-2.133-4.825-4.763-4.825-.251 0-.5.02-.744.059l-.283.045-.096-.274c-.85-2.434-3.129-4.095-5.72-4.095z" transform="translate(3.000000, 11.000000) translate(11.966581, 4.454545)"/>
                    <path fill="#303193" d="M11.058 1.364c-2.643 0-4.837 2.04-5.056 4.666l-.104 1.25h-1.61c-1.624 0-2.938 1.322-2.938 2.95 0 1.63 1.314 2.952 2.939 2.952h13.626c2.083 0 3.769-1.697 3.769-3.787s-1.686-3.786-3.77-3.786c-.199 0-.396.015-.59.046l-1.105.174-.375-1.065c-.71-2.02-2.617-3.4-4.786-3.4zm0-1.364c2.797 0 5.176 1.798 6.058 4.308.26-.041.527-.063.799-.063 2.827 0 5.118 2.306 5.118 5.15 0 2.845-2.291 5.15-5.118 5.15H4.289C1.92 14.545 0 12.615 0 10.231c0-2.384 1.92-4.315 4.289-4.315h.368C4.934 2.602 7.694 0 11.058 0z" transform="translate(3.000000, 11.000000) translate(11.966581, 4.454545)"/>
                </g>
            </g>
        </g>
    </g>
</svg>
