<svg xmlns="http://www.w3.org/2000/svg" width="40" height="40" viewBox="0 0 40 40">
    <g fill="none" fill-rule="evenodd">
        <g fill="#303193" fill-rule="nonzero">
            <g>
                <path d="M5.048 1.448c-.391 0-.709-.324-.709-.724 0-.4.318-.724.709-.724h13.815c.392 0 .709.324.709.724 0 .4-.317.724-.709.724H5.048zM5.048 19c-.391 0-.709-.324-.709-.724 0-.4.318-.724.709-.724h13.815c.392 0 .709.324.709.724 0 .4-.317.724-.709.724H5.048zM5.048 10.224c-.391 0-.709-.324-.709-.724 0-.4.318-.724.709-.724h13.815c.392 0 .709.324.709.724 0 .4-.317.724-.709.724H5.048zM11.779 14.657c-.392 0-.709-.324-.709-.724 0-.4.317-.723.709-.723h11.513c.39 0 .708.324.708.723 0 .4-.317.724-.708.724H11.779zM.708 14.657c-.39 0-.708-.324-.708-.724 0-.4.317-.723.708-.723h7.085c.392 0 .709.324.709.723 0 .4-.317.724-.709.724H.708zM.708 5.881c-.39 0-.708-.324-.708-.724 0-.4.317-.724.708-.724h11.513c.392 0 .709.324.709.724 0 .4-.317.724-.709.724H.708zM16.207 5.881c-.392 0-.709-.324-.709-.724 0-.4.317-.724.709-.724h7.085c.39 0 .708.324.708.724 0 .4-.317.724-.708.724h-7.085z" transform="translate(8.000000, 10.000000)"/>
            </g>
        </g>
    </g>
</svg>
