<svg xmlns="http://www.w3.org/2000/svg" width="40" height="40" viewBox="0 0 40 40">
    <g fill="none" fill-rule="evenodd">
        <g fill-rule="nonzero">
            <g>
                <g>
                    <g>
                        <path fill="#FFF" d="M14.384.458c-4.116 0-7.536 3.214-7.878 7.36l-.034.42h-.893c-2.833 0-5.13 2.335-5.13 5.216 0 2.882 2.297 5.217 5.13 5.217h17.724c3.43 0 6.209-2.827 6.209-6.315 0-3.488-2.78-6.315-6.209-6.315-.327 0-.65.025-.97.076l-.368.059-.125-.358C20.732 2.63 17.762.458 14.384.458z" transform="translate(3.000000, 7.000000)"/>
                        <path fill="#303193" d="M14.384 1.373c-3.648 0-6.678 2.848-6.981 6.522l-.104 1.258H5.578c-2.335 0-4.228 1.925-4.228 4.301 0 2.376 1.893 4.302 4.229 4.302h17.724c2.932 0 5.309-2.418 5.309-5.4s-2.377-5.4-5.309-5.4c-.28 0-.557.022-.83.065l-1.107.177-.374-1.075c-.982-2.824-3.615-4.75-6.608-4.75zm0-1.373c3.638 0 6.733 2.364 7.88 5.665.339-.054.686-.082 1.04-.082 3.677 0 6.657 3.032 6.657 6.773 0 3.74-2.98 6.773-6.658 6.773H5.58C2.498 19.129 0 16.589 0 13.454 0 10.32 2.497 7.78 5.579 7.78h.479C6.418 3.422 10.008 0 14.384 0z" transform="translate(3.000000, 7.000000)"/>
                    </g>
                    <g>
                        <path fill="#FFF" d="M11.018.334c-3.158 0-5.781 2.472-6.044 5.66l-.026.323h-.685c-2.174 0-3.935 1.796-3.935 4.012 0 2.217 1.761 4.013 3.935 4.013H17.86c2.63 0 4.763-2.175 4.763-4.857 0-2.683-2.133-4.857-4.763-4.857-.251 0-.5.02-.744.058l-.283.046-.096-.276c-.85-2.45-3.129-4.122-5.72-4.122z" transform="translate(3.000000, 7.000000) translate(11.966581, 4.484746)"/>
                        <path fill="#303193" d="M11.058 1.373c-2.643 0-4.837 2.053-5.056 4.698L5.898 7.33h-1.61c-1.624 0-2.938 1.331-2.938 2.97 0 1.64 1.314 2.972 2.939 2.972h13.626c2.083 0 3.769-1.708 3.769-3.812s-1.686-3.812-3.77-3.812c-.199 0-.396.016-.59.046l-1.105.176-.375-1.073c-.71-2.034-2.617-3.423-4.786-3.423zm0-1.373c2.797 0 5.176 1.81 6.058 4.337.26-.041.527-.063.799-.063 2.827 0 5.118 2.322 5.118 5.185 0 2.864-2.291 5.185-5.118 5.185H4.289C1.92 14.644 0 12.7 0 10.3c0-2.4 1.92-4.344 4.289-4.344h.368C4.934 2.62 7.694 0 11.058 0z" transform="translate(3.000000, 7.000000) translate(11.966581, 4.484746)"/>
                    </g>
                </g>
                <g fill="#0A95D7">
                    <g transform="translate(3.000000, 7.000000) translate(9.897172, 21.508475)">
                        <ellipse cx=".99" cy="1.007" rx="1" ry="1.007"/>
                        <ellipse cx=".99" cy="4.485" rx="1" ry="1.007"/>
                    </g>
                    <g transform="translate(3.000000, 7.000000) translate(9.897172, 21.508475) translate(4.138817, 0.000000)">
                        <ellipse cx=".99" cy="1.007" rx="1" ry="1.007"/>
                        <ellipse cx=".99" cy="4.485" rx="1" ry="1.007"/>
                    </g>
                    <g transform="translate(3.000000, 7.000000) translate(9.897172, 21.508475) translate(8.277635, 0.000000)">
                        <ellipse cx=".99" cy="1.007" rx="1" ry="1.007"/>
                        <ellipse cx=".99" cy="4.485" rx="1" ry="1.007"/>
                    </g>
                    <g transform="translate(3.000000, 7.000000) translate(9.897172, 21.508475) translate(12.416452, 0.000000)">
                        <ellipse cx=".99" cy="1.007" rx="1" ry="1.007"/>
                        <ellipse cx=".99" cy="4.485" rx="1" ry="1.007"/>
                    </g>
                </g>
            </g>
        </g>
    </g>
</svg>
