<svg xmlns="http://www.w3.org/2000/svg" width="40" height="40" viewBox="0 0 40 40">
    <g fill="none" fill-rule="evenodd">
        <g fill-rule="nonzero">
            <g>
                <g>
                    <g>
                        <path fill="#FFF" d="M14.384.446c-4.116 0-7.536 3.134-7.878 7.176l-.034.409h-.893c-2.833 0-5.13 2.277-5.13 5.086 0 2.81 2.297 5.086 5.13 5.086h17.724c3.43 0 6.209-2.756 6.209-6.157 0-3.4-2.78-6.157-6.209-6.157-.327 0-.65.025-.97.075l-.368.057-.125-.35C20.732 2.566 17.762.447 14.384.447z" transform="translate(3.000000, 6.000000)"/>
                        <path fill="#303193" d="M14.384 1.338c-3.648 0-6.678 2.778-6.981 6.359l-.104 1.226H5.578c-2.335 0-4.228 1.877-4.228 4.194s1.893 4.194 4.229 4.194h17.724c2.932 0 5.309-2.357 5.309-5.265 0-2.907-2.377-5.264-5.309-5.264-.28 0-.557.021-.83.063l-1.107.172-.374-1.048c-.982-2.753-3.615-4.63-6.608-4.63zm0-1.338c3.638 0 6.733 2.305 7.88 5.523.339-.053.686-.08 1.04-.08 3.677 0 6.657 2.956 6.657 6.603s-2.98 6.603-6.658 6.603H5.58C2.498 18.65 0 16.173 0 13.117c0-3.055 2.497-5.532 5.579-5.532h.479C6.418 3.337 10.008 0 14.384 0z" transform="translate(3.000000, 6.000000)"/>
                    </g>
                    <g>
                        <path fill="#FFF" d="M11.018.325c-3.158 0-5.781 2.41-6.044 5.52l-.026.314h-.685c-2.174 0-3.935 1.75-3.935 3.911s1.761 3.912 3.935 3.912H17.86c2.63 0 4.763-2.12 4.763-4.735S20.49 4.512 17.86 4.512c-.251 0-.5.019-.744.057l-.283.044-.096-.269c-.85-2.39-3.129-4.019-5.72-4.019z" transform="translate(3.000000, 6.000000) translate(11.966581, 4.372308)"/>
                        <path fill="#303193" d="M11.058 1.338c-2.643 0-4.837 2.003-5.056 4.58l-.104 1.227h-1.61c-1.624 0-2.938 1.298-2.938 2.897 0 1.599 1.314 2.896 2.939 2.896h13.626c2.083 0 3.769-1.665 3.769-3.716s-1.686-3.717-3.77-3.717c-.199 0-.396.016-.59.046l-1.105.17-.375-1.045c-.71-1.983-2.617-3.338-4.786-3.338zm0-1.338c2.797 0 5.176 1.764 6.058 4.228.26-.04.527-.061.799-.061 2.827 0 5.118 2.263 5.118 5.055s-2.291 5.055-5.118 5.055H4.289C1.92 14.277 0 12.38 0 10.042c0-2.34 1.92-4.236 4.289-4.236h.368C4.934 2.554 7.694 0 11.058 0z" transform="translate(3.000000, 6.000000) translate(11.966581, 4.372308)"/>
                    </g>
                </g>
                <g fill="#E3384D">
                    <path d="M3.329 0L0 8.209 0 0M9.717 0L6.388 8.209 6.388 0M16.105 0L12.776 8.209 12.776 0" transform="translate(3.000000, 6.000000) translate(9.087404, 20.790769)"/>
                </g>
            </g>
        </g>
    </g>
</svg>
