<svg xmlns="http://www.w3.org/2000/svg" width="40" height="40" viewBox="0 0 40 40">
    <g fill="none" fill-rule="evenodd">
        <g fill-rule="nonzero">
            <g>
                <g>
                    <path fill="#4CD7FF" d="M5.86 11.604C2.622 11.604 0 9.006 0 5.802 0 2.598 2.623 0 5.86 0c3.235 0 5.858 2.598 5.858 5.802 0 3.204-2.623 5.802-5.859 5.802z" transform="translate(4.000000, 5.000000)"/>
                    <path fill="#02A9F1" d="M5.86 10.532c2.638 0 4.777-2.118 4.777-4.73 0-2.613-2.14-4.73-4.778-4.73-2.638 0-4.777 2.117-4.777 4.73 0 2.612 2.139 4.73 4.777 4.73zm0 1.072C2.622 11.604 0 9.006 0 5.802 0 2.598 2.623 0 5.86 0c3.235 0 5.858 2.598 5.858 5.802 0 3.204-2.623 5.802-5.859 5.802z" transform="translate(4.000000, 5.000000)"/>
                </g>
                <g>
                    <path fill="#FFF" d="M14.41.446c-4.123 0-7.549 3.135-7.892 7.178l-.034.41h-.895C2.751 8.033.451 10.31.451 13.12c0 2.81 2.3 5.088 5.138 5.088h17.757c3.436 0 6.22-2.758 6.22-6.16 0-3.4-2.784-6.158-6.22-6.158-.327 0-.652.025-.97.075l-.37.057-.125-.35C20.77 2.567 17.794.447 14.41.447z" transform="translate(4.000000, 5.000000) translate(1.983099, 1.071098)"/>
                    <path fill="#303193" d="M14.41 1.339c-3.654 0-6.69 2.778-6.994 6.36l-.104 1.227H5.59c-2.34 0-4.237 1.878-4.237 4.195s1.897 4.195 4.237 4.195h17.757c2.938 0 5.319-2.358 5.319-5.266 0-2.909-2.381-5.266-5.319-5.266-.28 0-.558.021-.831.063l-1.11.173-.374-1.049c-.984-2.754-3.621-4.632-6.62-4.632zm0-1.339c3.645 0 6.746 2.305 7.895 5.525.34-.053.687-.08 1.041-.08 3.684 0 6.67 2.957 6.67 6.605 0 3.648-2.986 6.605-6.67 6.605H5.59C2.502 18.655 0 16.178 0 13.12c0-3.056 2.502-5.534 5.589-5.534h.48C6.43 3.337 10.027 0 14.411 0z" transform="translate(4.000000, 5.000000) translate(1.983099, 1.071098)"/>
                </g>
                <g fill="#0A95D7">
                    <g>
                        <path d="M1.682 8.272c0 .46-.377.832-.841.832-.464 0-.841-.372-.841-.832v-3.11c0-.46.377-.832.84-.832.465 0 .842.373.842.833v3.109zM1.682 1.943c0 .46-.377.833-.841.833-.464 0-.841-.373-.841-.833V.833C0 .373.377 0 .84 0c.465 0 .842.373.842.833v1.11z" transform="translate(4.000000, 5.000000) translate(6.540513, 21.875120) translate(16.490491, 4.562440) scale(-1, 1) rotate(160.000000) translate(-16.490491, -4.562440) translate(15.649542, 0.010276)"/>
                    </g>
                    <g>
                        <path d="M1.682 8.272c0 .46-.377.832-.841.832-.464 0-.841-.372-.841-.832v-3.11c0-.46.377-.832.84-.832.465 0 .842.373.842.833v3.109zM1.682 1.943c0 .46-.377.833-.841.833-.464 0-.841-.373-.841-.833V.833C0 .373.377 0 .84 0c.465 0 .842.373.842.833v1.11z" transform="translate(4.000000, 5.000000) translate(6.540513, 21.875120) translate(11.781181, 4.562440) rotate(20.000000) translate(-11.781181, -4.562440) translate(10.940233, 0.010276)"/>
                    </g>
                    <g>
                        <path d="M1.682 8.272c0 .46-.377.832-.841.832-.464 0-.841-.372-.841-.832v-3.11c0-.46.377-.832.84-.832.465 0 .842.373.842.833v3.109zM1.682 1.943c0 .46-.377.833-.841.833-.464 0-.841-.373-.841-.833V.833C0 .373.377 0 .84 0c.465 0 .842.373.842.833v1.11z" transform="translate(4.000000, 5.000000) translate(6.540513, 21.875120) translate(7.071871, 4.562440) scale(-1, 1) rotate(160.000000) translate(-7.071871, -4.562440) translate(6.230923, 0.010276)"/>
                    </g>
                    <g>
                        <path d="M1.682 8.272c0 .46-.377.832-.841.832-.464 0-.841-.372-.841-.832v-3.11c0-.46.377-.832.84-.832.465 0 .842.373.842.833v3.109zM1.682 1.943c0 .46-.377.833-.841.833-.464 0-.841-.373-.841-.833V.833C0 .373.377 0 .84 0c.465 0 .842.373.842.833v1.11z" transform="translate(4.000000, 5.000000) translate(6.540513, 21.875120) translate(2.362562, 4.562440) rotate(20.000000) translate(-2.362562, -4.562440) translate(1.521614, 0.010276)"/>
                    </g>
                </g>
            </g>
        </g>
    </g>
</svg>
