<svg xmlns="http://www.w3.org/2000/svg" width="40" height="40" viewBox="0 0 40 40">
    <g fill="none" fill-rule="evenodd">
        <g fill-rule="nonzero">
            <g>
                <g>
                    <path fill="#4CD7FF" d="M5.848 11.631C2.618 11.631 0 9.027 0 5.816 0 2.604 2.618 0 5.848 0s5.849 2.604 5.849 5.816c0 3.211-2.619 5.815-5.849 5.815z" transform="translate(3.000000, 5.000000) translate(0.359897, 1.252582)"/>
                    <path fill="#02A9F1" d="M5.848 10.557c2.634 0 4.769-2.123 4.769-4.741 0-2.62-2.135-4.742-4.769-4.742-2.633 0-4.768 2.123-4.768 4.742 0 2.618 2.135 4.741 4.768 4.741zm0 1.074C2.618 11.631 0 9.027 0 5.816 0 2.604 2.618 0 5.848 0s5.849 2.604 5.849 5.816c0 3.211-2.619 5.815-5.849 5.815z" transform="translate(3.000000, 5.000000) translate(0.359897, 1.252582)"/>
                </g>
                <g>
                    <g>
                        <path fill="#FFF" d="M14.384.447c-4.116 0-7.536 3.142-7.878 7.195l-.034.41h-.893c-2.833 0-5.13 2.283-5.13 5.1 0 2.817 2.297 5.1 5.13 5.1h17.724c3.43 0 6.209-2.764 6.209-6.174 0-3.409-2.78-6.173-6.209-6.173-.327 0-.65.025-.97.075l-.368.057-.125-.35c-1.108-3.115-4.078-5.24-7.456-5.24z" transform="translate(3.000000, 5.000000)"/>
                        <path fill="#303193" d="M14.384 1.342c-3.648 0-6.678 2.785-6.981 6.375l-.104 1.23H5.578c-2.335 0-4.228 1.882-4.228 4.205 0 2.323 1.893 4.205 4.229 4.205h17.724c2.932 0 5.309-2.363 5.309-5.279 0-2.915-2.377-5.278-5.309-5.278-.28 0-.557.021-.83.064l-1.107.172-.374-1.05c-.982-2.761-3.615-4.644-6.608-4.644zm0-1.342c3.638 0 6.733 2.31 7.88 5.538.339-.053.686-.08 1.04-.08 3.677 0 6.657 2.964 6.657 6.62 0 3.657-2.98 6.621-6.658 6.621H5.58C2.498 18.7 0 16.216 0 13.152c0-3.063 2.497-5.547 5.579-5.547h.479C6.418 3.345 10.008 0 14.384 0z" transform="translate(3.000000, 5.000000)"/>
                    </g>
                    <g>
                        <path fill="#FFF" d="M11.018.326C7.86.326 5.237 2.743 4.974 5.86l-.026.315h-.685c-2.174 0-3.935 1.756-3.935 3.922 0 2.167 1.761 3.923 3.935 3.923H17.86c2.63 0 4.763-2.126 4.763-4.748 0-2.623-2.133-4.748-4.763-4.748-.251 0-.5.019-.744.057l-.283.044-.096-.27C15.888 1.96 13.61.327 11.018.327z" transform="translate(3.000000, 5.000000) translate(11.966581, 4.384038)"/>
                        <path fill="#303193" d="M11.058 1.342c-2.643 0-4.837 2.008-5.056 4.593l-.104 1.229h-1.61c-1.624 0-2.938 1.302-2.938 2.905 0 1.603 1.314 2.904 2.939 2.904h13.626c2.083 0 3.769-1.67 3.769-3.726 0-2.057-1.686-3.727-3.77-3.727-.199 0-.396.015-.59.045l-1.105.172-.375-1.048c-.71-1.989-2.617-3.347-4.786-3.347zm0-1.342c2.797 0 5.176 1.77 6.058 4.24.26-.04.527-.062.799-.062 2.827 0 5.118 2.27 5.118 5.069s-2.291 5.068-5.118 5.068H4.289C1.92 14.315 0 12.415 0 10.07c0-2.346 1.92-4.247 4.289-4.247h.368C4.934 2.562 7.694 0 11.058 0z" transform="translate(3.000000, 5.000000) translate(11.966581, 4.384038)"/>
                    </g>
                </g>
                <g fill="#0A95D7">
                    <g>
                        <path d="M1.679 8.291c0 .461-.376.835-.84.835-.463 0-.839-.374-.839-.835V5.175c0-.46.376-.835.84-.835.463 0 .839.374.839.835v3.116zM1.679 1.948c0 .46-.376.834-.84.834C.376 2.782 0 2.41 0 1.948V.835C0 .374.376 0 .84 0c.463 0 .839.374.839.835v1.113z" transform="translate(3.000000, 5.000000) translate(6.708377, 20.853443) translate(16.460021, 4.573278) scale(-1, 1) rotate(160.000000) translate(-16.460021, -4.573278) translate(15.620627, 0.010300)"/>
                    </g>
                    <g>
                        <path d="M1.679 8.291c0 .461-.376.835-.84.835-.463 0-.839-.374-.839-.835V5.175c0-.46.376-.835.84-.835.463 0 .839.374.839.835v3.116zM1.679 1.948c0 .46-.376.834-.84.834C.376 2.782 0 2.41 0 1.948V.835C0 .374.376 0 .84 0c.463 0 .839.374.839.835v1.113z" transform="translate(3.000000, 5.000000) translate(6.708377, 20.853443) translate(11.759413, 4.573278) rotate(20.000000) translate(-11.759413, -4.573278) translate(10.920019, 0.010300)"/>
                    </g>
                    <g>
                        <path d="M1.679 8.291c0 .461-.376.835-.84.835-.463 0-.839-.374-.839-.835V5.175c0-.46.376-.835.84-.835.463 0 .839.374.839.835v3.116zM1.679 1.948c0 .46-.376.834-.84.834C.376 2.782 0 2.41 0 1.948V.835C0 .374.376 0 .84 0c.463 0 .839.374.839.835v1.113z" transform="translate(3.000000, 5.000000) translate(6.708377, 20.853443) translate(7.058805, 4.573278) scale(-1, 1) rotate(160.000000) translate(-7.058805, -4.573278) translate(6.219411, 0.010300)"/>
                    </g>
                    <g>
                        <path d="M1.679 8.291c0 .461-.376.835-.84.835-.463 0-.839-.374-.839-.835V5.175c0-.46.376-.835.84-.835.463 0 .839.374.839.835v3.116zM1.679 1.948c0 .46-.376.834-.84.834C.376 2.782 0 2.41 0 1.948V.835C0 .374.376 0 .84 0c.463 0 .839.374.839.835v1.113z" transform="translate(3.000000, 5.000000) translate(6.708377, 20.853443) translate(2.358197, 4.573278) rotate(20.000000) translate(-2.358197, -4.573278) translate(1.518802, 0.010300)"/>
                    </g>
                </g>
            </g>
        </g>
    </g>
</svg>
