<svg xmlns="http://www.w3.org/2000/svg" width="40" height="40" viewBox="0 0 40 40">
    <g fill="none" fill-rule="evenodd">
        <g fill-rule="nonzero">
            <g>
                <g>
                    <path fill="#4CD7FF" d="M5.86 11.538C2.622 11.538 0 8.955 0 5.77S2.623 0 5.86 0c3.235 0 5.858 2.583 5.858 5.77 0 3.185-2.623 5.768-5.859 5.768z" transform="translate(4.000000, 5.000000)"/>
                    <path fill="#02A9F1" d="M5.86 10.473c2.638 0 4.777-2.106 4.777-4.704s-2.14-4.704-4.778-4.704c-2.638 0-4.777 2.106-4.777 4.704s2.139 4.704 4.777 4.704zm0 1.065C2.622 11.538 0 8.955 0 5.77S2.623 0 5.86 0c3.235 0 5.858 2.583 5.858 5.77 0 3.185-2.623 5.768-5.859 5.768z" transform="translate(4.000000, 5.000000)"/>
                </g>
                <g>
                    <path fill="#FFF" d="M14.41.444c-4.123 0-7.549 3.117-7.892 7.138l-.034.406h-.895c-2.838 0-5.138 2.265-5.138 5.06 0 2.794 2.3 5.059 5.138 5.059h17.757c3.436 0 6.22-2.742 6.22-6.125 0-3.382-2.784-6.124-6.22-6.124-.327 0-.652.025-.97.074l-.37.057-.125-.347C20.77 2.552 17.794.444 14.41.444z" transform="translate(4.000000, 5.000000) translate(1.983099, 1.065089)"/>
                    <path fill="#303193" d="M14.41 1.331c-3.654 0-6.69 2.763-6.994 6.325l-.104 1.22H5.59c-2.34 0-4.237 1.867-4.237 4.171 0 2.305 1.897 4.172 4.237 4.172h17.757c2.938 0 5.319-2.345 5.319-5.237s-2.381-5.236-5.319-5.236c-.28 0-.558.02-.831.063l-1.11.171-.374-1.042c-.984-2.739-3.621-4.607-6.62-4.607zm0-1.331c3.645 0 6.746 2.293 7.895 5.494.34-.053.687-.08 1.041-.08 3.684 0 6.67 2.94 6.67 6.568 0 3.628-2.986 6.568-6.67 6.568H5.59C2.502 18.55 0 16.087 0 13.047c0-3.039 2.502-5.503 5.589-5.503h.48C6.43 3.32 10.027 0 14.411 0z" transform="translate(4.000000, 5.000000) translate(1.983099, 1.065089)"/>
                </g>
                <g fill="#0A95D7">
                    <path d="M5.048 5.504c0 1.372-1.13 2.484-2.524 2.484C1.13 7.988 0 6.876 0 5.504c0-.38.087-.74.242-1.062L1.655.9c.48-1.2 1.256-1.202 1.736 0l1.407 3.524c.16.327.25.693.25 1.08zM12.8 5.504c0 1.372-1.13 2.484-2.524 2.484-1.394 0-2.524-1.112-2.524-2.484 0-.38.087-.74.242-1.062L9.407.9c.48-1.2 1.257-1.202 1.736 0l1.407 3.524c.16.327.25.693.25 1.08zM20.552 5.504c0 1.372-1.13 2.484-2.524 2.484-1.394 0-2.524-1.112-2.524-2.484 0-.38.087-.74.242-1.062L17.16.9c.479-1.2 1.256-1.202 1.735 0l1.407 3.524c.16.327.25.693.25 1.08z" transform="translate(4.000000, 5.000000) translate(6.670423, 22.011834)"/>
                </g>
            </g>
        </g>
    </g>
</svg>
