<svg xmlns="http://www.w3.org/2000/svg" width="40" height="40" viewBox="0 0 40 40">
    <g fill="none" fill-rule="evenodd">
        <g fill-rule="nonzero">
            <g>
                <g>
                    <path fill="#4CD7FF" d="M5.848 11.564C2.618 11.564 0 8.976 0 5.782 0 2.59 2.618 0 5.848 0s5.849 2.589 5.849 5.782c0 3.194-2.619 5.782-5.849 5.782z" transform="translate(3.000000, 6.000000) translate(0.359897, 1.245399)"/>
                    <path fill="#02A9F1" d="M5.848 10.497c2.634 0 4.769-2.11 4.769-4.715 0-2.604-2.135-4.715-4.769-4.715-2.633 0-4.768 2.111-4.768 4.715 0 2.604 2.135 4.715 4.768 4.715zm0 1.067C2.618 11.564 0 8.976 0 5.782 0 2.59 2.618 0 5.848 0s5.849 2.589 5.849 5.782c0 3.194-2.619 5.782-5.849 5.782z" transform="translate(3.000000, 6.000000) translate(0.359897, 1.245399)"/>
                </g>
                <g>
                    <g>
                        <path fill="#FFF" d="M14.384.445c-4.116 0-7.536 3.124-7.878 7.154l-.034.407h-.893c-2.833 0-5.13 2.27-5.13 5.07 0 2.802 2.297 5.071 5.13 5.071h17.724c3.43 0 6.209-2.748 6.209-6.138 0-3.39-2.78-6.138-6.209-6.138-.327 0-.65.025-.97.074l-.368.058-.125-.349c-1.108-3.097-4.078-5.21-7.456-5.21z" transform="translate(3.000000, 6.000000)"/>
                        <path fill="#303193" d="M14.384 1.334c-3.648 0-6.678 2.769-6.981 6.339l-.104 1.223H5.578c-2.335 0-4.228 1.871-4.228 4.18 0 2.31 1.893 4.182 4.229 4.182h17.724c2.932 0 5.309-2.35 5.309-5.249 0-2.898-2.377-5.248-5.309-5.248-.28 0-.557.021-.83.063l-1.107.172-.374-1.045c-.982-2.744-3.615-4.617-6.608-4.617zm0-1.334c3.638 0 6.733 2.298 7.88 5.506.339-.052.686-.08 1.04-.08 3.677 0 6.657 2.948 6.657 6.583 0 3.636-2.98 6.583-6.658 6.583H5.58C2.498 18.592 0 16.123 0 13.077S2.497 7.56 5.579 7.56h.479C6.418 3.326 10.008 0 14.384 0z" transform="translate(3.000000, 6.000000)"/>
                    </g>
                    <g>
                        <path fill="#FFF" d="M11.018.324c-3.158 0-5.781 2.403-6.044 5.502l-.026.314h-.685c-2.174 0-3.935 1.746-3.935 3.9s1.761 3.9 3.935 3.9H17.86c2.63 0 4.763-2.114 4.763-4.721 0-2.608-2.133-4.721-4.763-4.721-.251 0-.5.019-.744.057l-.283.044-.096-.268c-.85-2.382-3.129-4.007-5.72-4.007z" transform="translate(3.000000, 6.000000) translate(11.966581, 4.358896)"/>
                        <path fill="#303193" d="M11.058 1.334c-2.643 0-4.837 1.996-5.056 4.567l-.104 1.222h-1.61c-1.624 0-2.938 1.294-2.938 2.888 0 1.594 1.314 2.888 2.939 2.888h13.626c2.083 0 3.769-1.66 3.769-3.705s-1.686-3.705-3.77-3.705c-.199 0-.396.015-.59.045l-1.105.17-.375-1.042c-.71-1.977-2.617-3.328-4.786-3.328zm0-1.334c2.797 0 5.176 1.759 6.058 4.215.26-.04.527-.06.799-.06 2.827 0 5.118 2.255 5.118 5.039 0 2.783-2.291 5.04-5.118 5.04H4.289C1.92 14.233 0 12.343 0 10.01c0-2.332 1.92-4.222 4.289-4.222h.368C4.934 2.546 7.694 0 11.058 0z" transform="translate(3.000000, 6.000000) translate(11.966581, 4.358896)"/>
                    </g>
                </g>
                <g fill="#0A95D7">
                    <path d="M5.039 5.517c0 1.375-1.128 2.49-2.52 2.49C1.128 8.006 0 6.891 0 5.516c0-.381.087-.742.241-1.065L1.652.903c.479-1.204 1.254-1.204 1.733 0l1.404 3.532c.16.327.25.694.25 1.082zM12.776 5.517c0 1.375-1.128 2.49-2.519 2.49-1.391 0-2.52-1.115-2.52-2.49 0-.381.087-.742.242-1.065L9.39.903c.478-1.204 1.254-1.204 1.733 0l1.404 3.532c.16.327.25.694.25 1.082zM20.514 5.517c0 1.375-1.128 2.49-2.52 2.49-1.39 0-2.518-1.115-2.518-2.49 0-.381.086-.742.241-1.065l1.41-3.549c.48-1.204 1.255-1.204 1.733 0l1.405 3.532c.16.327.25.694.25 1.082z" transform="translate(3.000000, 6.000000) translate(6.838046, 20.993865)"/>
                </g>
            </g>
        </g>
    </g>
</svg>
