<svg xmlns="http://www.w3.org/2000/svg" width="40" height="40" viewBox="0 0 40 40">
    <g fill="none" fill-rule="evenodd">
        <g fill-rule="nonzero">
            <g>
                <g>
                    <path fill="#4CD7FF" d="M5.86 11.607C2.622 11.607 0 9.01 0 5.804 0 2.598 2.623 0 5.86 0c3.235 0 5.858 2.598 5.858 5.804 0 3.205-2.623 5.803-5.859 5.803z" transform="translate(4.000000, 5.000000)"/>
                    <path fill="#02A9F1" d="M5.86 10.536c2.638 0 4.777-2.119 4.777-4.732 0-2.614-2.14-4.733-4.778-4.733-2.638 0-4.777 2.12-4.777 4.733 0 2.613 2.139 4.732 4.777 4.732zm0 1.071C2.622 11.607 0 9.01 0 5.804 0 2.598 2.623 0 5.86 0c3.235 0 5.858 2.598 5.858 5.804 0 3.205-2.623 5.803-5.859 5.803z" transform="translate(4.000000, 5.000000)"/>
                </g>
                <g>
                    <path fill="#FFF" d="M14.41.446c-4.123 0-7.549 3.136-7.892 7.18l-.034.41h-.895c-2.838 0-5.138 2.278-5.138 5.089 0 2.811 2.3 5.09 5.138 5.09h17.757c3.436 0 6.22-2.759 6.22-6.161 0-3.403-2.784-6.161-6.22-6.161-.327 0-.652.025-.97.074l-.37.058-.125-.35C20.77 2.567 17.794.446 14.41.446z" transform="translate(4.000000, 5.000000) translate(1.983099, 1.071429)"/>
                    <path fill="#303193" d="M14.41 1.34c-3.654 0-6.69 2.778-6.994 6.361L7.312 8.93H5.59c-2.34 0-4.237 1.878-4.237 4.196 0 2.318 1.897 4.196 4.237 4.196h17.757c2.938 0 5.319-2.358 5.319-5.267 0-2.91-2.381-5.268-5.319-5.268-.28 0-.558.021-.831.064l-1.11.172-.374-1.05c-.984-2.754-3.621-4.633-6.62-4.633zm0-1.34c3.645 0 6.746 2.306 7.895 5.526.34-.052.687-.08 1.041-.08 3.684 0 6.67 2.959 6.67 6.608 0 3.649-2.986 6.607-6.67 6.607H5.59C2.502 18.66 0 16.183 0 13.125c0-3.057 2.502-5.536 5.589-5.536h.48C6.43 3.34 10.027 0 14.411 0z" transform="translate(4.000000, 5.000000) translate(1.983099, 1.071429)"/>
                </g>
                <g fill="#0A95D7">
                    <path d="M10.276 5.537c0 1.38-1.13 2.499-2.524 2.499-1.394 0-2.524-1.119-2.524-2.499 0-.382.087-.745.242-1.069L6.883.906c.48-1.208 1.257-1.209 1.736 0l1.407 3.546c.16.328.25.696.25 1.085zM3.425 3.691c0 .92-.766 1.666-1.712 1.666S0 4.611 0 3.691c0-.255.059-.496.164-.712l.96-2.375c.325-.805.852-.806 1.177 0l.955 2.364c.108.219.17.464.17.723zM24.578 1.845l1.202-.71c.23-.132.524-.053.657.177.133.23.054.524-.176.656l-1.202.71 1.202.71c.23.134.309.427.176.657-.133.23-.427.309-.657.176l-1.202-.71v1.375c0 .26-.215.471-.48.471-.266 0-.481-.21-.481-.47V3.511l-1.262.71c-.23.132-.524.053-.657-.177-.133-.23-.054-.523.176-.656l1.202-.71-1.202-.71c-.23-.133-.309-.427-.176-.657.133-.23.427-.309.657-.176l1.262.71V.47c0-.26.215-.471.48-.471.266 0 .481.21.481.471v1.374zM16.946 2.768l1.803-1.064c.345-.2.786-.081.985.264.2.345.081.785-.264.985l-1.802 1.065 1.802 1.065c.345.2.463.64.264.985s-.64.463-.985.264l-1.803-1.064v2.061c0 .39-.322.707-.72.707-.399 0-.722-.317-.722-.707V5.268l-1.892 1.064c-.345.199-.786.08-.986-.264-.199-.345-.08-.786.264-.985l1.803-1.065-1.803-1.065c-.345-.2-.463-.64-.264-.985.2-.345.64-.463.986-.264l1.892 1.064V.706c0-.39.323-.706.721-.706.399 0 .721.316.721.706v2.062z" transform="translate(4.000000, 5.000000) translate(3.605634, 21.964286)"/>
                </g>
            </g>
        </g>
    </g>
</svg>
