<svg xmlns="http://www.w3.org/2000/svg" width="40" height="40" viewBox="0 0 40 40">
    <g fill="none" fill-rule="evenodd">
        <g fill-rule="nonzero">
            <g>
                <g>
                    <path fill="#4CD7FF" d="M5.86 11.58C2.622 11.58 0 8.988 0 5.79S2.623 0 5.86 0c3.235 0 5.858 2.592 5.858 5.79s-2.623 5.79-5.859 5.79z" transform="translate(4.000000, 5.000000)"/>
                    <path fill="#02A9F1" d="M5.86 10.511c2.638 0 4.777-2.113 4.777-4.72 0-2.608-2.14-4.722-4.778-4.722-2.638 0-4.777 2.114-4.777 4.721 0 2.608 2.139 4.721 4.777 4.721zm0 1.07C2.622 11.58 0 8.987 0 5.79 0 2.591 2.623 0 5.86 0c3.235 0 5.858 2.592 5.858 5.79s-2.623 5.79-5.859 5.79z" transform="translate(4.000000, 5.000000)"/>
                </g>
                <g>
                    <path fill="#FFF" d="M14.41 0c3.645 0 6.746 2.3 7.895 5.514.34-.053.687-.08 1.041-.08 3.684 0 6.67 2.951 6.67 6.592 0 3.64-2.986 6.592-6.67 6.592H5.59C2.502 18.618 0 16.146 0 13.095c0-3.05 2.502-5.523 5.589-5.523h.48C6.43 3.33 10.027 0 14.411 0z" transform="translate(4.000000, 5.000000) translate(1.983099, 1.068966)"/>
                    <path fill="#303193" d="M28.665 12.026c0-2.903-2.381-5.256-5.319-5.256-.28 0-.558.022-.831.064l-1.11.172-.374-1.047c-.984-2.748-3.621-4.623-6.62-4.623-3.655 0-6.69 2.773-6.995 6.348l-.104 1.224H5.59c-2.34 0-4.237 1.874-4.237 4.187s1.897 4.187 4.237 4.187h.63c.353.024.632.314.632.668 0 .354-.279.643-.631.666l-.631.002C2.502 18.618 0 16.146 0 13.095c0-3.05 2.502-5.523 5.589-5.523h.48C6.43 3.33 10.027 0 14.411 0c3.644 0 6.745 2.3 7.894 5.514.34-.053.687-.08 1.041-.08 3.684 0 6.67 2.951 6.67 6.592 0 3.551-2.84 6.446-6.4 6.586-.418-.003-.72-.302-.72-.671 0-.37.302-.668.676-.668 2.867-.14 5.093-2.444 5.093-5.247z" transform="translate(4.000000, 5.000000) translate(1.983099, 1.068966)"/>
                </g>
                <g fill="#0A95D7">
                    <path d="M19.227 8.862l-.682.39c-.251.143-.572.057-.717-.19-.145-.249-.059-.566.192-.709l.671-.383-.67-.382c-.252-.143-.338-.46-.193-.709.145-.248.466-.333.717-.19l.682.39v-.77c0-.287.235-.519.525-.519.29 0 .525.232.525.519v.757l.66-.377c.25-.143.572-.058.717.19.144.248.058.566-.193.709l-.67.382.67.383c.251.143.337.46.193.708-.145.248-.466.334-.717.19l-.66-.376v.762c0 .286-.235.518-.525.518-.29 0-.525-.232-.525-.518v-.775zM13.194 4.508l-1.542.886c-.295.17-.672.07-.843-.225-.17-.293-.069-.67.226-.839l1.542-.85-1.542-.9c-.295-.17-.396-.546-.226-.84.17-.293.548-.394.843-.224l1.542.886V.614c0-.339.276-.614.616-.614.34 0 .617.275.617.614V2.38l1.504-.864c.295-.17.672-.07.843.224.17.294.069.67-.226.84l-1.504.9 1.504.85c.295.17.396.546.226.84-.17.293-.548.394-.843.224l-1.504-.865v1.716c0 .34-.276.614-.617.614-.34 0-.616-.275-.616-.614V4.508zM13.246 12.65l-1.405.806c-.27.154-.613.062-.768-.205-.156-.267-.063-.608.205-.763l1.406-.772-1.406-.82c-.268-.153-.36-.495-.205-.762s.499-.359.768-.205l1.405.806V9.11c0-.308.252-.558.563-.558.31 0 .562.25.562.558v1.606l1.371-.787c.27-.154.613-.062.769.205.155.267.063.609-.206.763l-1.372.82 1.372.771c.269.155.36.496.206.763-.156.267-.5.359-.769.205l-1.371-.787v1.56c0 .308-.252.558-.562.558-.31 0-.563-.25-.563-.558v-1.58zM2.742 8.267c.091.19.143.402.143.626 0 .795-.646 1.44-1.443 1.44C.646 10.333 0 9.688 0 8.893c0-.22.05-.43.138-.616l.808-2.053c.274-.697.718-.697.992 0l.804 2.043zM8.52 3.948c.144.29.224.617.224.962 0 1.224-1.01 2.216-2.254 2.216S4.237 6.134 4.237 4.91c0-.339.077-.66.216-.947L5.715.803c.428-1.07 1.121-1.071 1.55 0L8.52 3.949zM8.277 12.006c.126.255.196.54.196.842 0 1.071-.888 1.94-1.983 1.94-1.095 0-1.983-.869-1.983-1.94 0-.296.068-.577.19-.829l1.11-2.764c.377-.937.988-.938 1.365 0l1.105 2.751z" transform="translate(4.000000, 5.000000) translate(6.219718, 16.212644)"/>
                </g>
            </g>
        </g>
    </g>
</svg>
