<svg xmlns="http://www.w3.org/2000/svg" width="40" height="40" viewBox="0 0 40 40">
    <g fill="none" fill-rule="evenodd">
        <g fill-rule="nonzero">
            <g>
                <g>
                    <path fill="#4CD7FF" d="M5.848 11.636C2.618 11.636 0 9.03 0 5.818 0 2.605 2.618 0 5.848 0s5.849 2.605 5.849 5.818c0 3.213-2.619 5.818-5.849 5.818z" transform="translate(3.000000, 6.000000) translate(0.359897, 1.253086)"/>
                    <path fill="#02A9F1" d="M5.848 10.562c2.634 0 4.769-2.124 4.769-4.744 0-2.62-2.135-4.744-4.769-4.744-2.633 0-4.768 2.124-4.768 4.744 0 2.62 2.135 4.744 4.768 4.744zm0 1.074C2.618 11.636 0 9.03 0 5.818 0 2.605 2.618 0 5.848 0s5.849 2.605 5.849 5.818c0 3.213-2.619 5.818-5.849 5.818z" transform="translate(3.000000, 6.000000) translate(0.359897, 1.253086)"/>
                </g>
                <g>
                    <g>
                        <path fill="#FFF" d="M14.384.448c-4.116 0-7.536 3.143-7.878 7.197l-.034.41h-.893c-2.833 0-5.13 2.284-5.13 5.102 0 2.819 2.297 5.102 5.13 5.102h17.724c3.43 0 6.209-2.765 6.209-6.176 0-3.41-2.78-6.176-6.209-6.176-.327 0-.65.026-.97.075l-.368.058-.125-.35C20.732 2.572 17.762.447 14.384.447z" transform="translate(3.000000, 6.000000)"/>
                        <path fill="#303193" d="M14.384 1.343c-3.648 0-6.678 2.785-6.981 6.377l-.104 1.23H5.578c-2.335 0-4.228 1.884-4.228 4.207 0 2.324 1.893 4.207 4.229 4.207h17.724c2.932 0 5.309-2.364 5.309-5.28 0-2.917-2.377-5.282-5.309-5.282-.28 0-.557.022-.83.064l-1.107.173-.374-1.051c-.982-2.762-3.615-4.645-6.608-4.645zm0-1.343c3.638 0 6.733 2.312 7.88 5.54.339-.053.686-.08 1.04-.08 3.677 0 6.657 2.965 6.657 6.623 0 3.658-2.98 6.624-6.658 6.624H5.58C2.498 18.707 0 16.223 0 13.157c0-3.064 2.497-5.549 5.579-5.549h.479C6.418 3.347 10.008 0 14.384 0z" transform="translate(3.000000, 6.000000)"/>
                    </g>
                    <g>
                        <path fill="#FFF" d="M11.018.326c-3.158 0-5.781 2.418-6.044 5.536l-.026.316h-.685C2.089 6.178.328 7.934.328 10.1c0 2.168 1.761 3.924 3.935 3.924H17.86c2.63 0 4.763-2.126 4.763-4.75 0-2.623-2.133-4.75-4.763-4.75-.251 0-.5.02-.744.058l-.283.044-.096-.27c-.85-2.396-3.129-4.03-5.72-4.03z" transform="translate(3.000000, 6.000000) translate(11.966581, 4.385802)"/>
                        <path fill="#303193" d="M11.058 1.343c-2.643 0-4.837 2.008-5.056 4.594l-.104 1.23h-1.61c-1.624 0-2.938 1.302-2.938 2.906 0 1.603 1.314 2.905 2.939 2.905h13.626c2.083 0 3.769-1.67 3.769-3.728 0-2.057-1.686-3.728-3.77-3.728-.199 0-.396.016-.59.046l-1.105.171-.375-1.049c-.71-1.989-2.617-3.347-4.786-3.347zm0-1.343c2.797 0 5.176 1.77 6.058 4.241.26-.04.527-.061.799-.061 2.827 0 5.118 2.27 5.118 5.07 0 2.8-2.291 5.071-5.118 5.071H4.289C1.92 14.321 0 12.419 0 10.073c0-2.347 1.92-4.249 4.289-4.249h.368C4.934 2.562 7.694 0 11.058 0z" transform="translate(3.000000, 6.000000) translate(11.966581, 4.385802)"/>
                    </g>
                </g>
                <g fill="#0A95D7">
                    <path d="M10.257 5.55c0 1.384-1.128 2.506-2.52 2.506-1.39 0-2.518-1.122-2.518-2.505 0-.384.086-.747.24-1.072L6.872.91c.478-1.211 1.254-1.212 1.732 0l1.405 3.554c.16.329.25.698.25 1.088zM3.419 3.7c0 .923-.765 1.67-1.71 1.67C.766 5.37 0 4.623 0 3.7c0-.255.059-.497.164-.714L1.12.606c.325-.808.851-.808 1.176 0l.953 2.369c.108.22.169.465.169.725zM24.533 1.85l1.2-.711c.229-.133.522-.054.655.176.133.23.054.525-.176.658l-1.2.712 1.2.712c.23.133.309.428.176.658-.133.23-.426.31-.656.177l-1.199-.711v1.377c0 .261-.215.472-.48.472s-.48-.211-.48-.472V3.521l-1.259.71c-.23.134-.523.055-.656-.176-.132-.23-.054-.525.176-.658l1.2-.712-1.2-.712c-.23-.133-.308-.428-.176-.658.133-.23.426-.31.656-.176l1.26.71V.473c0-.26.214-.472.48-.472.264 0 .479.211.479.472V1.85zM16.915 2.775l1.799-1.067c.344-.2.785-.081.984.265.199.345.08.787-.264.987l-1.799 1.068 1.8 1.068c.344.2.462.641.263.987-.2.346-.64.464-.984.264l-1.799-1.066v2.066c0 .391-.322.709-.72.709-.397 0-.72-.318-.72-.709V5.281l-1.888 1.066c-.345.2-.785.082-.984-.264-.199-.346-.08-.788.264-.987l1.799-1.068-1.8-1.068c-.344-.2-.462-.642-.263-.987.199-.346.64-.465.984-.265l1.889 1.067V.708c0-.39.322-.708.72-.708.397 0 .72.317.72.708v2.067z" transform="translate(3.000000, 6.000000) translate(3.778920, 20.944444)"/>
                </g>
            </g>
        </g>
    </g>
</svg>
