<svg xmlns="http://www.w3.org/2000/svg" width="40" height="40" viewBox="0 0 40 40">
    <g fill="none" fill-rule="evenodd">
        <g fill-rule="nonzero">
            <g>
                <g>
                    <g>
                        <path fill="#FFF" d="M14.384.893c-4.116 0-7.536 3.135-7.878 7.18l-.034.41h-.893c-2.833 0-5.13 2.277-5.13 5.088 0 2.812 2.297 5.09 5.13 5.09h17.724c3.43 0 6.209-2.759 6.209-6.161 0-3.402-2.78-6.16-6.209-6.16-.327 0-.65.024-.97.074l-.368.057-.125-.35C20.732 3.014 17.762.894 14.384.894z" transform="translate(3.000000, 5.000000)"/>
                        <path fill="#303193" d="M5.579 18.66C2.498 18.66 0 16.184 0 13.126c0-3.057 2.497-5.536 5.579-5.536h.479C6.418 3.34 10.008 0 14.384 0c3.638 0 6.733 2.306 7.88 5.526.339-.052.686-.08 1.04-.08 3.677 0 6.657 2.959 6.657 6.608 0 3.649-2.98 6.607-6.658 6.607v-1.34c2.932 0 5.309-2.358 5.309-5.267 0-2.91-2.377-5.268-5.309-5.268-.28 0-.557.021-.83.064l-1.107.172-.374-1.05c-.982-2.754-3.615-4.633-6.608-4.633-3.648 0-6.678 2.78-6.981 6.362L7.299 8.93h-1.72c-2.336 0-4.23 1.878-4.23 4.196 0 2.318 1.894 4.196 4.23 4.196h3.238v.002c.352.023.63.313.63.668 0 .355-.278.645-.63.668v.002H5.58z" transform="translate(3.000000, 5.000000)"/>
                    </g>
                    <g>
                        <path fill="#FFF" d="M10.69.625c-3.158 0-5.781 2.411-6.044 5.522l-.026.315h-.685C1.76 6.462 0 8.214 0 10.376s1.761 3.914 3.935 3.914h13.598c2.63 0 4.763-2.12 4.763-4.738 0-2.617-2.133-4.738-4.763-4.738-.251 0-.5.02-.744.057l-.283.044-.096-.268C15.56 2.256 13.281.625 10.69.625z" transform="translate(3.000000, 5.000000) translate(12.326478, 4.375000)"/>
                        <path fill="#303193" d="M10.707 0c2.796 0 5.167 1.765 6.05 4.23.26-.04.526-.06.798-.06 2.827 0 5.119 2.264 5.119 5.058 0 2.793-2.292 5.058-5.119 5.058h-4.494v-.003l-.06.003c-.372 0-.675-.3-.675-.67 0-.37.303-.67.675-.67l.06.003v-.003h4.494c2.083 0 3.769-1.666 3.769-3.718 0-2.053-1.686-3.72-3.769-3.72-.2 0-.397.016-.59.046l-1.106.171-.375-1.046c-.71-1.987-2.61-3.34-4.777-3.34-2.779 0-4.835 1.68-5.043 4.13l-.105 1.227H4.32c-1.228 0-2.59 1.02-2.975 2.098-.044.328-.327.581-.67.581-.372 0-.674-.3-.674-.67 0-.044.004-.088.013-.13L0 8.571c.45-1.607 2.333-3.214 4.319-3.214C4.595 2.103 7.343 0 10.707 0z" transform="translate(3.000000, 5.000000) translate(12.326478, 4.375000)"/>
                    </g>
                </g>
                <g fill="#0A95D7">
                    <path d="M19.192 8.793l-.681.39c-.25.144-.571.059-.716-.19-.144-.249-.059-.567.192-.71l.67-.384-.67-.383c-.25-.144-.336-.461-.192-.71.145-.249.465-.334.716-.19l.68.39v-.772c0-.287.235-.52.525-.52.289 0 .523.233.523.52v.759l.659-.377c.25-.144.571-.059.716.19.144.249.058.566-.192.71l-.67.383.67.384c.25.143.336.461.192.71-.145.249-.465.334-.716.19l-.659-.377v.764c0 .287-.234.52-.523.52-.29 0-.524-.233-.524-.52v-.777zM13.17 4.518l-1.54.889c-.294.17-.67.069-.84-.226-.17-.294-.07-.67.225-.84l1.539-.852-1.54-.904c-.294-.17-.394-.546-.225-.84.17-.295.547-.396.841-.226l1.54.888V.616c0-.34.275-.616.615-.616.34 0 .615.276.615.616v1.77l1.502-.867c.294-.17.67-.069.84.225.17.295.07.671-.225.841l-1.501.904 1.501.851c.295.17.396.547.226.841-.17.295-.547.396-.841.226L14.4 4.54v1.72c0 .34-.275.615-.615.615-.34 0-.616-.276-.616-.616V4.52zM13.222 12.59l-1.403.807c-.269.155-.612.063-.767-.205-.155-.267-.063-.61.206-.764l1.403-.774-1.403-.821c-.269-.155-.36-.497-.206-.765.155-.268.498-.36.767-.205l1.403.808V9.04c0-.308.251-.559.561-.559.31 0 .561.25.561.56v1.61l1.37-.789c.268-.154.611-.063.766.205.155.268.063.61-.206.765l-1.368.82 1.368.775c.269.154.361.497.206.764-.155.268-.498.36-.767.205l-1.369-.788v1.563c0 .31-.25.56-.56.56-.31 0-.562-.25-.562-.56V12.59zM2.737 8.197c.091.19.142.402.142.627 0 .797-.644 1.444-1.44 1.444C.646 10.268 0 9.62 0 8.824c0-.22.05-.43.138-.617l.806-2.058c.274-.698.717-.699.99 0l.803 2.048zM8.505 3.957c.143.292.223.619.223.965 0 1.226-1.008 2.22-2.25 2.22s-2.25-.994-2.25-2.22c0-.34.078-.662.216-.95L5.704.806c.427-1.074 1.12-1.075 1.547 0l1.254 3.15zM8.262 11.944c.125.256.196.542.196.845 0 1.073-.887 1.943-1.98 1.943s-1.98-.87-1.98-1.943c0-.298.069-.58.19-.832l1.109-2.77c.376-.94.985-.94 1.361 0l1.104 2.757z" transform="translate(3.000000, 5.000000) translate(6.388175, 15.267857)"/>
                </g>
            </g>
        </g>
    </g>
</svg>
