<svg xmlns="http://www.w3.org/2000/svg" width="40" height="40" viewBox="0 0 40 40">
    <g fill="none" fill-rule="evenodd">
        <g fill-rule="nonzero">
            <g>
                <g>
                    <path fill="#4CD7FF" d="M5.848 11.712C2.618 11.712 0 9.09 0 5.856S2.618 0 5.848 0s5.849 2.622 5.849 5.856-2.619 5.856-5.849 5.856z" transform="translate(3.000000, 5.000000) translate(0.359897, 1.261261)"/>
                    <path fill="#02A9F1" d="M5.848 10.63c2.634 0 4.769-2.137 4.769-4.774S8.482 1.08 5.848 1.08c-2.633 0-4.768 2.138-4.768 4.775 0 2.637 2.135 4.775 4.768 4.775zm0 1.082C2.618 11.712 0 9.09 0 5.856S2.618 0 5.848 0s5.849 2.622 5.849 5.856-2.619 5.856-5.849 5.856z" transform="translate(3.000000, 5.000000) translate(0.359897, 1.261261)"/>
                </g>
                <g>
                    <g>
                        <path fill="#FFF" d="M14.384.45c-4.116 0-7.536 3.164-7.878 7.245l-.034.413h-.893c-2.833 0-5.13 2.299-5.13 5.135 0 2.837 2.297 5.135 5.13 5.135h17.724c3.43 0 6.209-2.783 6.209-6.216 0-3.433-2.78-6.216-6.209-6.216-.327 0-.65.025-.97.075l-.368.058-.125-.353C20.732 2.59 17.762.45 14.384.45z" transform="translate(3.000000, 5.000000)"/>
                        <path fill="#303193" d="M14.384 1.351c-3.648 0-6.678 2.804-6.981 6.42l-.104 1.238H5.578c-2.335 0-4.228 1.895-4.228 4.234 0 2.34 1.893 4.234 4.229 4.234h17.724c2.932 0 5.309-2.38 5.309-5.315 0-2.935-2.377-5.315-5.309-5.315-.28 0-.557.022-.83.064l-1.107.174-.374-1.058c-.982-2.78-3.615-4.676-6.608-4.676zm0-1.351c3.638 0 6.733 2.327 7.88 5.576.339-.053.686-.08 1.04-.08 3.677 0 6.657 2.984 6.657 6.666 0 3.682-2.98 6.667-6.658 6.667H5.58c-3.081 0-5.579-2.5-5.579-5.586 0-3.085 2.497-5.585 5.579-5.585h.479C6.418 3.368 10.008 0 14.384 0z" transform="translate(3.000000, 5.000000)"/>
                    </g>
                    <g>
                        <path fill="#FFF" d="M11.018.328C7.86.328 5.237 2.762 4.974 5.9l-.026.318h-.685c-2.174 0-3.935 1.768-3.935 3.95 0 2.181 1.761 3.949 3.935 3.949H17.86c2.63 0 4.763-2.14 4.763-4.781 0-2.64-2.133-4.781-4.763-4.781-.251 0-.5.02-.744.058l-.283.044-.096-.27c-.85-2.413-3.129-4.059-5.72-4.059z" transform="translate(3.000000, 5.000000) translate(11.966581, 4.414414)"/>
                        <path fill="#303193" d="M11.058 1.351c-2.643 0-4.837 2.022-5.056 4.625l-.104 1.238h-1.61c-1.624 0-2.938 1.31-2.938 2.924 0 1.615 1.314 2.925 2.939 2.925h13.626c2.083 0 3.769-1.681 3.769-3.752 0-2.071-1.686-3.753-3.77-3.753-.199 0-.396.016-.59.046l-1.105.173-.375-1.056c-.71-2.002-2.617-3.37-4.786-3.37zm0-1.351c2.797 0 5.176 1.781 6.058 4.269.26-.04.527-.062.799-.062 2.827 0 5.118 2.285 5.118 5.104 0 2.818-2.291 5.103-5.118 5.103H4.289C1.92 14.414 0 12.5 0 10.138c0-2.361 1.92-4.276 4.289-4.276h.368C4.934 2.58 7.694 0 11.058 0z" transform="translate(3.000000, 5.000000) translate(11.966581, 4.414414)"/>
                    </g>
                </g>
                <g fill="#0A95D7">
                    <path d="M4.499 3.153l2.227-1.26c.322-.187.735-.076.921.247.187.323.076.736-.247.923L5.218 4.324 7.4 5.586c.323.187.434.6.247.923-.186.323-.599.434-.921.247l-2.227-1.26v2.567c0 .373-.302.676-.675.676-.373 0-.675-.303-.675-.676V5.495L1.012 6.756c-.323.187-.735.076-.921-.247-.187-.323-.076-.736.246-.923L2.52 4.324.337 3.063c-.322-.187-.433-.6-.246-.923.186-.323.598-.434.921-.248L3.15 3.153V.676c0-.373.302-.676.675-.676.373 0 .675.303.675.676v2.477zM14.216 3.153l2.227-1.26c.323-.187.735-.076.922.247.186.323.075.736-.247.923l-2.183 1.261 2.183 1.262c.322.187.433.6.247.923-.187.323-.6.434-.922.247l-2.227-1.26v2.567c0 .373-.302.676-.675.676-.373 0-.675-.303-.675-.676V5.495L10.73 6.756c-.322.187-.735.076-.921-.247-.187-.323-.076-.736.247-.923l2.182-1.262-2.182-1.261c-.323-.187-.434-.6-.247-.923.186-.323.599-.434.921-.248l2.137 1.261V.676c0-.373.302-.676.675-.676.373 0 .675.303.675.676v2.477zM23.933 3.153l2.227-1.26c.323-.187.735-.076.922.247.186.323.075.736-.247.923l-2.182 1.261 2.182 1.262c.322.187.433.6.247.923-.187.323-.6.434-.922.247l-2.227-1.26v2.567c0 .373-.302.676-.675.676-.372 0-.674-.303-.674-.676V5.495l-2.137 1.261c-.323.187-.736.076-.922-.247-.186-.323-.076-.736.247-.923l2.182-1.262-2.182-1.261c-.323-.187-.433-.6-.247-.923.186-.323.599-.434.922-.248l2.137 1.261V.676c0-.373.302-.676.674-.676.373 0 .675.303.675.676v2.477z" transform="translate(3.000000, 5.000000) translate(3.508997, 21.261261)"/>
                </g>
            </g>
        </g>
    </g>
</svg>
