<svg xmlns="http://www.w3.org/2000/svg" width="40" height="40" viewBox="0 0 40 40">
    <g fill="none" fill-rule="evenodd">
        <g fill-rule="nonzero">
            <g>
                <g>
                    <g transform="translate(4.000000, 5.000000) translate(9.640333, 16.958824) translate(5.588732, 1.823529)">
                        <path fill="#0A95D7" d="M1.717 8.206L3.435 9.209 3.435 11.215 1.717 12.218 0 11.215 0 9.209z"/>
                        <rect width="1.803" height="6.929" x=".861" fill="#02A9F1" rx=".9"/>
                    </g>
                    <g transform="translate(4.000000, 5.000000) translate(9.640333, 16.958824) translate(-0.000000, 0.000000)">
                        <path fill="#0A95D7" d="M1.717 8.206L3.435 9.209 3.435 11.215 1.717 12.218 0 11.215 0 9.209z"/>
                        <rect width="1.803" height="6.929" x=".861" fill="#02A9F1" rx=".9"/>
                    </g>
                    <g transform="translate(4.000000, 5.000000) translate(9.640333, 16.958824) translate(11.177465, 0.000000)">
                        <path fill="#0A95D7" d="M1.717 8.206L3.435 9.209 3.435 11.215 1.717 12.218 0 11.215 0 9.209z"/>
                        <rect width="1.803" height="6.929" x=".861" fill="#02A9F1" rx=".9"/>
                    </g>
                </g>
                <g>
                    <path fill="#4CD7FF" d="M5.86 11.853C2.622 11.853 0 9.2 0 5.926 0 2.653 2.623 0 5.86 0c3.235 0 5.858 2.653 5.858 5.926 0 3.274-2.623 5.927-5.859 5.927z" transform="translate(4.000000, 5.000000)"/>
                    <path fill="#02A9F1" d="M5.86 10.759c2.638 0 4.777-2.164 4.777-4.833 0-2.668-2.14-4.832-4.778-4.832-2.638 0-4.777 2.164-4.777 4.832 0 2.67 2.139 4.833 4.777 4.833zm0 1.094C2.622 11.853 0 9.2 0 5.926 0 2.653 2.623 0 5.86 0c3.235 0 5.858 2.653 5.858 5.926 0 3.274-2.623 5.927-5.859 5.927z" transform="translate(4.000000, 5.000000)"/>
                </g>
                <g>
                    <path fill="#FFF" d="M14.41.456c-4.123 0-7.549 3.202-7.892 7.332l-.034.418h-.895c-2.838 0-5.138 2.326-5.138 5.197 0 2.87 2.3 5.197 5.138 5.197h17.757c3.436 0 6.22-2.817 6.22-6.291 0-3.475-2.784-6.291-6.22-6.291-.327 0-.652.025-.97.076l-.37.058-.125-.357c-1.11-3.174-4.087-5.34-7.47-5.34z" transform="translate(4.000000, 5.000000) translate(1.983099, 1.094118)"/>
                    <path fill="#303193" d="M14.41 1.368c-3.654 0-6.69 2.837-6.994 6.496l-.104 1.254H5.59c-2.34 0-4.237 1.918-4.237 4.285s1.897 4.285 4.237 4.285h17.757c2.938 0 5.319-2.408 5.319-5.38 0-2.97-2.381-5.379-5.319-5.379-.28 0-.558.022-.831.066l-1.11.175-.374-1.07c-.984-2.813-3.621-4.732-6.62-4.732zm0-1.368c3.645 0 6.746 2.355 7.895 5.643.34-.053.687-.081 1.041-.081 3.684 0 6.67 3.02 6.67 6.747 0 3.726-2.986 6.747-6.67 6.747H5.59C2.502 19.056 0 16.526 0 13.403 0 10.28 2.502 7.75 5.589 7.75h.48C6.43 3.41 10.027 0 14.411 0z" transform="translate(4.000000, 5.000000) translate(1.983099, 1.094118)"/>
                </g>
            </g>
        </g>
    </g>
</svg>
