<svg xmlns="http://www.w3.org/2000/svg" width="40" height="40" viewBox="0 0 40 40">
    <g fill="none" fill-rule="evenodd">
        <g fill-rule="nonzero">
            <g>
                <g>
                    <g transform="translate(3.000000, 5.000000) translate(9.802469, 15.914634) translate(5.578406, 1.829268)">
                        <path fill="#0A95D7" d="M1.714 8.232L3.428 9.238 3.428 11.25 1.714 12.256 0 11.25 0 9.238z"/>
                        <rect width="1.799" height="6.951" x=".859" fill="#02A9F1" rx=".9"/>
                    </g>
                    <g transform="translate(3.000000, 5.000000) translate(9.802469, 15.914634) translate(-0.000000, 0.000000)">
                        <path fill="#0A95D7" d="M1.714 8.232L3.428 9.238 3.428 11.25 1.714 12.256 0 11.25 0 9.238z"/>
                        <rect width="1.799" height="6.951" x=".859" fill="#02A9F1" rx=".9"/>
                    </g>
                    <g transform="translate(3.000000, 5.000000) translate(9.802469, 15.914634) translate(11.156812, 0.000000)">
                        <path fill="#0A95D7" d="M1.714 8.232L3.428 9.238 3.428 11.25 1.714 12.256 0 11.25 0 9.238z"/>
                        <rect width="1.799" height="6.951" x=".859" fill="#02A9F1" rx=".9"/>
                    </g>
                </g>
                <g>
                    <path fill="#4CD7FF" d="M5.848 11.89C2.618 11.89 0 9.23 0 5.945 0 2.662 2.618 0 5.848 0s5.849 2.662 5.849 5.945c0 3.284-2.619 5.945-5.849 5.945z" transform="translate(3.000000, 5.000000) translate(0.359897, 1.280488)"/>
                    <path fill="#02A9F1" d="M5.848 10.793c2.634 0 4.769-2.17 4.769-4.848 0-2.677-2.135-4.847-4.769-4.847-2.633 0-4.768 2.17-4.768 4.847 0 2.677 2.135 4.848 4.768 4.848zm0 1.097C2.618 11.89 0 9.23 0 5.945 0 2.662 2.618 0 5.848 0s5.849 2.662 5.849 5.945c0 3.284-2.619 5.945-5.849 5.945z" transform="translate(3.000000, 5.000000) translate(0.359897, 1.280488)"/>
                </g>
                <g>
                    <g>
                        <path fill="#FFF" d="M14.384.457c-4.116 0-7.536 3.212-7.878 7.356l-.034.419h-.893c-2.833 0-5.13 2.334-5.13 5.213 0 2.88 2.297 5.214 5.13 5.214h17.724c3.43 0 6.209-2.826 6.209-6.311 0-3.486-2.78-6.311-6.209-6.311-.327 0-.65.025-.97.076l-.368.059-.125-.358C20.732 2.629 17.762.457 14.384.457z" transform="translate(3.000000, 5.000000)"/>
                        <path fill="#303193" d="M14.384 1.372c-3.648 0-6.678 2.847-6.981 6.517l-.104 1.257H5.578c-2.335 0-4.228 1.925-4.228 4.3 0 2.374 1.893 4.298 4.229 4.298h17.724c2.932 0 5.309-2.416 5.309-5.396S26.235 6.95 23.303 6.95c-.28 0-.557.022-.83.066l-1.107.176-.374-1.074c-.982-2.822-3.615-4.747-6.608-4.747zm0-1.372c3.638 0 6.733 2.362 7.88 5.661.339-.054.686-.082 1.04-.082 3.677 0 6.657 3.03 6.657 6.769 0 3.738-2.98 6.768-6.658 6.768H5.58C2.498 19.116 0 16.578 0 13.446c0-3.133 2.497-5.672 5.579-5.672h.479C6.418 3.42 10.008 0 14.384 0z" transform="translate(3.000000, 5.000000)"/>
                    </g>
                    <g>
                        <path fill="#FFF" d="M11.018.333c-3.158 0-5.781 2.47-6.044 5.657l-.026.323h-.685c-2.174 0-3.935 1.795-3.935 4.01 0 2.214 1.761 4.01 3.935 4.01H17.86c2.63 0 4.763-2.174 4.763-4.855 0-2.68-2.133-4.854-4.763-4.854-.251 0-.5.02-.744.06l-.283.044-.096-.275c-.85-2.45-3.129-4.12-5.72-4.12z" transform="translate(3.000000, 5.000000) translate(11.966581, 4.481707)"/>
                        <path fill="#303193" d="M11.058 1.372c-2.643 0-4.837 2.052-5.056 4.695l-.104 1.257h-1.61c-1.624 0-2.938 1.33-2.938 2.969 0 1.639 1.314 2.97 2.939 2.97h13.626c2.083 0 3.769-1.708 3.769-3.81 0-2.103-1.686-3.81-3.77-3.81-.199 0-.396.016-.59.046l-1.105.176-.375-1.072c-.71-2.033-2.617-3.421-4.786-3.421zm0-1.372c2.797 0 5.176 1.809 6.058 4.334.26-.041.527-.063.799-.063 2.827 0 5.118 2.32 5.118 5.182 0 2.861-2.291 5.181-5.118 5.181H4.289C1.92 14.634 0 12.691 0 10.293s1.92-4.341 4.289-4.341h.368C4.934 2.618 7.694 0 11.058 0z" transform="translate(3.000000, 5.000000) translate(11.966581, 4.481707)"/>
                    </g>
                </g>
            </g>
        </g>
    </g>
</svg>
