<svg xmlns="http://www.w3.org/2000/svg" width="40" height="40" viewBox="0 0 40 40">
    <g fill="none" fill-rule="evenodd">
        <g fill-rule="nonzero">
            <g>
                <g>
                    <path fill="#4CD7FF" d="M5.848 11.677C2.618 11.677 0 9.063 0 5.838 0 2.614 2.618 0 5.848 0s5.849 2.614 5.849 5.838c0 3.225-2.619 5.839-5.849 5.839z" transform="translate(3.000000, 5.000000) translate(0.359897, 1.257485)"/>
                    <path fill="#02A9F1" d="M5.848 10.599c2.634 0 4.769-2.132 4.769-4.76 0-2.63-2.135-4.761-4.769-4.761-2.633 0-4.768 2.131-4.768 4.76 0 2.63 2.135 4.76 4.768 4.76zm0 1.078C2.618 11.677 0 9.063 0 5.838 0 2.614 2.618 0 5.848 0s5.849 2.614 5.849 5.838c0 3.225-2.619 5.839-5.849 5.839z" transform="translate(3.000000, 5.000000) translate(0.359897, 1.257485)"/>
                </g>
                <g>
                    <g>
                        <path fill="#FFF" d="M14.384.45c-4.116 0-7.536 3.153-7.878 7.222l-.034.412h-.893c-2.833 0-5.13 2.292-5.13 5.12 0 2.828 2.297 5.12 5.13 5.12h17.724c3.43 0 6.209-2.775 6.209-6.198 0-3.423-2.78-6.198-6.209-6.198-.327 0-.65.025-.97.075l-.368.058-.125-.352C20.732 2.582 17.762.45 14.384.45z" transform="translate(3.000000, 5.000000)"/>
                        <path fill="#303193" d="M22.057 5.033l-1.238.535c-1.101-2.541-3.613-4.22-6.435-4.22-3.648 0-6.678 2.795-6.981 6.4l-.104 1.234h-1.72c-2.336 0-4.23 1.89-4.23 4.222 0 2.331 1.894 4.221 4.23 4.221h10.45v1.347H5.579C2.498 18.772 0 16.28 0 13.204c0-3.076 2.497-5.57 5.579-5.57h.479C6.418 3.36 10.008 0 14.384 0c3.438 0 6.39 2.072 7.673 5.033z" transform="translate(3.000000, 5.000000)"/>
                    </g>
                    <g>
                        <path fill="#FFF" d="M11.25.629c-3.084 0-5.646 2.425-5.903 5.553l-.026.317h-.669C2.53 6.499.81 8.26.81 10.435s1.656 3.936 3.779 3.936h13.316c2.569 0 4.679-2.133 4.679-4.765 0-2.631-2.083-4.765-4.652-4.765-.245 0-.487.02-.726.058l-.277.044-.093-.27C16.006 2.269 13.78.629 11.25.629z" transform="translate(3.000000, 5.000000) translate(11.966581, 4.401198)"/>
                        <path fill="#303193" d="M11.058 0c2.797 0 5.176 1.776 6.058 4.256.26-.04.527-.062.799-.062 2.827 0 5.118 2.279 5.118 5.089 0 2.81-2.291 5.088-5.118 5.088H16.87c-.373 0-.675-.301-.675-.673 0-.372.302-.674.675-.674h1.045c2.083 0 3.769-1.676 3.769-3.741 0-2.065-1.686-3.741-3.77-3.741-.199 0-.396.015-.59.045l-1.105.173-.375-1.053c-.71-1.996-2.617-3.36-4.786-3.36-2.643 0-4.837 2.016-5.056 4.611l-.104 1.234h-1.61c-1.624 0-2.938 1.307-2.938 2.916 0 1.61 1.314 2.916 2.939 2.916h.396v.001l.039-.001c.372 0 .674.302.674.674 0 .372-.302.673-.674.673h-.435C1.92 14.371 0 12.463 0 10.108s1.92-4.263 4.289-4.263h.368C4.934 2.57 7.694 0 11.058 0z" transform="translate(3.000000, 5.000000) translate(11.966581, 4.401198)"/>
                    </g>
                </g>
                <g>
                    <path fill="#FFBD00" d="M2.609 0L0 9.251 4.499 9.251 1.979 20.479 10.797 5.838 6.028 5.838 8.638 0z" transform="translate(3.000000, 5.000000) translate(18.174807, 9.520958)"/>
                    <path fill="#FFA000" d="M7.25.898H3.29L1.189 8.353h4.434l-1.55 6.908 5.134-8.524H4.642L7.25.898zM4.5 9.251H0L2.61 0h6.028l-2.61 5.838h4.769L1.979 20.48 4.5 9.251z" transform="translate(3.000000, 5.000000) translate(18.174807, 9.520958)"/>
                </g>
            </g>
        </g>
    </g>
</svg>
