<svg xmlns="http://www.w3.org/2000/svg" width="40" height="40" viewBox="0 0 40 40">
    <g fill="none" fill-rule="evenodd">
        <g fill-rule="nonzero">
            <g>
                <g>
                    <path fill="#FFBD00" d="M9.678 13.88c-2.348 0-4.25-1.896-4.25-4.236s1.902-4.236 4.25-4.236 4.252 1.897 4.252 4.236c0 2.34-1.904 4.237-4.252 4.237z" transform="translate(2.000000, 2.000000)"/>
                    <path fill="#FFA000" d="M9.678 12.8c1.749 0 3.166-1.413 3.166-3.156 0-1.742-1.417-3.154-3.166-3.154-1.748 0-3.165 1.412-3.165 3.154 0 1.743 1.417 3.155 3.165 3.155zm0 1.08c-2.348 0-4.25-1.896-4.25-4.236s1.902-4.236 4.25-4.236 4.252 1.897 4.252 4.236c0 2.34-1.904 4.237-4.252 4.237z" transform="translate(2.000000, 2.000000)"/>
                    <g fill="#FFA000" transform="translate(2.000000, 2.000000) translate(0.000000, 8.923345)">
                        <rect width="4.07" height="1.442" rx=".72"/>
                        <rect width="4.07" height="1.442" x="15.286" rx=".72"/>
                    </g>
                    <g fill="#FFA000" transform="translate(2.000000, 2.000000) translate(9.678392, 9.644423) rotate(-45.000000) translate(-9.678392, -9.644423) translate(-0.000000, 8.923345)">
                        <rect width="4.07" height="1.442" rx=".72"/>
                        <rect width="4.07" height="1.442" x="15.286" rx=".72"/>
                    </g>
                    <g fill="#FFA000" transform="translate(2.000000, 2.000000) translate(9.678392, 9.644423) rotate(45.000000) translate(-9.678392, -9.644423) translate(-0.000000, 8.923345)">
                        <rect width="4.07" height="1.442" rx=".72"/>
                        <rect width="4.07" height="1.442" x="15.286" rx=".72"/>
                    </g>
                    <g fill="#FFA000" transform="translate(2.000000, 2.000000) translate(8.954774, 0.000000)">
                        <rect width="1.447" height="4.056" rx=".72"/>
                        <rect width="1.447" height="4.056" y="15.323" rx=".72"/>
                    </g>
                </g>
                <g>
                    <path fill="#FFF" d="M14.46.45c-4.138 0-7.575 3.166-7.92 7.25l-.034.412h-.898c-2.848 0-5.156 2.3-5.156 5.138s2.308 5.137 5.156 5.137h17.82c3.446 0 6.24-2.784 6.24-6.219 0-3.435-2.794-6.22-6.24-6.22-.33 0-.655.026-.975.076l-.372.058-.125-.353c-1.113-3.138-4.1-5.278-7.495-5.278z" transform="translate(2.000000, 2.000000) translate(5.879397, 4.777144)"/>
                    <path fill="#303193" d="M14.46 1.352c-3.667 0-6.713 2.805-7.018 6.423l-.104 1.238h-1.73c-2.348 0-4.251 1.897-4.251 4.237s1.903 4.236 4.251 4.236h17.819c2.948 0 5.337-2.38 5.337-5.318 0-2.937-2.39-5.318-5.337-5.318-.282 0-.56.022-.834.065l-1.114.174-.376-1.06c-.986-2.78-3.633-4.677-6.642-4.677zm0-1.352c3.658 0 6.769 2.328 7.923 5.579.34-.053.689-.08 1.044-.08 3.697 0 6.694 2.985 6.694 6.67 0 3.683-2.997 6.67-6.694 6.67H5.608C2.511 18.838 0 16.336 0 13.248c0-3.086 2.51-5.588 5.608-5.588h.482C6.452 3.371 10.062 0 14.46 0z" transform="translate(2.000000, 2.000000) translate(5.879397, 4.777144)"/>
                </g>
                <g fill="#0A95D7">
                    <g>
                        <path d="M1.688 8.353c0 .464-.378.84-.844.84-.466 0-.844-.376-.844-.84v-3.14c0-.464.378-.84.844-.84.466 0 .844.376.844.84v3.14zM1.688 1.962c0 .464-.378.841-.844.841-.466 0-.844-.377-.844-.84V.84C0 .376.378 0 .844 0c.466 0 .844.376.844.84v1.122z" transform="translate(2.000000, 2.000000) translate(10.452556, 25.785498) translate(16.547461, 4.607251) scale(-1, 1) rotate(160.000000) translate(-16.547461, -4.607251) translate(15.703608, 0.010376)"/>
                    </g>
                    <g>
                        <path d="M1.688 8.353c0 .464-.378.84-.844.84-.466 0-.844-.376-.844-.84v-3.14c0-.464.378-.84.844-.84.466 0 .844.376.844.84v3.14zM1.688 1.962c0 .464-.378.841-.844.841-.466 0-.844-.377-.844-.84V.84C0 .376.378 0 .844 0c.466 0 .844.376.844.84v1.122z" transform="translate(2.000000, 2.000000) translate(10.452556, 25.785498) translate(11.821882, 4.607251) rotate(20.000000) translate(-11.821882, -4.607251) translate(10.978029, 0.010377)"/>
                    </g>
                    <g>
                        <path d="M1.688 8.353c0 .464-.378.84-.844.84-.466 0-.844-.376-.844-.84v-3.14c0-.464.378-.84.844-.84.466 0 .844.376.844.84v3.14zM1.688 1.962c0 .464-.378.841-.844.841-.466 0-.844-.377-.844-.84V.84C0 .376.378 0 .844 0c.466 0 .844.376.844.84v1.122z" transform="translate(2.000000, 2.000000) translate(10.452556, 25.785498) translate(7.096303, 4.607251) scale(-1, 1) rotate(160.000000) translate(-7.096303, -4.607251) translate(6.252450, 0.010376)"/>
                    </g>
                    <g>
                        <path d="M1.688 8.353c0 .464-.378.84-.844.84-.466 0-.844-.376-.844-.84v-3.14c0-.464.378-.84.844-.84.466 0 .844.376.844.84v3.14zM1.688 1.962c0 .464-.378.841-.844.841-.466 0-.844-.377-.844-.84V.84C0 .376.378 0 .844 0c.466 0 .844.376.844.84v1.122z" transform="translate(2.000000, 2.000000) translate(10.452556, 25.785498) translate(2.370724, 4.607251) rotate(20.000000) translate(-2.370724, -4.607251) translate(1.526871, 0.010377)"/>
                    </g>
                </g>
            </g>
        </g>
    </g>
</svg>
