<svg xmlns="http://www.w3.org/2000/svg" width="40" height="40" viewBox="0 0 40 40">
    <g fill="none" fill-rule="evenodd">
        <g fill-rule="nonzero">
            <g>
                <g>
                    <path fill="#FFBD00" d="M9.567 14.027c-2.32 0-4.202-1.917-4.202-4.281s1.881-4.281 4.202-4.281c2.321 0 4.202 1.917 4.202 4.28 0 2.365-1.881 4.282-4.202 4.282z" transform="translate(1.000000, 4.000000)"/>
                    <path fill="#FFA000" d="M9.567 12.934c1.728 0 3.13-1.428 3.13-3.188 0-1.76-1.402-3.188-3.13-3.188s-3.13 1.427-3.13 3.188c0 1.76 1.402 3.188 3.13 3.188zm0 1.093c-2.32 0-4.202-1.917-4.202-4.281s1.881-4.281 4.202-4.281c2.321 0 4.202 1.917 4.202 4.28 0 2.365-1.881 4.282-4.202 4.282z" transform="translate(1.000000, 4.000000)"/>
                    <g fill="#FFA000" transform="translate(1.000000, 4.000000) translate(0.000000, 9.017207)">
                        <rect width="4.024" height="1.457" rx=".72"/>
                        <rect width="4.024" height="1.457" x="15.111" rx=".72"/>
                    </g>
                    <g fill="#FFA000" transform="translate(1.000000, 4.000000) translate(9.567059, 9.745870) rotate(45.000000) translate(-9.567059, -9.745870) translate(0.000000, 9.017207)">
                        <rect width="4.024" height="1.457" rx=".72"/>
                        <rect width="4.024" height="1.457" x="15.111" rx=".72"/>
                    </g>
                    <g fill="#FFA000" transform="translate(1.000000, 4.000000) translate(8.851765, 0.000000)">
                        <rect width="1.431" height="4.099" rx=".715"/>
                        <rect width="1.431" height="4.099" y="15.484" rx=".715"/>
                    </g>
                </g>
                <g>
                    <g>
                        <path fill="#FFF" d="M14.294.455c-4.09 0-7.488 3.199-7.828 7.325l-.035.417h-.887c-2.816 0-5.097 2.325-5.097 5.192 0 2.868 2.282 5.192 5.097 5.192h17.614c3.407 0 6.17-2.814 6.17-6.285 0-3.47-2.763-6.285-6.17-6.285-.325 0-.647.026-.964.077l-.367.058-.123-.357C20.603 2.62 17.65.455 14.294.455z" transform="translate(1.000000, 4.000000) translate(3.218824, 2.459238)"/>
                        <path fill="#303193" d="M14.294 1.366c-3.625 0-6.636 2.835-6.937 6.49l-.104 1.252H5.544c-2.322 0-4.203 1.917-4.203 4.281 0 2.365 1.881 4.281 4.203 4.281h17.614c2.913 0 5.275-2.406 5.275-5.374 0-2.968-2.362-5.374-5.275-5.374-.279 0-.555.022-.825.065l-1.101.176-.371-1.07c-.976-2.81-3.592-4.727-6.567-4.727zm0-1.366c3.615 0 6.69 2.353 7.831 5.638.337-.054.681-.082 1.033-.082 3.654 0 6.616 3.018 6.616 6.74 0 3.723-2.962 6.74-6.616 6.74H5.544C2.482 19.036 0 16.51 0 13.39c0-3.119 2.481-5.647 5.544-5.647h.476C6.378 3.406 9.946 0 14.294 0z" transform="translate(1.000000, 4.000000) translate(3.218824, 2.459238)"/>
                    </g>
                    <g>
                        <path fill="#FFF" d="M10.95.332c-3.14 0-5.746 2.46-6.007 5.633l-.026.321h-.681c-2.16 0-3.91 1.788-3.91 3.993 0 2.206 1.75 3.993 3.91 3.993h13.513c2.614 0 4.733-2.164 4.733-4.833 0-2.67-2.119-4.834-4.733-4.834-.25 0-.496.02-.739.059l-.282.045-.094-.275c-.845-2.439-3.11-4.102-5.685-4.102z" transform="translate(1.000000, 4.000000) translate(3.218824, 2.459238) translate(11.891765, 4.463062)"/>
                        <path fill="#303193" d="M10.989 1.366c-2.627 0-4.807 2.044-5.025 4.676l-.103 1.251h-1.6c-1.614 0-2.92 1.325-2.92 2.957s1.306 2.957 2.92 2.957h13.542c2.07 0 3.745-1.7 3.745-3.794 0-2.094-1.675-3.793-3.745-3.793-.199 0-.395.015-.587.046l-1.099.174-.372-1.067c-.706-2.024-2.6-3.407-4.756-3.407zm0-1.366c2.78 0 5.143 1.801 6.02 4.316.259-.041.524-.063.794-.063 2.81 0 5.086 2.31 5.086 5.16s-2.277 5.16-5.086 5.16H4.262C1.908 14.573 0 12.638 0 10.25c0-2.388 1.908-4.323 4.262-4.323h.366C4.903 2.607 7.646 0 10.989 0z" transform="translate(1.000000, 4.000000) translate(3.218824, 2.459238) translate(11.891765, 4.463062)"/>
                    </g>
                </g>
                <g fill="#0A95D7">
                    <g>
                        <path d="M1.668 8.44c0 .47-.373.85-.834.85-.46 0-.834-.38-.834-.85V5.269c0-.469.373-.85.834-.85.46 0 .834.381.834.85v3.173zM1.668 1.983c0 .469-.373.85-.834.85-.46 0-.834-.381-.834-.85V.85C0 .38.373 0 .834 0c.46 0 .834.38.834.85v1.133z" transform="translate(1.000000, 4.000000) translate(9.885259, 23.688573) translate(16.357112, 4.655713) scale(-1, 1) rotate(160.000000) translate(-16.357112, -4.655713) translate(15.522965, 0.010486)"/>
                    </g>
                    <g>
                        <path d="M1.668 8.44c0 .47-.373.85-.834.85-.46 0-.834-.38-.834-.85V5.269c0-.469.373-.85.834-.85.46 0 .834.381.834.85v3.173zM1.668 1.983c0 .469-.373.85-.834.85-.46 0-.834-.381-.834-.85V.85C0 .38.373 0 .834 0c.46 0 .834.38.834.85v1.133z" transform="translate(1.000000, 4.000000) translate(9.885259, 23.688573) translate(11.685892, 4.655714) rotate(20.000000) translate(-11.685892, -4.655714) translate(10.851746, 0.010486)"/>
                    </g>
                    <g>
                        <path d="M1.668 8.44c0 .47-.373.85-.834.85-.46 0-.834-.38-.834-.85V5.269c0-.469.373-.85.834-.85.46 0 .834.381.834.85v3.173zM1.668 1.983c0 .469-.373.85-.834.85-.46 0-.834-.381-.834-.85V.85C0 .38.373 0 .834 0c.46 0 .834.38.834.85v1.133z" transform="translate(1.000000, 4.000000) translate(9.885259, 23.688573) translate(7.014673, 4.655713) scale(-1, 1) rotate(160.000000) translate(-7.014673, -4.655713) translate(6.180526, 0.010486)"/>
                    </g>
                    <g>
                        <path d="M1.668 8.44c0 .47-.373.85-.834.85-.46 0-.834-.38-.834-.85V5.269c0-.469.373-.85.834-.85.46 0 .834.381.834.85v3.173zM1.668 1.983c0 .469-.373.85-.834.85-.46 0-.834-.381-.834-.85V.85C0 .38.373 0 .834 0c.46 0 .834.38.834.85v1.133z" transform="translate(1.000000, 4.000000) translate(9.885259, 23.688573) translate(2.343453, 4.655714) rotate(20.000000) translate(-2.343453, -4.655714) translate(1.509307, 0.010486)"/>
                    </g>
                </g>
            </g>
        </g>
    </g>
</svg>
