<svg xmlns="http://www.w3.org/2000/svg" width="40" height="40" viewBox="0 0 40 40">
    <g fill="none" fill-rule="evenodd">
        <g fill-rule="nonzero">
            <g>
                <g>
                    <path fill="#FFBD00" d="M9.678 13.815c-2.348 0-4.25-1.887-4.25-4.216s1.902-4.216 4.25-4.216S13.93 7.27 13.93 9.599s-1.904 4.216-4.252 4.216z" transform="translate(2.000000, 2.000000)"/>
                    <path fill="#FFA000" d="M9.678 12.739c1.749 0 3.166-1.406 3.166-3.14 0-1.734-1.417-3.14-3.166-3.14-1.748 0-3.165 1.406-3.165 3.14 0 1.734 1.417 3.14 3.165 3.14zm0 1.076c-2.348 0-4.25-1.887-4.25-4.216s1.902-4.216 4.25-4.216S13.93 7.27 13.93 9.599s-1.904 4.216-4.252 4.216z" transform="translate(2.000000, 2.000000)"/>
                    <g fill="#FFA000" transform="translate(2.000000, 2.000000) translate(0.000000, 8.881266)">
                        <rect width="4.07" height="1.435" rx=".718"/>
                        <rect width="4.07" height="1.435" x="15.286" rx=".718"/>
                    </g>
                    <g fill="#FFA000" transform="translate(2.000000, 2.000000) translate(9.678392, 9.598945) rotate(-45.000000) translate(-9.678392, -9.598945) translate(0.000000, 8.881266)">
                        <rect width="4.07" height="1.435" rx=".718"/>
                        <rect width="4.07" height="1.435" x="15.286" rx=".718"/>
                    </g>
                    <g fill="#FFA000" transform="translate(2.000000, 2.000000) translate(9.678392, 9.598945) rotate(45.000000) translate(-9.678392, -9.598945) translate(0.000000, 8.881266)">
                        <rect width="4.07" height="1.435" rx=".718"/>
                        <rect width="4.07" height="1.435" x="15.286" rx=".718"/>
                    </g>
                    <g fill="#FFA000" transform="translate(2.000000, 2.000000) translate(8.954774, 0.000000)">
                        <rect width="1.447" height="4.037" rx=".72"/>
                        <rect width="1.447" height="4.037" y="15.251" rx=".72"/>
                    </g>
                </g>
                <g>
                    <path fill="#FFF" d="M14.46.449c-4.138 0-7.575 3.15-7.92 7.214l-.034.41h-.898c-2.848 0-5.156 2.29-5.156 5.114 0 2.825 2.308 5.114 5.156 5.114h17.82c3.446 0 6.24-2.772 6.24-6.19 0-3.419-2.794-6.19-6.24-6.19-.33 0-.655.025-.975.075l-.372.057-.125-.35c-1.113-3.124-4.1-5.254-7.495-5.254z" transform="translate(2.000000, 2.000000) translate(5.879397, 4.754617)"/>
                    <path fill="#303193" d="M14.46 1.346c-3.667 0-6.713 2.792-7.018 6.392L7.338 8.97h-1.73c-2.348 0-4.251 1.887-4.251 4.216 0 2.33 1.903 4.217 4.251 4.217h17.819c2.948 0 5.337-2.37 5.337-5.293s-2.39-5.293-5.337-5.293c-.282 0-.56.022-.834.064l-1.114.173-.376-1.054c-.986-2.767-3.633-4.655-6.642-4.655zm0-1.346c3.658 0 6.769 2.317 7.923 5.553.34-.053.689-.08 1.044-.08 3.697 0 6.694 2.971 6.694 6.638 0 3.666-2.997 6.638-6.694 6.638H5.608C2.511 18.75 0 16.26 0 13.187c0-3.071 2.51-5.562 5.608-5.562h.482C6.452 3.355 10.062 0 14.46 0z" transform="translate(2.000000, 2.000000) translate(5.879397, 4.754617)"/>
                </g>
                <g fill="#0A95D7">
                    <path d="M5.065 5.563c0 1.387-1.134 2.51-2.532 2.51C1.133 8.074 0 6.95 0 5.564c0-.384.087-.748.243-1.073L1.66.91c.481-1.213 1.26-1.214 1.742 0l1.412 3.563c.16.33.25.7.25 1.09zM12.935 5.563c0 1.387-1.134 2.51-2.533 2.51S7.869 6.95 7.869 5.564c0-.384.087-.748.243-1.073L9.53.91c.481-1.213 1.26-1.214 1.742 0l1.412 3.563c.16.33.25.7.25 1.09z" transform="translate(2.000000, 2.000000) translate(14.472362, 25.926121)"/>
                </g>
            </g>
        </g>
    </g>
</svg>
