<svg xmlns="http://www.w3.org/2000/svg" width="40" height="40" viewBox="0 0 40 40">
    <g fill="none" fill-rule="evenodd">
        <g fill-rule="nonzero">
            <g>
                <g>
                    <path fill="#FFBD00" d="M9.567 13.96c-2.32 0-4.202-1.907-4.202-4.26 0-2.353 1.881-4.26 4.202-4.26 2.321 0 4.202 1.907 4.202 4.26 0 2.353-1.881 4.26-4.202 4.26z" transform="translate(1.000000, 4.000000)"/>
                    <path fill="#FFA000" d="M9.567 12.873c1.728 0 3.13-1.421 3.13-3.173 0-1.753-1.402-3.173-3.13-3.173s-3.13 1.42-3.13 3.173c0 1.752 1.402 3.173 3.13 3.173zm0 1.087c-2.32 0-4.202-1.907-4.202-4.26 0-2.353 1.881-4.26 4.202-4.26 2.321 0 4.202 1.907 4.202 4.26 0 2.353-1.881 4.26-4.202 4.26z" transform="translate(1.000000, 4.000000)"/>
                    <g fill="#FFA000" transform="translate(1.000000, 4.000000) translate(0.000000, 8.974504)">
                        <rect width="4.024" height="1.45" rx=".72"/>
                        <rect width="4.024" height="1.45" x="15.111" rx=".72"/>
                    </g>
                    <g fill="#FFA000" transform="translate(1.000000, 4.000000) translate(9.567059, 9.699717) rotate(45.000000) translate(-9.567059, -9.699717) translate(0.000000, 8.974504)">
                        <rect width="4.024" height="1.45" rx=".72"/>
                        <rect width="4.024" height="1.45" x="15.111" rx=".72"/>
                    </g>
                    <g fill="#FFA000" transform="translate(1.000000, 4.000000) translate(8.851765, 0.000000)">
                        <rect width="1.431" height="4.079" rx=".715"/>
                        <rect width="1.431" height="4.079" y="15.411" rx=".715"/>
                    </g>
                </g>
                <g>
                    <g>
                        <path fill="#FFF" d="M14.294.453c-4.09 0-7.488 3.184-7.828 7.29l-.035.416h-.887c-2.816 0-5.097 2.313-5.097 5.167 0 2.854 2.282 5.167 5.097 5.167h17.614c3.407 0 6.17-2.8 6.17-6.255s-2.763-6.255-6.17-6.255c-.325 0-.647.025-.964.076l-.367.058-.123-.355C20.603 2.606 17.65.453 14.294.453z" transform="translate(1.000000, 4.000000) translate(3.218824, 2.447592)"/>
                        <path fill="#303193" d="M14.294 1.36c-3.625 0-6.636 2.821-6.937 6.46l-.104 1.245H5.544c-2.322 0-4.203 1.907-4.203 4.26 0 2.354 1.881 4.261 4.203 4.261h17.614c2.913 0 5.275-2.394 5.275-5.348 0-2.954-2.362-5.348-5.275-5.348-.279 0-.555.021-.825.064l-1.101.175-.371-1.065c-.976-2.796-3.592-4.704-6.567-4.704zm0-1.36c3.615 0 6.69 2.341 7.831 5.611.337-.054.681-.081 1.033-.081 3.654 0 6.616 3.003 6.616 6.708s-2.962 6.708-6.616 6.708H5.544C2.482 18.946 0 16.431 0 13.326c0-3.104 2.481-5.62 5.544-5.62h.476C6.378 3.39 9.946 0 14.294 0z" transform="translate(1.000000, 4.000000) translate(3.218824, 2.447592)"/>
                    </g>
                    <g>
                        <path fill="#FFF" d="M10.95.33C7.81.33 5.203 2.78 4.942 5.937l-.026.32h-.681c-2.16 0-3.91 1.779-3.91 3.974 0 2.195 1.75 3.974 3.91 3.974h13.513c2.614 0 4.733-2.154 4.733-4.81 0-2.658-2.119-4.812-4.733-4.812-.25 0-.496.02-.739.059l-.282.044-.094-.273C15.789 1.986 13.524.33 10.949.33z" transform="translate(1.000000, 4.000000) translate(3.218824, 2.447592) translate(11.891765, 4.441926)"/>
                        <path fill="#303193" d="M10.989 1.36c-2.627 0-4.807 2.034-5.025 4.653L5.861 7.26h-1.6c-1.614 0-2.92 1.318-2.92 2.943 0 1.624 1.306 2.942 2.92 2.942h13.542c2.07 0 3.745-1.691 3.745-3.775 0-2.084-1.675-3.776-3.745-3.776-.199 0-.395.016-.587.046l-1.099.174-.372-1.062c-.706-2.015-2.6-3.391-4.756-3.391zm0-1.36c2.78 0 5.143 1.793 6.02 4.295.259-.04.524-.062.794-.062 2.81 0 5.086 2.3 5.086 5.136 0 2.836-2.277 5.135-5.086 5.135H4.262C1.908 14.504 0 12.578 0 10.202c0-2.377 1.908-4.303 4.262-4.303h.366C4.903 2.595 7.646 0 10.989 0z" transform="translate(1.000000, 4.000000) translate(3.218824, 2.447592) translate(11.891765, 4.441926)"/>
                    </g>
                </g>
                <g fill="#0A95D7">
                    <path d="M5.007 5.622c0 1.4-1.12 2.537-2.503 2.537S0 7.023 0 5.622c0-.389.086-.756.24-1.085L1.642.92c.475-1.226 1.246-1.227 1.722 0l1.395 3.6c.159.333.248.707.248 1.102z" transform="translate(1.000000, 4.000000) translate(17.703529, 23.841360)"/>
                </g>
            </g>
        </g>
    </g>
</svg>
