<svg xmlns="http://www.w3.org/2000/svg" width="40" height="40" viewBox="0 0 40 40">
    <g fill="none" fill-rule="evenodd">
        <g fill-rule="nonzero">
            <g>
                <g>
                    <path fill="#FFBD00" d="M9.678 13.889c-2.348 0-4.25-1.898-4.25-4.24 0-2.34 1.902-4.238 4.25-4.238S13.93 7.31 13.93 9.65c0 2.34-1.904 4.239-4.252 4.239z" transform="translate(2.000000, 2.000000)"/>
                    <path fill="#FFA000" d="M9.678 12.806c1.749 0 3.166-1.413 3.166-3.156s-1.417-3.157-3.166-3.157c-1.748 0-3.165 1.414-3.165 3.157s1.417 3.156 3.165 3.156zm0 1.083c-2.348 0-4.25-1.898-4.25-4.24 0-2.34 1.902-4.238 4.25-4.238S13.93 7.31 13.93 9.65c0 2.34-1.904 4.239-4.252 4.239z" transform="translate(2.000000, 2.000000)"/>
                    <g fill="#FFA000" transform="translate(2.000000, 2.000000) translate(0.000000, 8.928382)">
                        <rect width="4.07" height="1.443" rx=".72"/>
                        <rect width="4.07" height="1.443" x="15.286" rx=".72"/>
                    </g>
                    <g fill="#FFA000" transform="translate(2.000000, 2.000000) translate(9.678392, 9.649867) rotate(-45.000000) translate(-9.678392, -9.649867) translate(0.000000, 8.928382)">
                        <rect width="4.07" height="1.443" rx=".72"/>
                        <rect width="4.07" height="1.443" x="15.286" rx=".72"/>
                    </g>
                    <g fill="#FFA000" transform="translate(2.000000, 2.000000) translate(9.678392, 9.649867) rotate(45.000000) translate(-9.678392, -9.649867) translate(-0.000000, 8.928382)">
                        <rect width="4.07" height="1.443" rx=".72"/>
                        <rect width="4.07" height="1.443" x="15.286" rx=".72"/>
                    </g>
                    <g fill="#FFA000" transform="translate(2.000000, 2.000000) translate(8.954774, 0.000000)">
                        <rect width="1.447" height="4.058" rx=".72"/>
                        <rect width="1.447" height="4.058" y="15.332" rx=".72"/>
                    </g>
                </g>
                <g>
                    <path fill="#FFF" d="M14.46.45c-4.138 0-7.575 3.168-7.92 7.254l-.034.413h-.898c-2.848 0-5.156 2.301-5.156 5.14 0 2.84 2.308 5.14 5.156 5.14h17.82c3.446 0 6.24-2.785 6.24-6.222 0-3.437-2.794-6.223-6.24-6.223-.33 0-.655.026-.975.076l-.372.058-.125-.354c-1.113-3.14-4.1-5.281-7.495-5.281z" transform="translate(2.000000, 2.000000) translate(5.879397, 4.779841)"/>
                    <path fill="#303193" d="M14.46 1.353c-3.667 0-6.713 2.807-7.018 6.426l-.104 1.24h-1.73c-2.348 0-4.251 1.897-4.251 4.238 0 2.342 1.903 4.239 4.251 4.239h17.819c2.948 0 5.337-2.382 5.337-5.32 0-2.94-2.39-5.322-5.337-5.322-.282 0-.56.022-.834.065l-1.114.174-.376-1.06c-.986-2.782-3.633-4.68-6.642-4.68zm0-1.353c3.658 0 6.769 2.33 7.923 5.582.34-.053.689-.08 1.044-.08 3.697 0 6.694 2.987 6.694 6.673s-2.997 6.674-6.694 6.674H5.608C2.511 18.849 0 16.346 0 13.257c0-3.088 2.51-5.591 5.608-5.591h.482C6.452 3.372 10.062 0 14.46 0z" transform="translate(2.000000, 2.000000) translate(5.879397, 4.779841)"/>
                </g>
                <g fill="#0A95D7">
                    <path d="M10.312 5.593c0 1.394-1.134 2.524-2.533 2.524s-2.533-1.13-2.533-2.524c0-.386.087-.752.243-1.08L6.907.915c.481-1.22 1.26-1.22 1.742 0l1.412 3.581c.16.332.25.704.25 1.097zM3.437 3.729c0 .929-.77 1.682-1.718 1.682C.769 5.411 0 4.658 0 3.73c0-.258.06-.502.165-.72L1.127.61c.327-.813.855-.814 1.182 0l.958 2.388c.11.22.17.469.17.73zM24.663 1.864l1.206-.717c.23-.134.526-.054.66.178.133.232.053.53-.177.663l-1.206.718 1.206.717c.23.134.31.43.176.663-.133.232-.428.312-.66.178l-1.205-.717v1.388c0 .263-.216.476-.482.476-.267 0-.483-.213-.483-.476V3.547l-1.265.717c-.231.134-.526.054-.66-.178-.133-.232-.054-.529.177-.663l1.206-.717-1.206-.718c-.23-.134-.31-.43-.177-.663.134-.232.429-.312.66-.178l1.265.717V.476c0-.263.216-.476.483-.476.266 0 .482.213.482.476v1.388zM17.005 2.796l1.808-1.075c.347-.201.79-.082.99.267.2.348.08.793-.266.994L17.73 4.058l1.808 1.076c.347.202.465.647.265.995s-.642.468-.989.267L17.005 5.32v2.082c0 .394-.324.714-.724.714-.4 0-.723-.32-.723-.714V5.321l-1.899 1.075c-.346.2-.79.081-.989-.267-.2-.348-.081-.793.265-.995l1.809-1.076-1.809-1.076c-.346-.2-.465-.646-.265-.994.2-.349.643-.468.989-.267l1.899 1.075V.714c0-.395.324-.714.723-.714.4 0 .724.32.724.714v2.082z" transform="translate(2.000000, 2.000000) translate(7.507538, 25.883289)"/>
                </g>
            </g>
        </g>
    </g>
</svg>
