<svg xmlns="http://www.w3.org/2000/svg" width="40" height="40" viewBox="0 0 40 40">
    <g fill="none" fill-rule="evenodd">
        <g fill-rule="nonzero">
            <g>
                <g>
                    <path fill="#FFBD00" d="M9.678 13.856c-2.348 0-4.25-1.893-4.25-4.229 0-2.335 1.902-4.229 4.25-4.229s4.252 1.894 4.252 4.23c0 2.335-1.904 4.228-4.252 4.228z" transform="translate(2.000000, 2.000000)"/>
                    <path fill="#FFA000" d="M9.678 12.776c1.749 0 3.166-1.41 3.166-3.149s-1.417-3.149-3.166-3.149c-1.748 0-3.165 1.41-3.165 3.15 0 1.738 1.417 3.148 3.165 3.148zm0 1.08c-2.348 0-4.25-1.893-4.25-4.229 0-2.335 1.902-4.229 4.25-4.229s4.252 1.894 4.252 4.23c0 2.335-1.904 4.228-4.252 4.228z" transform="translate(2.000000, 2.000000)"/>
                    <g fill="#FFA000" transform="translate(2.000000, 2.000000) translate(0.000000, 8.907455)">
                        <rect width="4.07" height="1.44" rx=".72"/>
                        <rect width="4.07" height="1.44" x="15.286" rx=".72"/>
                    </g>
                    <g fill="#FFA000" transform="translate(2.000000, 2.000000) translate(9.678392, 9.627249) rotate(-45.000000) translate(-9.678392, -9.627249) translate(-0.000000, 8.907455)">
                        <rect width="4.07" height="1.44" rx=".72"/>
                        <rect width="4.07" height="1.44" x="15.286" rx=".72"/>
                    </g>
                    <g fill="#FFA000" transform="translate(2.000000, 2.000000) translate(9.678392, 9.627249) rotate(45.000000) translate(-9.678392, -9.627249) translate(-0.000000, 8.907455)">
                        <rect width="4.07" height="1.44" rx=".72"/>
                        <rect width="4.07" height="1.44" x="15.286" rx=".72"/>
                    </g>
                    <g fill="#FFA000" transform="translate(2.000000, 2.000000) translate(8.954774, 0.000000)">
                        <rect width="1.447" height="4.049" rx=".72"/>
                        <rect width="1.447" height="4.049" y="15.296" rx=".72"/>
                    </g>
                </g>
                <g>
                    <path fill="#FFF" d="M14.46 0c3.658 0 6.769 2.324 7.923 5.569.34-.053.689-.08 1.044-.08 3.697 0 6.694 2.98 6.694 6.658 0 3.677-2.997 6.658-6.694 6.658H5.608C2.511 18.805 0 16.308 0 13.226c0-3.08 2.51-5.578 5.608-5.578h.482C6.452 3.364 10.062 0 14.46 0z" transform="translate(2.000000, 2.000000) translate(5.879397, 4.768638)"/>
                    <path fill="#303193" d="M28.764 12.147c0-2.932-2.39-5.309-5.337-5.309-.282 0-.56.022-.834.064l-1.114.174-.376-1.057c-.986-2.776-3.633-4.67-6.642-4.67-3.668 0-6.714 2.8-7.019 6.412l-.104 1.236h-1.73c-2.348 0-4.251 1.893-4.251 4.23 0 2.335 1.903 4.228 4.251 4.228h.633c.354.025.633.317.633.675 0 .357-.28.65-.633.673l-.633.002C2.511 18.805 0 16.308 0 13.226c0-3.08 2.51-5.578 5.608-5.578h.482C6.452 3.364 10.062 0 14.46 0c3.658 0 6.769 2.324 7.923 5.569.34-.053.689-.08 1.044-.08 3.697 0 6.694 2.98 6.694 6.658 0 3.586-2.852 6.51-6.423 6.652-.42-.003-.723-.305-.723-.678 0-.373.304-.675.678-.675 2.878-.142 5.11-2.468 5.11-5.3z" transform="translate(2.000000, 2.000000) translate(5.879397, 4.768638)"/>
                </g>
                <g fill="#0A95D7">
                    <path d="M19.294 8.951l-.685.393c-.252.145-.574.059-.72-.192-.145-.25-.058-.57.194-.715l.673-.387-.673-.386c-.252-.145-.339-.465-.193-.716.145-.25.467-.336.719-.191l.685.393v-.778c0-.29.235-.524.526-.524.291 0 .527.235.527.524v.765l.662-.38c.252-.145.574-.06.72.191.145.251.058.571-.193.716l-.674.386.674.387c.251.144.338.465.192.715-.145.25-.467.337-.719.192l-.662-.38v.77c0 .289-.236.523-.527.523-.29 0-.526-.234-.526-.524v-.782zM13.24 4.553l-1.548.895c-.296.172-.674.07-.845-.227-.171-.297-.07-.676.226-.847l1.547-.858-1.547-.91c-.296-.172-.397-.551-.226-.848.17-.297.55-.399.845-.227l1.547.895V.62c0-.342.277-.62.619-.62.342 0 .619.278.619.62v1.784l1.51-.873c.295-.172.674-.07.845.227.17.297.069.676-.227.847l-1.51.91 1.51.859c.296.171.397.55.227.847-.171.297-.55.399-.846.227l-1.51-.873v1.733c0 .342-.276.62-.618.62-.342 0-.619-.278-.619-.62V4.553zM13.292 12.777l-1.41.814c-.27.155-.615.063-.771-.207-.156-.27-.063-.615.206-.77l1.41-.78-1.41-.828c-.27-.156-.362-.5-.206-.77s.5-.363.77-.207l1.411.814V9.202c0-.312.253-.564.564-.564.312 0 .565.252.565.564v1.621l1.376-.794c.27-.156.615-.063.77.207.156.27.064.614-.206.77l-1.376.828 1.376.78c.27.155.362.5.207.77-.156.27-.501.362-.771.207l-1.376-.794v1.575c0 .311-.253.564-.565.564-.311 0-.564-.253-.564-.564v-1.595zM2.751 8.35c.092.191.143.406.143.632 0 .804-.647 1.455-1.447 1.455S0 9.786 0 8.982c0-.222.05-.433.139-.622l.81-2.074c.275-.703.72-.704.995 0l.807 2.064zM8.55 3.987c.143.294.224.624.224.973 0 1.236-1.013 2.238-2.261 2.238-1.25 0-2.262-1.002-2.262-2.238 0-.343.078-.667.217-.958L5.734.812C6.164-.27 6.86-.271 7.29.812l1.26 3.175zM8.305 12.127c.127.257.198.545.198.85 0 1.082-.891 1.959-1.99 1.959-1.1 0-1.99-.877-1.99-1.959 0-.3.068-.583.19-.837l1.115-2.792c.378-.947.99-.948 1.368 0l1.11 2.779z" transform="translate(2.000000, 2.000000) translate(10.130653, 20.064267)"/>
                </g>
            </g>
        </g>
    </g>
</svg>
