<svg xmlns="http://www.w3.org/2000/svg" width="40" height="40" viewBox="0 0 40 40">
    <g fill="none" fill-rule="evenodd">
        <g fill-rule="nonzero">
            <g>
                <g>
                    <path fill="#FFBD00" d="M9.567 14.04c-2.32 0-4.202-1.919-4.202-4.285S7.246 5.47 9.567 5.47c2.321 0 4.202 1.919 4.202 4.285s-1.881 4.285-4.202 4.285z" transform="translate(1.000000, 4.000000)"/>
                    <path fill="#FFA000" d="M9.567 12.946c1.728 0 3.13-1.429 3.13-3.191 0-1.762-1.402-3.19-3.13-3.19s-3.13 1.428-3.13 3.19 1.402 3.19 3.13 3.19zm0 1.094c-2.32 0-4.202-1.919-4.202-4.285S7.246 5.47 9.567 5.47c2.321 0 4.202 1.919 4.202 4.285s-1.881 4.285-4.202 4.285z" transform="translate(1.000000, 4.000000)"/>
                    <g fill="#FFA000" transform="translate(1.000000, 4.000000) translate(0.000000, 9.025641)">
                        <rect width="4.024" height="1.459" rx=".72"/>
                        <rect width="4.024" height="1.459" x="15.111" rx=".72"/>
                    </g>
                    <g fill="#FFA000" transform="translate(1.000000, 4.000000) translate(9.567059, 9.754986) rotate(45.000000) translate(-9.567059, -9.754986) translate(0.000000, 9.025641)">
                        <rect width="4.024" height="1.459" rx=".72"/>
                        <rect width="4.024" height="1.459" x="15.111" rx=".72"/>
                    </g>
                    <g fill="#FFA000" transform="translate(1.000000, 4.000000) translate(8.851765, 0.000000)">
                        <rect width="1.431" height="4.103" rx=".715"/>
                        <rect width="1.431" height="4.103" y="15.499" rx=".715"/>
                    </g>
                </g>
                <g>
                    <g>
                        <path fill="#FFF" d="M14.294.456c-4.09 0-7.488 3.201-7.828 7.331l-.035.418h-.887c-2.816 0-5.097 2.326-5.097 5.197 0 2.87 2.282 5.196 5.097 5.196h17.614c3.407 0 6.17-2.816 6.17-6.29 0-3.475-2.763-6.29-6.17-6.29-.325 0-.647.025-.964.075l-.367.059-.123-.357C20.603 2.62 17.65.455 14.294.455z" transform="translate(1.000000, 4.000000) translate(3.218824, 2.461538)"/>
                        <path fill="#303193" d="M14.294 1.368c-3.625 0-6.636 2.837-6.937 6.496l-.104 1.253H5.544c-2.322 0-4.203 1.918-4.203 4.285s1.881 4.285 4.203 4.285h17.614c2.913 0 5.275-2.409 5.275-5.38 0-2.97-2.362-5.378-5.275-5.378-.279 0-.555.022-.825.065l-1.101.176-.371-1.071c-.976-2.813-3.592-4.731-6.567-4.731zm0-1.368c3.615 0 6.69 2.355 7.831 5.643.337-.054.681-.082 1.033-.082 3.654 0 6.616 3.02 6.616 6.747 0 3.726-2.962 6.746-6.616 6.746H5.544C2.482 19.054 0 16.524 0 13.402c0-3.122 2.481-5.653 5.544-5.653h.476C6.378 3.41 9.946 0 14.294 0z" transform="translate(1.000000, 4.000000) translate(3.218824, 2.461538)"/>
                    </g>
                    <g>
                        <path fill="#FFF" d="M10.95.332c-3.14 0-5.746 2.463-6.007 5.639l-.026.321h-.681c-2.16 0-3.91 1.79-3.91 3.997 0 2.208 1.75 3.997 3.91 3.997h13.513c2.614 0 4.733-2.166 4.733-4.838s-2.119-4.839-4.733-4.839c-.25 0-.496.02-.739.059l-.282.045-.094-.274c-.845-2.442-3.11-4.107-5.685-4.107z" transform="translate(1.000000, 4.000000) translate(3.218824, 2.461538) translate(11.891765, 4.467236)"/>
                        <path fill="#303193" d="M10.989 1.368c-2.627 0-4.807 2.045-5.025 4.68L5.861 7.3h-1.6c-1.614 0-2.92 1.326-2.92 2.96 0 1.633 1.306 2.96 2.92 2.96h13.542c2.07 0 3.745-1.702 3.745-3.798s-1.675-3.797-3.745-3.797c-.199 0-.395.015-.587.046l-1.099.175-.372-1.068c-.706-2.027-2.6-3.41-4.756-3.41zm0-1.368c2.78 0 5.143 1.803 6.02 4.32.259-.041.524-.063.794-.063 2.81 0 5.086 2.313 5.086 5.165 0 2.853-2.277 5.165-5.086 5.165H4.262C1.908 14.587 0 12.65 0 10.26c0-2.39 1.908-4.328 4.262-4.328h.366C4.903 2.61 7.646 0 10.989 0z" transform="translate(1.000000, 4.000000) translate(3.218824, 2.461538) translate(11.891765, 4.467236)"/>
                    </g>
                </g>
                <g fill="#0A95D7">
                    <path d="M10.193 5.654c0 1.409-1.12 2.551-2.504 2.551-1.382 0-2.503-1.142-2.503-2.551 0-.39.086-.76.24-1.091L6.828.925c.475-1.233 1.246-1.234 1.722 0l1.395 3.62c.159.336.248.712.248 1.109zM3.398 3.77c0 .939-.76 1.7-1.7 1.7C.762 5.47 0 4.71 0 3.77c0-.261.058-.508.163-.728L1.114.617c.323-.822.846-.823 1.169 0l.946 2.413c.108.224.169.474.169.74zM24.38 1.884l1.191-.724c.228-.136.52-.055.652.18.132.234.054.534-.175.67l-1.192.725 1.192.725c.229.136.307.436.175.67-.132.235-.424.316-.652.18l-1.191-.724v1.403c0 .266-.214.481-.477.481-.264 0-.477-.215-.477-.48V3.585l-1.251.724c-.229.136-.52.055-.652-.18-.132-.234-.054-.534.174-.67l1.192-.725-1.192-.725c-.228-.136-.306-.436-.174-.67.132-.235.423-.316.652-.18l1.25.724V.481c0-.266.214-.481.478-.481.263 0 .477.215.477.48v1.404zM16.81 2.826l1.787-1.086c.342-.204.78-.083.978.27.197.351.08.802-.262 1.005l-1.788 1.088 1.788 1.087c.342.204.46.654.262 1.006s-.636.473-.978.27l-1.788-1.087v2.105c0 .398-.32.721-.715.721-.395 0-.715-.323-.715-.721V5.379l-1.877 1.086c-.342.204-.78.083-.978-.27-.197-.351-.08-.801.262-1.005l1.788-1.087-1.788-1.088c-.342-.203-.46-.654-.262-1.006s.636-.473.978-.27l1.877 1.087V.721c0-.398.32-.721.715-.721.395 0 .715.323.715.721v2.105z" transform="translate(1.000000, 4.000000) translate(6.974118, 23.794872)"/>
                </g>
            </g>
        </g>
    </g>
</svg>
