<svg xmlns="http://www.w3.org/2000/svg" width="40" height="40" viewBox="0 0 40 40">
    <g fill="none" fill-rule="evenodd">
        <g fill-rule="nonzero">
            <g>
                <g>
                    <path fill="#FFBD00" d="M9.567 14c-2.32 0-4.202-1.913-4.202-4.273 0-2.36 1.881-4.272 4.202-4.272 2.321 0 4.202 1.913 4.202 4.272 0 2.36-1.881 4.273-4.202 4.273z" transform="translate(1.000000, 4.000000)"/>
                    <path fill="#FFA000" d="M9.567 12.91c1.728 0 3.13-1.425 3.13-3.183 0-1.757-1.402-3.182-3.13-3.182s-3.13 1.425-3.13 3.182c0 1.758 1.402 3.182 3.13 3.182zm0 1.09c-2.32 0-4.202-1.913-4.202-4.273 0-2.36 1.881-4.272 4.202-4.272 2.321 0 4.202 1.913 4.202 4.272 0 2.36-1.881 4.273-4.202 4.273z" transform="translate(1.000000, 4.000000)"/>
                    <g fill="#FFA000" transform="translate(1.000000, 4.000000) translate(0.000000, 9.000000)">
                        <rect width="4.024" height="1.455" rx=".72"/>
                        <rect width="4.024" height="1.455" x="15.111" rx=".72"/>
                    </g>
                    <g fill="#FFA000" transform="translate(1.000000, 4.000000) translate(9.567059, 9.727273) rotate(45.000000) translate(-9.567059, -9.727273) translate(0.000000, 9.000000)">
                        <rect width="4.024" height="1.455" rx=".72"/>
                        <rect width="4.024" height="1.455" x="15.111" rx=".72"/>
                    </g>
                    <g fill="#FFA000" transform="translate(1.000000, 4.000000) translate(8.851765, 0.000000)">
                        <rect width="1.431" height="4.091" rx=".715"/>
                        <rect width="1.431" height="4.091" y="15.455" rx=".715"/>
                    </g>
                </g>
                <g>
                    <g>
                        <path fill="#FFF" d="M14.294.91c-4.09 0-7.488 3.192-7.828 7.31l-.035.416h-.887c-2.816 0-5.097 2.32-5.097 5.182C.447 16.68 2.73 19 5.544 19h17.614c3.407 0 6.17-2.808 6.17-6.273 0-3.464-2.763-6.272-6.17-6.272-.325 0-.647.025-.964.076l-.367.058-.123-.356C20.603 3.068 17.65.909 14.294.909z" transform="translate(1.000000, 4.000000) translate(3.218824, 2.454545)"/>
                        <path fill="#303193" d="M5.544 19C2.482 19 0 16.477 0 13.364s2.481-5.637 5.544-5.637h.476C6.378 3.4 9.946 0 14.294 0c3.615 0 6.69 2.348 7.831 5.627.337-.054.681-.082 1.033-.082 3.654 0 6.616 3.012 6.616 6.728 0 3.715-2.962 6.727-6.616 6.727v-1.364c2.913 0 5.275-2.401 5.275-5.363 0-2.963-2.362-5.364-5.275-5.364-.279 0-.555.022-.825.065l-1.101.175-.371-1.067c-.976-2.805-3.592-4.718-6.567-4.718-3.625 0-6.636 2.829-6.937 6.477l-.104 1.25h-1.71c-2.32 0-4.202 1.913-4.202 4.273 0 2.36 1.881 4.272 4.203 4.272h3.218v.002c.35.023.626.319.626.68 0 .361-.276.657-.626.68V19H5.544z" transform="translate(1.000000, 4.000000) translate(3.218824, 2.454545)"/>
                    </g>
                    <g>
                        <path fill="#FFF" d="M10.623.636c-3.138 0-5.745 2.456-6.006 5.623l-.026.32h-.68C1.75 6.58 0 8.365 0 10.566c0 2.201 1.75 3.985 3.91 3.985h13.513c2.614 0 4.733-2.16 4.733-4.824 0-2.665-2.119-4.825-4.733-4.825-.25 0-.496.02-.739.059l-.281.045-.095-.274c-.845-2.434-3.11-4.095-5.685-4.095z" transform="translate(1.000000, 4.000000) translate(3.218824, 2.454545) translate(12.249412, 4.454545)"/>
                        <path fill="#303193" d="M10.64 0c2.779 0 5.135 1.798 6.011 4.308.26-.041.524-.063.794-.063 2.81 0 5.087 2.306 5.087 5.15 0 2.845-2.278 5.15-5.087 5.15H12.98v-.002c-.02.002-.04.002-.06.002-.37 0-.67-.305-.67-.681 0-.377.3-.682.67-.682.02 0 .04 0 .06.002v-.002h4.465c2.07 0 3.746-1.697 3.746-3.787S19.515 5.61 17.445 5.61c-.198 0-.394.015-.587.046l-1.098.174-.372-1.065c-.707-2.023-2.595-3.4-4.748-3.4-2.761 0-4.805 1.71-5.012 4.205l-.103 1.25H4.292c-1.22 0-2.573 1.037-2.957 2.135-.043.334-.324.591-.664.591C.3 9.545 0 9.24 0 8.864c0-.046.004-.09.013-.133L0 8.727c.447-1.636 2.318-3.272 4.292-3.272C4.567 2.14 7.297 0 10.64 0z" transform="translate(1.000000, 4.000000) translate(3.218824, 2.454545) translate(12.249412, 4.454545)"/>
                    </g>
                </g>
                <g fill="#0A95D7">
                    <path d="M19.072 8.953l-.677.397c-.249.146-.567.06-.711-.193-.144-.254-.058-.577.19-.723l.666-.39-.665-.391c-.25-.146-.335-.47-.191-.723.144-.253.462-.34.711-.194l.677.397v-.786c0-.292.233-.529.52-.529.288 0 .52.237.52.53v.772l.655-.384c.25-.146.568-.06.711.194.144.253.059.577-.19.723l-.666.39.666.39c.249.147.334.47.19.724-.143.253-.462.34-.71.193l-.655-.384v.778c0 .292-.233.529-.52.529-.288 0-.521-.237-.521-.53v-.79zM13.087 4.6l-1.53.905c-.292.173-.666.07-.835-.23-.169-.3-.069-.683.224-.856l1.53-.867-1.53-.92c-.293-.173-.393-.556-.224-.856.169-.3.543-.402.836-.23l1.529.905V.627c0-.346.274-.627.612-.627.337 0 .611.28.611.627v1.802l1.492-.882c.293-.173.667-.07.836.23.169.299.069.682-.224.855l-1.492.92 1.492.867c.293.173.393.557.224.856-.169.3-.543.403-.836.23l-1.492-.883v1.751c0 .346-.274.627-.611.627-.338 0-.612-.28-.612-.627V4.6zM13.14 12.819l-1.395.822c-.267.157-.608.064-.762-.209-.154-.272-.063-.62.204-.778l1.395-.788-1.395-.836c-.267-.158-.358-.506-.204-.779s.495-.366.762-.209l1.394.823V9.206c0-.314.25-.57.558-.57.308 0 .558.256.558.57v1.639l1.36-.803c.267-.157.608-.064.762.21.154.272.063.62-.204.778l-1.36.836 1.36.788c.267.157.358.506.204.778-.154.273-.495.366-.762.209l-1.36-.802v1.591c0 .315-.25.57-.558.57-.308 0-.558-.255-.558-.57V12.82zM2.72 8.346c.09.193.141.41.141.639 0 .811-.64 1.47-1.43 1.47C.64 10.455 0 9.796 0 8.985c0-.225.05-.438.137-.63L.938 6.26c.272-.71.712-.71.984 0l.798 2.086zM8.452 4.029c.141.297.22.63.22.982 0 1.25-1 2.262-2.234 2.262-1.235 0-2.236-1.013-2.236-2.262 0-.346.077-.674.215-.967L5.668.82c.425-1.093 1.113-1.094 1.538 0L8.452 4.03zM8.21 12.162c.125.26.195.551.195.86 0 1.092-.881 1.978-1.967 1.978-1.087 0-1.967-.886-1.967-1.979 0-.303.067-.59.188-.846l1.102-2.82c.373-.957.979-.958 1.352 0l1.097 2.807z" transform="translate(1.000000, 4.000000) translate(9.567059, 18.000000)"/>
                </g>
            </g>
        </g>
    </g>
</svg>
