<svg xmlns="http://www.w3.org/2000/svg" width="40" height="40" viewBox="0 0 40 40">
    <g fill="none" fill-rule="evenodd">
        <g fill-rule="nonzero">
            <g>
                <g>
                    <path fill="#FFBD00" d="M9.678 13.964c-2.348 0-4.25-1.908-4.25-4.262 0-2.354 1.902-4.262 4.25-4.262s4.252 1.908 4.252 4.262c0 2.354-1.904 4.262-4.252 4.262z" transform="translate(2.000000, 2.000000)"/>
                    <path fill="#FFA000" d="M9.678 12.876c1.749 0 3.166-1.421 3.166-3.174s-1.417-3.174-3.166-3.174c-1.748 0-3.165 1.421-3.165 3.174s1.417 3.174 3.165 3.174zm0 1.088c-2.348 0-4.25-1.908-4.25-4.262 0-2.354 1.902-4.262 4.25-4.262s4.252 1.908 4.252 4.262c0 2.354-1.904 4.262-4.252 4.262z" transform="translate(2.000000, 2.000000)"/>
                    <g fill="#FFA000" transform="translate(2.000000, 2.000000) translate(0.000000, 8.976684)">
                        <rect width="4.07" height="1.451" rx=".72"/>
                        <rect width="4.07" height="1.451" x="15.286" rx=".72"/>
                    </g>
                    <g fill="#FFA000" transform="translate(2.000000, 2.000000) translate(9.678392, 9.702073) rotate(-45.000000) translate(-9.678392, -9.702073) translate(-0.000000, 8.976684)">
                        <rect width="4.07" height="1.451" rx=".72"/>
                        <rect width="4.07" height="1.451" x="15.286" rx=".72"/>
                    </g>
                    <g fill="#FFA000" transform="translate(2.000000, 2.000000) translate(9.678392, 9.702073) rotate(45.000000) translate(-9.678392, -9.702073) translate(0.000000, 8.976684)">
                        <rect width="4.07" height="1.451" rx=".72"/>
                        <rect width="4.07" height="1.451" x="15.286" rx=".72"/>
                    </g>
                    <g fill="#FFA000" transform="translate(2.000000, 2.000000) translate(8.954774, 0.000000)">
                        <rect width="1.447" height="4.08" rx=".72"/>
                        <rect width="1.447" height="4.08" y="15.415" rx=".72"/>
                    </g>
                </g>
                <g>
                    <path fill="#FFF" d="M14.46.453c-4.138 0-7.575 3.185-7.92 7.292l-.034.416h-.898C2.76 8.16.452 10.474.452 13.329s2.308 5.168 5.156 5.168h17.82c3.446 0 6.24-2.8 6.24-6.256 0-3.455-2.794-6.257-6.24-6.257-.33 0-.655.026-.975.076l-.372.059-.125-.356c-1.113-3.156-4.1-5.31-7.495-5.31z" transform="translate(2.000000, 2.000000) translate(5.879397, 4.805699)"/>
                    <path fill="#303193" d="M14.46 1.36c-3.667 0-6.713 2.822-7.018 6.461l-.104 1.246h-1.73c-2.348 0-4.251 1.908-4.251 4.262 0 2.354 1.903 4.262 4.251 4.262h17.819c2.948 0 5.337-2.395 5.337-5.35 0-2.955-2.39-5.35-5.337-5.35-.282 0-.56.022-.834.065l-1.114.175-.376-1.065c-.986-2.798-3.633-4.706-6.642-4.706zm0-1.36c3.658 0 6.769 2.342 7.923 5.612.34-.053.689-.08 1.044-.08 3.697 0 6.694 3.003 6.694 6.709 0 3.706-2.997 6.71-6.694 6.71H5.608C2.511 18.95 0 16.435 0 13.329c0-3.105 2.51-5.622 5.608-5.622h.482C6.452 3.39 10.062 0 14.46 0z" transform="translate(2.000000, 2.000000) translate(5.879397, 4.805699)"/>
                </g>
                <g fill="#0A95D7">
                    <path d="M4.523 3.174l2.238-1.27c.325-.187.74-.076.927.25.187.325.076.74-.248.929l-2.194 1.27 2.194 1.27c.324.187.435.603.248.928-.187.326-.602.437-.927.25L4.523 5.53v2.584c0 .376-.304.68-.679.68-.374 0-.678-.304-.678-.68V5.531l-2.148 1.27c-.325.187-.74.076-.927-.25-.187-.325-.076-.74.248-.929l2.194-1.27-2.194-1.27c-.324-.187-.435-.603-.248-.928.187-.326.602-.437.927-.25l2.148 1.27V.68c0-.376.304-.68.678-.68.375 0 .679.304.679.68v2.494z" transform="translate(2.000000, 2.000000) translate(17.005025, 26.204663)"/>
                </g>
            </g>
        </g>
    </g>
</svg>
