<svg xmlns="http://www.w3.org/2000/svg" width="40" height="40" viewBox="0 0 40 40">
    <g fill="none" fill-rule="evenodd">
        <g fill-rule="nonzero">
            <g>
                <g>
                    <path fill="#FFBD00" d="M9.567 13.689c-2.32 0-4.202-1.87-4.202-4.178 0-2.307 1.881-4.178 4.202-4.178 2.321 0 4.202 1.87 4.202 4.178 0 2.307-1.881 4.178-4.202 4.178z" transform="translate(1.000000, 4.000000)"/>
                    <path fill="#FFA000" d="M9.567 12.622c1.728 0 3.13-1.393 3.13-3.11 0-1.72-1.402-3.112-3.13-3.112s-3.13 1.393-3.13 3.111c0 1.718 1.402 3.111 3.13 3.111zm0 1.067c-2.32 0-4.202-1.87-4.202-4.178 0-2.307 1.881-4.178 4.202-4.178 2.321 0 4.202 1.87 4.202 4.178 0 2.307-1.881 4.178-4.202 4.178z" transform="translate(1.000000, 4.000000)"/>
                    <g fill="#FFA000" transform="translate(1.000000, 4.000000) translate(0.000000, 8.800000)">
                        <rect width="4.024" height="1.422" rx=".711"/>
                        <rect width="4.024" height="1.422" x="15.111" rx=".711"/>
                    </g>
                    <g fill="#FFA000" transform="translate(1.000000, 4.000000) translate(9.567059, 9.511111) rotate(45.000000) translate(-9.567059, -9.511111) translate(0.000000, 8.800000)">
                        <rect width="4.024" height="1.422" rx=".711"/>
                        <rect width="4.024" height="1.422" x="15.111" rx=".711"/>
                    </g>
                    <g fill="#FFA000" transform="translate(1.000000, 4.000000) translate(8.851765, 0.000000)">
                        <rect width="1.431" height="4" rx=".715"/>
                        <rect width="1.431" height="4" y="15.111" rx=".715"/>
                    </g>
                </g>
                <g>
                    <g>
                        <path fill="#FFF" d="M14.294.444c-4.09 0-7.488 3.122-7.828 7.149L6.43 8h-.887C2.728 8 .447 10.268.447 13.067c0 2.798 2.282 5.066 5.097 5.066h17.614c3.407 0 6.17-2.746 6.17-6.133s-2.763-6.133-6.17-6.133c-.325 0-.647.025-.964.074l-.367.057-.123-.348C20.603 2.555 17.65.444 14.294.444z" transform="translate(1.000000, 4.000000) translate(3.218824, 2.400000)"/>
                        <path fill="#303193" d="M14.294 1.333c-3.625 0-6.636 2.767-6.937 6.334L7.253 8.89H5.544c-2.322 0-4.203 1.87-4.203 4.178 0 2.307 1.881 4.177 4.203 4.177h17.614c2.913 0 5.275-2.348 5.275-5.244s-2.362-5.244-5.275-5.244c-.279 0-.555.02-.825.063l-1.101.172-.371-1.045c-.976-2.742-3.592-4.613-6.567-4.613zm0-1.333c3.615 0 6.69 2.296 7.831 5.502.337-.053.681-.08 1.033-.08 3.654 0 6.616 2.945 6.616 6.578 0 3.633-2.962 6.578-6.616 6.578H5.544C2.482 18.578 0 16.11 0 13.067s2.481-5.511 5.544-5.511h.476C6.378 3.324 9.946 0 14.294 0z" transform="translate(1.000000, 4.000000) translate(3.218824, 2.400000)"/>
                    </g>
                    <g>
                        <path fill="#FFF" d="M10.95.324c-3.14 0-5.746 2.4-6.007 5.498l-.026.313h-.681c-2.16 0-3.91 1.744-3.91 3.897 0 2.152 1.75 3.897 3.91 3.897h13.513c2.614 0 4.733-2.112 4.733-4.718 0-2.605-2.119-4.717-4.733-4.717-.25 0-.496.02-.739.057l-.282.044-.094-.267c-.845-2.38-3.11-4.004-5.685-4.004z" transform="translate(1.000000, 4.000000) translate(3.218824, 2.400000) translate(11.891765, 4.355556)"/>
                        <path fill="#303193" d="M10.989 1.333c-2.627 0-4.807 1.995-5.025 4.563l-.103 1.221h-1.6c-1.614 0-2.92 1.294-2.92 2.886 0 1.593 1.306 2.886 2.92 2.886h13.542c2.07 0 3.745-1.659 3.745-3.702 0-2.044-1.675-3.703-3.745-3.703-.199 0-.395.015-.587.045l-1.099.17-.372-1.04c-.706-1.976-2.6-3.326-4.756-3.326zm0-1.333c2.78 0 5.143 1.758 6.02 4.212.259-.04.524-.061.794-.061 2.81 0 5.086 2.255 5.086 5.036 0 2.78-2.277 5.035-5.086 5.035H4.262C1.908 14.222 0 12.334 0 10.003c0-2.33 1.908-4.219 4.262-4.219h.366C4.903 2.544 7.646 0 10.989 0z" transform="translate(1.000000, 4.000000) translate(3.218824, 2.400000) translate(11.891765, 4.355556)"/>
                    </g>
                </g>
                <g fill="#0A95D7">
                    <path d="M4.47 3.111l2.214-1.244c.32-.184.73-.075.915.244.186.32.076.727-.245.91L5.186 4.268l2.168 1.245c.32.184.43.591.245.91-.185.32-.595.428-.915.244L4.47 5.422v2.534c0 .368-.3.666-.671.666-.37 0-.67-.298-.67-.666V5.422L1.005 6.666c-.32.184-.73.075-.916-.244-.185-.319-.075-.726.245-.91l2.169-1.245L.335 3.022c-.32-.184-.43-.592-.245-.91.185-.32.595-.429.916-.245l2.123 1.244V.667C3.13.298 3.43 0 3.8 0c.37 0 .67.298.67.667V3.11zM14.127 3.111l2.213-1.244c.32-.184.73-.075.916.244.185.32.075.727-.245.91l-2.169 1.246 2.169 1.245c.32.184.43.591.245.91-.185.32-.595.428-.916.244l-2.213-1.244v2.534c0 .368-.3.666-.67.666-.37 0-.671-.298-.671-.666V5.422l-2.124 1.244c-.32.184-.73.075-.916-.244-.185-.319-.075-.726.246-.91l2.168-1.245-2.168-1.245c-.32-.184-.43-.592-.246-.91.186-.32.596-.429.916-.245l2.124 1.244V.667c0-.369.3-.667.67-.667.37 0 .671.298.671.667V3.11zM23.784 3.111l2.213-1.244c.32-.184.73-.075.915.244.186.32.076.727-.245.91l-2.168 1.246 2.168 1.245c.32.184.43.591.245.91-.185.32-.595.428-.915.244l-2.213-1.244v2.534c0 .368-.3.666-.671.666-.37 0-.67-.298-.67-.666V5.422l-2.124 1.244c-.32.184-.731.075-.916-.244-.185-.319-.075-.726.245-.91l2.169-1.245-2.169-1.245c-.32-.184-.43-.592-.245-.91.185-.32.595-.429.916-.245l2.123 1.244V.667c0-.369.3-.667.67-.667.371 0 .672.298.672.667V3.11z" transform="translate(1.000000, 4.000000) translate(6.705882, 23.377778)"/>
                </g>
            </g>
        </g>
    </g>
</svg>
