<svg xmlns="http://www.w3.org/2000/svg" width="40" height="40" viewBox="0 0 40 40">
    <g fill="none" fill-rule="evenodd">
        <g fill-rule="nonzero">
            <g>
                <g>
                    <path fill="#FFBD00" d="M9.567 13.703c-2.32 0-4.202-1.872-4.202-4.182 0-2.31 1.881-4.182 4.202-4.182 2.321 0 4.202 1.872 4.202 4.182 0 2.31-1.881 4.182-4.202 4.182z" transform="translate(1.000000, 10.000000)"/>
                    <path fill="#FFA000" d="M9.567 12.636c1.728 0 3.13-1.395 3.13-3.115 0-1.72-1.402-3.114-3.13-3.114S6.437 7.8 6.437 9.52s1.402 3.115 3.13 3.115zm0 1.067c-2.32 0-4.202-1.872-4.202-4.182 0-2.31 1.881-4.182 4.202-4.182 2.321 0 4.202 1.872 4.202 4.182 0 2.31-1.881 4.182-4.202 4.182z" transform="translate(1.000000, 10.000000)"/>
                    <g fill="#FFA000" transform="translate(1.000000, 10.000000) translate(0.000000, 8.809322)">
                        <rect width="4.024" height="1.424" rx=".712"/>
                        <rect width="4.024" height="1.424" x="15.111" rx=".712"/>
                    </g>
                    <g fill="#FFA000" transform="translate(1.000000, 10.000000) translate(9.567059, 9.521186) rotate(45.000000) translate(-9.567059, -9.521186) translate(0.000000, 8.809322)">
                        <rect width="4.024" height="1.424" rx=".712"/>
                        <rect width="4.024" height="1.424" x="15.111" rx=".712"/>
                    </g>
                    <g fill="#FFA000" transform="translate(1.000000, 10.000000) translate(8.851765, 0.000000)">
                        <rect width="1.431" height="4.004" rx=".715"/>
                        <rect width="1.431" height="4.004" y="15.127" rx=".715"/>
                    </g>
                </g>
                <g>
                    <g>
                        <path fill="#FFF" d="M14.294.445c-4.09 0-7.488 3.125-7.828 7.156l-.035.407h-.887c-2.816 0-5.097 2.271-5.097 5.073 0 2.801 2.282 5.072 5.097 5.072h17.614c3.407 0 6.17-2.75 6.17-6.14 0-3.391-2.763-6.14-6.17-6.14-.325 0-.647.025-.964.074l-.367.057-.123-.348C20.603 2.558 17.65.445 14.294.445z" transform="translate(1.000000, 10.000000) translate(3.218824, 2.402542)"/>
                        <path fill="#303193" d="M14.294 1.335c-3.625 0-6.636 2.77-6.937 6.34l-.104 1.223H5.544c-2.322 0-4.203 1.872-4.203 4.183 0 2.31 1.881 4.182 4.203 4.182h17.614c2.913 0 5.275-2.35 5.275-5.25s-2.362-5.25-5.275-5.25c-.279 0-.555.021-.825.063l-1.101.172-.371-1.045c-.976-2.746-3.592-4.618-6.567-4.618zm0-1.335c3.615 0 6.69 2.298 7.831 5.508.337-.053.681-.08 1.033-.08 3.654 0 6.616 2.948 6.616 6.585 0 3.636-2.962 6.584-6.616 6.584H5.544C2.482 18.597 0 16.128 0 13.081s2.481-5.517 5.544-5.517h.476C6.378 3.327 9.946 0 14.294 0z" transform="translate(1.000000, 10.000000) translate(3.218824, 2.402542)"/>
                    </g>
                    <g>
                        <path fill="#FFF" d="M10.95.324c-3.14 0-5.746 2.404-6.007 5.504l-.026.313h-.681c-2.16 0-3.91 1.747-3.91 3.901 0 2.155 1.75 3.901 3.91 3.901h13.513c2.614 0 4.733-2.114 4.733-4.722 0-2.608-2.119-4.722-4.733-4.722-.25 0-.496.02-.739.057l-.282.044-.094-.268C15.789 1.95 13.524.324 10.949.324z" transform="translate(1.000000, 10.000000) translate(3.218824, 2.402542) translate(11.891765, 4.360169)"/>
                        <path fill="#303193" d="M10.989 1.335c-2.627 0-4.807 1.996-5.025 4.567l-.103 1.223h-1.6c-1.614 0-2.92 1.294-2.92 2.889 0 1.594 1.306 2.889 2.92 2.889h13.542c2.07 0 3.745-1.661 3.745-3.707 0-2.045-1.675-3.706-3.745-3.706-.199 0-.395.015-.587.045l-1.099.17-.372-1.042c-.706-1.978-2.6-3.328-4.756-3.328zm0-1.335c2.78 0 5.143 1.76 6.02 4.216.259-.04.524-.06.794-.06 2.81 0 5.086 2.256 5.086 5.04 0 2.784-2.277 5.041-5.086 5.041H4.262C1.908 14.237 0 12.347 0 10.014S1.908 5.79 4.262 5.79h.366C4.903 2.547 7.646 0 10.989 0z" transform="translate(1.000000, 10.000000) translate(3.218824, 2.402542) translate(11.891765, 4.360169)"/>
                    </g>
                </g>
            </g>
        </g>
    </g>
</svg>
