<svg xmlns="http://www.w3.org/2000/svg" width="40" height="40" viewBox="0 0 40 40">
    <g fill="none" fill-rule="evenodd">
        <g fill-rule="nonzero">
            <g>
                <g>
                    <g transform="translate(2.000000, 3.000000) translate(13.563085, 20.257218) translate(5.608040, 1.784777)">
                        <path fill="#0A95D7" d="M1.723 8.031L3.447 9.013 3.447 10.976 1.723 11.958 0 10.976 0 9.013z"/>
                        <rect width="1.809" height="6.782" x=".864" fill="#02A9F1" rx=".9"/>
                    </g>
                    <g transform="translate(2.000000, 3.000000) translate(13.563085, 20.257218) translate(-0.000000, 0.000000)">
                        <path fill="#0A95D7" d="M1.723 8.031L3.447 9.013 3.447 10.976 1.723 11.958 0 10.976 0 9.013z"/>
                        <rect width="1.809" height="6.782" x=".864" fill="#02A9F1" rx=".9"/>
                    </g>
                    <g transform="translate(2.000000, 3.000000) translate(13.563085, 20.257218) translate(11.216080, 0.000000)">
                        <path fill="#0A95D7" d="M1.723 8.031L3.447 9.013 3.447 10.976 1.723 11.958 0 10.976 0 9.013z"/>
                        <rect width="1.809" height="6.782" x=".864" fill="#02A9F1" rx=".9"/>
                    </g>
                </g>
                <g>
                    <path fill="#FFBD00" d="M9.678 13.743c-2.348 0-4.25-1.878-4.25-4.194 0-2.317 1.902-4.195 4.25-4.195S13.93 7.232 13.93 9.55c0 2.316-1.904 4.194-4.252 4.194z" transform="translate(2.000000, 3.000000)"/>
                    <path fill="#FFA000" d="M9.678 12.672c1.749 0 3.166-1.398 3.166-3.123 0-1.725-1.417-3.124-3.166-3.124-1.748 0-3.165 1.399-3.165 3.124s1.417 3.123 3.165 3.123zm0 1.07c-2.348 0-4.25-1.877-4.25-4.193 0-2.317 1.902-4.195 4.25-4.195S13.93 7.232 13.93 9.55c0 2.316-1.904 4.194-4.252 4.194z" transform="translate(2.000000, 3.000000)"/>
                    <g fill="#FFA000" transform="translate(2.000000, 3.000000) translate(0.000000, 8.834646)">
                        <rect width="4.07" height="1.428" rx=".714"/>
                        <rect width="4.07" height="1.428" x="15.286" rx=".714"/>
                    </g>
                    <g fill="#FFA000" transform="translate(2.000000, 3.000000) translate(9.678392, 9.548556) rotate(-45.000000) translate(-9.678392, -9.548556) translate(-0.000000, 8.834646)">
                        <rect width="4.07" height="1.428" rx=".714"/>
                        <rect width="4.07" height="1.428" x="15.286" rx=".714"/>
                    </g>
                    <g fill="#FFA000" transform="translate(2.000000, 3.000000) translate(9.678392, 9.548556) rotate(45.000000) translate(-9.678392, -9.548556) translate(-0.000000, 8.834646)">
                        <rect width="4.07" height="1.428" rx=".714"/>
                        <rect width="4.07" height="1.428" x="15.286" rx=".714"/>
                    </g>
                    <g fill="#FFA000" transform="translate(2.000000, 3.000000) translate(8.954774, 0.000000)">
                        <rect width="1.447" height="4.016" rx=".72"/>
                        <rect width="1.447" height="4.016" y="15.171" rx=".72"/>
                    </g>
                </g>
                <g>
                    <path fill="#FFF" d="M14.46.446c-4.138 0-7.575 3.134-7.92 7.177l-.034.408h-.898C2.76 8.031.452 10.31.452 13.118c0 2.81 2.308 5.087 5.156 5.087h17.82c3.446 0 6.24-2.757 6.24-6.158 0-3.4-2.794-6.157-6.24-6.157-.33 0-.655.025-.975.074l-.372.058-.125-.35c-1.113-3.107-4.1-5.226-7.495-5.226z" transform="translate(2.000000, 3.000000) translate(5.879397, 4.729659)"/>
                    <path fill="#303193" d="M14.46 1.339c-3.667 0-6.713 2.777-7.018 6.358l-.104 1.227h-1.73c-2.348 0-4.251 1.877-4.251 4.194s1.903 4.194 4.251 4.194h17.819c2.948 0 5.337-2.357 5.337-5.265 0-2.908-2.39-5.265-5.337-5.265-.282 0-.56.022-.834.064l-1.114.172-.376-1.048c-.986-2.753-3.633-4.631-6.642-4.631zm0-1.339c3.658 0 6.769 2.305 7.923 5.524.34-.053.689-.08 1.044-.08 3.697 0 6.694 2.956 6.694 6.603s-2.997 6.604-6.694 6.604H5.608C2.511 18.65 0 16.174 0 13.118c0-3.056 2.51-5.533 5.608-5.533h.482C6.452 3.337 10.062 0 14.46 0z" transform="translate(2.000000, 3.000000) translate(5.879397, 4.729659)"/>
                </g>
            </g>
        </g>
    </g>
</svg>
