<svg xmlns="http://www.w3.org/2000/svg" width="40" height="40" viewBox="0 0 40 40">
    <g fill="none" fill-rule="evenodd">
        <g fill-rule="nonzero">
            <g>
                <g>
                    <path fill="#FFBD00" d="M9.567 13.882c-2.32 0-4.202-1.897-4.202-4.237s1.881-4.237 4.202-4.237c2.321 0 4.202 1.897 4.202 4.237s-1.881 4.237-4.202 4.237z" transform="translate(1.000000, 4.000000)"/>
                    <path fill="#FFA000" d="M9.567 12.8c1.728 0 3.13-1.413 3.13-3.155 0-1.742-1.402-3.155-3.13-3.155s-3.13 1.413-3.13 3.155c0 1.742 1.402 3.155 3.13 3.155zm0 1.082c-2.32 0-4.202-1.897-4.202-4.237s1.881-4.237 4.202-4.237c2.321 0 4.202 1.897 4.202 4.237s-1.881 4.237-4.202 4.237z" transform="translate(1.000000, 4.000000)"/>
                    <g fill="#FFA000" transform="translate(1.000000, 4.000000) translate(0.000000, 8.923944)">
                        <rect width="4.024" height="1.442" rx=".72"/>
                        <rect width="4.024" height="1.442" x="15.111" rx=".72"/>
                    </g>
                    <g fill="#FFA000" transform="translate(1.000000, 4.000000) translate(9.567059, 9.645070) rotate(45.000000) translate(-9.567059, -9.645070) translate(0.000000, 8.923944)">
                        <rect width="4.024" height="1.442" rx=".72"/>
                        <rect width="4.024" height="1.442" x="15.111" rx=".72"/>
                    </g>
                    <g fill="#FFA000" transform="translate(1.000000, 4.000000) translate(8.851765, 0.000000)">
                        <rect width="1.431" height="4.056" rx=".715"/>
                        <rect width="1.431" height="4.056" y="15.324" rx=".715"/>
                    </g>
                </g>
                <g>
                    <g transform="translate(1.000000, 4.000000) translate(12.960007, 18.118310) translate(5.543529, 1.802817)">
                        <path fill="#0A95D7" d="M1.704 8.113L3.407 9.104 3.407 11.087 1.704 12.079 0 11.087 0 9.104z"/>
                        <rect width="1.788" height="6.851" x=".854" fill="#02A9F1" rx=".894"/>
                    </g>
                    <g transform="translate(1.000000, 4.000000) translate(12.960007, 18.118310) translate(-0.000000, 0.000000)">
                        <path fill="#0A95D7" d="M1.704 8.113L3.407 9.104 3.407 11.087 1.704 12.079 0 11.087 0 9.104z"/>
                        <rect width="1.788" height="6.851" x=".854" fill="#02A9F1" rx=".894"/>
                    </g>
                    <g transform="translate(1.000000, 4.000000) translate(12.960007, 18.118310) translate(11.087059, 0.000000)">
                        <path fill="#0A95D7" d="M1.704 8.113L3.407 9.104 3.407 11.087 1.704 12.079 0 11.087 0 9.104z"/>
                        <rect width="1.788" height="6.851" x=".854" fill="#02A9F1" rx=".894"/>
                    </g>
                </g>
                <g>
                    <g>
                        <path fill="#FFF" d="M14.294.45c-4.09 0-7.488 3.166-7.828 7.25l-.035.413h-.887c-2.816 0-5.097 2.3-5.097 5.138s2.282 5.138 5.097 5.138h17.614c3.407 0 6.17-2.785 6.17-6.22 0-3.435-2.763-6.22-6.17-6.22-.325 0-.647.026-.964.076l-.367.058-.123-.353C20.603 2.59 17.65.45 14.294.45z" transform="translate(1.000000, 4.000000) translate(3.218824, 2.433803)"/>
                        <path fill="#303193" d="M14.294 1.352c-3.625 0-6.636 2.806-6.937 6.423l-.104 1.24H5.544c-2.322 0-4.203 1.896-4.203 4.236s1.881 4.236 4.203 4.236h17.614c2.913 0 5.275-2.38 5.275-5.318 0-2.937-2.362-5.318-5.275-5.318-.279 0-.555.021-.825.064l-1.101.174-.371-1.059c-.976-2.78-3.592-4.678-6.567-4.678zm0-1.352c3.615 0 6.69 2.328 7.831 5.58.337-.054.681-.081 1.033-.081 3.654 0 6.616 2.986 6.616 6.67 0 3.684-2.962 6.67-6.616 6.67H5.544C2.482 18.84 0 16.338 0 13.251s2.481-5.589 5.544-5.589h.476C6.378 3.371 9.946 0 14.294 0z" transform="translate(1.000000, 4.000000) translate(3.218824, 2.433803)"/>
                    </g>
                    <g>
                        <path fill="#FFF" d="M10.95.328c-3.14 0-5.746 2.435-6.007 5.576l-.026.317h-.681c-2.16 0-3.91 1.77-3.91 3.952 0 2.183 1.75 3.952 3.91 3.952h13.513c2.614 0 4.733-2.142 4.733-4.784s-2.119-4.783-4.733-4.783c-.25 0-.496.019-.739.057l-.282.045-.094-.271c-.845-2.414-3.11-4.06-5.685-4.06z" transform="translate(1.000000, 4.000000) translate(3.218824, 2.433803) translate(11.891765, 4.416901)"/>
                        <path fill="#303193" d="M10.989 1.352c-2.627 0-4.807 2.023-5.025 4.627l-.103 1.239h-1.6c-1.614 0-2.92 1.311-2.92 2.926 0 1.615 1.306 2.926 2.92 2.926h13.542c2.07 0 3.745-1.682 3.745-3.754s-1.675-3.754-3.745-3.754c-.199 0-.395.015-.587.045l-1.099.173-.372-1.056c-.706-2.004-2.6-3.372-4.756-3.372zm0-1.352c2.78 0 5.143 1.782 6.02 4.271.259-.04.524-.062.794-.062 2.81 0 5.086 2.287 5.086 5.107 0 2.82-2.277 5.107-5.086 5.107H4.262C1.908 14.423 0 12.508 0 10.144c0-2.363 1.908-4.278 4.262-4.278h.366C4.903 2.58 7.646 0 10.989 0z" transform="translate(1.000000, 4.000000) translate(3.218824, 2.433803) translate(11.891765, 4.416901)"/>
                    </g>
                </g>
            </g>
        </g>
    </g>
</svg>
