<svg xmlns="http://www.w3.org/2000/svg" width="40" height="40" viewBox="0 0 40 40">
    <g fill="none" fill-rule="evenodd">
        <g fill-rule="nonzero">
            <g>
                <g>
                    <path fill="#FFBD00" d="M9.567 13.651c-2.32 0-4.202-1.865-4.202-4.166s1.881-4.166 4.202-4.166c2.321 0 4.202 1.865 4.202 4.166 0 2.3-1.881 4.166-4.202 4.166z" transform="translate(1.000000, 4.000000)"/>
                    <path fill="#FFA000" d="M9.567 12.587c1.728 0 3.13-1.389 3.13-3.102 0-1.714-1.402-3.103-3.13-3.103s-3.13 1.39-3.13 3.103c0 1.713 1.402 3.102 3.13 3.102zm0 1.064c-2.32 0-4.202-1.865-4.202-4.166s1.881-4.166 4.202-4.166c2.321 0 4.202 1.865 4.202 4.166 0 2.3-1.881 4.166-4.202 4.166z" transform="translate(1.000000, 4.000000)"/>
                    <g fill="#FFA000" transform="translate(1.000000, 4.000000) translate(0.000000, 8.775623)">
                        <rect width="4.024" height="1.418" rx=".709"/>
                        <rect width="4.024" height="1.418" x="15.111" rx=".709"/>
                    </g>
                    <g fill="#FFA000" transform="translate(1.000000, 4.000000) translate(9.567059, 9.484765) rotate(45.000000) translate(-9.567059, -9.484765) translate(0.000000, 8.775623)">
                        <rect width="4.024" height="1.418" rx=".709"/>
                        <rect width="4.024" height="1.418" x="15.111" rx=".709"/>
                    </g>
                    <g fill="#FFA000" transform="translate(1.000000, 4.000000) translate(8.851765, 0.000000)">
                        <rect width="1.431" height="3.989" rx=".715"/>
                        <rect width="1.431" height="3.989" y="15.069" rx=".715"/>
                    </g>
                </g>
                <g>
                    <g>
                        <path fill="#FFF" d="M14.294.443c-4.09 0-7.488 3.113-7.828 7.129l-.035.406h-.887C2.728 7.978.447 10.24.447 13.03c0 2.791 2.282 5.053 5.097 5.053h17.614c3.407 0 6.17-2.738 6.17-6.116 0-3.378-2.763-6.117-6.17-6.117-.325 0-.647.025-.964.074l-.367.057-.123-.347c-1.101-3.086-4.053-5.19-7.41-5.19z" transform="translate(1.000000, 4.000000) translate(3.218824, 2.393352)"/>
                        <path fill="#303193" d="M21.92 4.967l-1.232.528c-1.093-2.508-3.59-4.165-6.394-4.165-3.625 0-6.636 2.758-6.937 6.316l-.104 1.218h-1.71c-2.32 0-4.202 1.865-4.202 4.166 0 2.302 1.881 4.167 4.203 4.167h10.385v1.33H5.544C2.482 18.526 0 16.066 0 13.03c0-3.035 2.481-5.495 5.544-5.495h.476C6.378 3.315 9.946 0 14.294 0c3.416 0 6.35 2.045 7.625 4.967z" transform="translate(1.000000, 4.000000) translate(3.218824, 2.393352)"/>
                    </g>
                    <g>
                        <path fill="#FFF" d="M11.18.62c-3.065 0-5.611 2.394-5.866 5.481l-.026.312h-.665c-2.109 0-3.818 1.74-3.818 3.885 0 2.146 1.646 3.885 3.755 3.885h13.233c2.553 0 4.65-2.106 4.65-4.703 0-2.597-2.07-4.702-4.623-4.702-.243 0-.485.019-.722.057l-.275.044-.092-.267C15.906 2.239 13.694.62 11.179.62z" transform="translate(1.000000, 4.000000) translate(3.218824, 2.393352) translate(11.891765, 4.343490)"/>
                        <path fill="#303193" d="M10.989 0c2.78 0 5.143 1.753 6.02 4.2.259-.04.524-.06.794-.06 2.81 0 5.086 2.248 5.086 5.021 0 2.774-2.277 5.022-5.086 5.022h-1.038c-.37 0-.67-.298-.67-.665 0-.367.3-.665.67-.665h1.038c2.07 0 3.745-1.654 3.745-3.692 0-2.038-1.675-3.692-3.745-3.692-.199 0-.395.015-.587.045l-1.099.17-.372-1.039c-.706-1.97-2.6-3.315-4.756-3.315-2.627 0-4.807 1.989-5.025 4.55l-.103 1.218h-1.6c-1.614 0-2.92 1.29-2.92 2.877 0 1.589 1.306 2.878 2.92 2.878h.395v.001h.038c.37 0 .67.297.67.664 0 .367-.3.665-.67.665l-.038-.001h-.394C1.908 14.183 0 12.3 0 9.976c0-2.323 1.908-4.207 4.262-4.207h.366C4.903 2.538 7.646 0 10.989 0z" transform="translate(1.000000, 4.000000) translate(3.218824, 2.393352) translate(11.891765, 4.343490)"/>
                    </g>
                </g>
                <g>
                    <path fill="#FFBD00" d="M2.593 0L0 9.13 4.471 9.13 1.967 20.211 10.729 5.762 5.991 5.762 8.584 0z" transform="translate(1.000000, 4.000000) translate(21.280000, 11.789474)"/>
                    <path fill="#FFA000" d="M7.206.886H3.27L1.18 8.244h4.407l-1.54 6.817 5.102-8.413H4.613L7.206.886zM4.47 9.13H0L2.593 0h5.99L5.992 5.762h4.738L1.967 20.21 4.471 9.13z" transform="translate(1.000000, 4.000000) translate(21.280000, 11.789474)"/>
                </g>
            </g>
        </g>
    </g>
</svg>
