<svg xmlns="http://www.w3.org/2000/svg" width="40" height="40" viewBox="0 0 40 40">
    <g fill="none" fill-rule="evenodd">
        <g fill-rule="nonzero">
            <g transform="translate(10.000000, 10.000000)">
                <ellipse cx="10" cy="10" fill="#4CD7FF" rx="8.857" ry="8.856"/>
                <path fill="#78EBFF" d="M10 18.856c4.891 0 8.857-3.965 8.857-8.856S14.89 1.144 10 1.144c-4.891 0-8.857 3.965-8.857 8.856S5.11 18.856 10 18.856zM10 20C4.477 20 0 15.523 0 10S4.477 0 10 0s10 4.477 10 10-4.477 10-10 10z"/>
                <path fill="#02A9F1" d="M14.804 2.559c2.439 1.577 4.053 4.32 4.053 7.441 0 4.891-3.966 8.856-8.857 8.856-3.121 0-5.866-1.614-7.443-4.054 1.384.895 3.033 1.415 4.804 1.415 4.892 0 8.857-3.965 8.857-8.856 0-1.761-.514-3.402-1.4-4.781l-.014-.021z"/>
            </g>
        </g>
    </g>
</svg>
