<svg xmlns="http://www.w3.org/2000/svg" width="40" height="40" viewBox="0 0 40 40">
    <g fill="none" fill-rule="evenodd">
        <g fill-rule="nonzero">
            <g>
                <g>
                    <path fill="#4CD7FF" d="M3.988 11.459C1.67 10.675 0 8.474 0 5.882 0 2.634 2.623 0 5.86 0c2.538 0 4.7 1.621 5.513 3.89L9.194 6.967l-.45 2.806H5.408l-1.42 1.685z" transform="translate(4.000000, 10.000000)"/>
                    <path fill="#78EBFF" d="M11.373 3.89l-1.017.367C9.679 2.37 7.89 1.086 5.859 1.086c-2.638 0-4.777 2.147-4.777 4.796 0 2.075 1.324 3.896 3.252 4.547l-.346 1.03C1.67 10.675 0 8.474 0 5.882 0 2.634 2.623 0 5.86 0c2.538 0 4.7 1.621 5.513 3.89z" transform="translate(4.000000, 10.000000)"/>
                </g>
                <g fill="#FFF">
                    <path d="M14.41 1.357c-3.654 0-6.69 2.817-6.994 6.449L7.312 9.05H5.59c-2.34 0-4.237 1.904-4.237 4.253 0 2.35 1.897 4.254 4.237 4.254h17.757c2.938 0 5.319-2.391 5.319-5.34s-2.381-5.34-5.319-5.34c-.28 0-.558.023-.831.066l-1.11.174-.374-1.063c-.984-2.792-3.621-4.697-6.62-4.697zm0-1.357c3.645 0 6.746 2.337 7.895 5.601.34-.053.687-.08 1.041-.08 3.684 0 6.67 2.998 6.67 6.696 0 3.699-2.986 6.697-6.67 6.697H5.59C2.502 18.914 0 16.403 0 13.304c0-3.1 2.502-5.612 5.589-5.612h.48C6.43 3.384 10.027 0 14.411 0z" transform="translate(4.000000, 10.000000) translate(1.983099, 1.085973)"/>
                </g>
            </g>
        </g>
    </g>
</svg>
