<svg xmlns="http://www.w3.org/2000/svg" width="40" height="40" viewBox="0 0 40 40">
    <g fill="none" fill-rule="evenodd">
        <g fill-rule="nonzero">
            <g>
                <g>
                    <path fill="#4CD7FF" d="M1.37 9.71C.516 8.684 0 7.358 0 5.91 0 2.645 2.618 0 5.848 0c1.39 0 2.666.49 3.669 1.307l-1.42 1.238-1.259 2.728-.36 2.182h-1.71l-2.429.727-.968 1.529z" transform="translate(3.000000, 11.000000) translate(0.359897, 1.272727)"/>
                    <path fill="#78EBFF" d="M8.683 2.034c-.8-.597-1.785-.943-2.835-.943-2.633 0-4.768 2.157-4.768 4.818 0 1.046.333 2.028.907 2.829l-.616.973C.515 8.683 0 7.357 0 5.909 0 2.646 2.618 0 5.848 0c1.39 0 2.666.49 3.669 1.307l-.834.727z" transform="translate(3.000000, 11.000000) translate(0.359897, 1.272727)"/>
                </g>
                <g fill="#FFF">
                    <g>
                        <path d="M22.041 5.057l-1.236.548c-1.108-2.556-3.611-4.241-6.42-4.241-3.649 0-6.679 2.829-6.982 6.477l-.104 1.25h-1.72c-2.336 0-4.23 1.913-4.23 4.273 0 2.36 1.894 4.272 4.23 4.272h12.943V19H5.579C2.498 19 0 16.477 0 13.364s2.497-5.637 5.579-5.637h.479C6.418 3.4 10.008 0 14.384 0c3.424 0 6.366 2.08 7.657 5.057z" transform="translate(3.000000, 11.000000)"/>
                    </g>
                    <g>
                        <path d="M11.058 1.364c-2.643 0-4.837 2.04-5.056 4.666l-.104 1.25h-1.61c-1.624 0-2.938 1.322-2.938 2.95 0 1.63 1.314 2.952 2.939 2.952h13.626c2.083 0 3.769-1.697 3.769-3.787s-1.686-3.786-3.77-3.786c-.199 0-.396.015-.59.046l-1.105.174-.375-1.065c-.71-2.02-2.617-3.4-4.786-3.4zm0-1.364c2.797 0 5.176 1.798 6.058 4.308.26-.041.527-.063.799-.063 2.827 0 5.118 2.306 5.118 5.15 0 2.845-2.291 5.15-5.118 5.15H4.289C1.92 14.545 0 12.615 0 10.231c0-2.384 1.92-4.315 4.289-4.315h.368C4.934 2.602 7.694 0 11.058 0z" transform="translate(3.000000, 11.000000) translate(11.966581, 4.454545)"/>
                    </g>
                </g>
            </g>
        </g>
    </g>
</svg>
