<svg xmlns="http://www.w3.org/2000/svg" width="40" height="40" viewBox="0 0 40 40">
    <g fill="none" fill-rule="evenodd">
        <g fill-rule="nonzero">
            <g>
                <g fill="#FFF">
                    <g>
                        <path d="M22.041 5.092l-1.236.55c-1.108-2.572-3.611-4.27-6.42-4.27-3.649 0-6.679 2.85-6.982 6.523l-.104 1.258h-1.72c-2.336 0-4.23 1.925-4.23 4.301 0 2.376 1.894 4.302 4.23 4.302h12.943v1.373H5.579C2.498 19.129 0 16.589 0 13.454 0 10.32 2.497 7.78 5.579 7.78h.479C6.418 3.422 10.008 0 14.384 0c3.424 0 6.366 2.094 7.657 5.092z" transform="translate(3.000000, 7.000000)"/>
                    </g>
                    <g>
                        <path d="M11.058 1.373c-2.643 0-4.837 2.053-5.056 4.698L5.898 7.33h-1.61c-1.624 0-2.938 1.331-2.938 2.97 0 1.64 1.314 2.972 2.939 2.972h13.626c2.083 0 3.769-1.708 3.769-3.812s-1.686-3.812-3.77-3.812c-.199 0-.396.016-.59.046l-1.105.176-.375-1.073c-.71-2.034-2.617-3.423-4.786-3.423zm0-1.373c2.797 0 5.176 1.81 6.058 4.337.26-.041.527-.063.799-.063 2.827 0 5.118 2.322 5.118 5.185 0 2.864-2.291 5.185-5.118 5.185H4.289C1.92 14.644 0 12.7 0 10.3c0-2.4 1.92-4.344 4.289-4.344h.368C4.934 2.62 7.694 0 11.058 0z" transform="translate(3.000000, 7.000000) translate(11.966581, 4.484746)"/>
                    </g>
                </g>
                <g fill="#00D7FF">
                    <g transform="translate(3.000000, 7.000000) translate(9.897172, 21.508475)">
                        <ellipse cx=".99" cy="1.007" rx="1" ry="1.007"/>
                        <ellipse cx=".99" cy="4.485" rx="1" ry="1.007"/>
                    </g>
                    <g transform="translate(3.000000, 7.000000) translate(9.897172, 21.508475) translate(4.138817, 0.000000)">
                        <ellipse cx=".99" cy="1.007" rx="1" ry="1.007"/>
                        <ellipse cx=".99" cy="4.485" rx="1" ry="1.007"/>
                    </g>
                    <g transform="translate(3.000000, 7.000000) translate(9.897172, 21.508475) translate(8.277635, 0.000000)">
                        <ellipse cx=".99" cy="1.007" rx="1" ry="1.007"/>
                        <ellipse cx=".99" cy="4.485" rx="1" ry="1.007"/>
                    </g>
                    <g transform="translate(3.000000, 7.000000) translate(9.897172, 21.508475) translate(12.416452, 0.000000)">
                        <ellipse cx=".99" cy="1.007" rx="1" ry="1.007"/>
                        <ellipse cx=".99" cy="4.485" rx="1" ry="1.007"/>
                    </g>
                </g>
            </g>
        </g>
    </g>
</svg>
