<svg xmlns="http://www.w3.org/2000/svg" width="40" height="40" viewBox="0 0 40 40">
    <g fill="none" fill-rule="evenodd">
        <g fill-rule="nonzero">
            <g>
                <g fill="#FFF">
                    <g>
                        <path d="M22.041 4.977l-1.236.539C19.697 3 17.194 1.342 14.385 1.342c-3.649 0-6.679 2.785-6.982 6.375l-.104 1.23h-1.72c-2.336 0-4.23 1.882-4.23 4.205 0 2.323 1.894 4.205 4.23 4.205h12.943V18.7H5.579C2.498 18.7 0 16.216 0 13.152c0-3.063 2.497-5.547 5.579-5.547h.479C6.418 3.345 10.008 0 14.384 0c3.424 0 6.366 2.047 7.657 4.977z" transform="translate(3.000000, 5.000000)"/>
                    </g>
                    <g>
                        <path d="M11.058 1.342c-2.643 0-4.837 2.008-5.056 4.593l-.104 1.229h-1.61c-1.624 0-2.938 1.302-2.938 2.905 0 1.603 1.314 2.904 2.939 2.904h13.626c2.083 0 3.769-1.67 3.769-3.726 0-2.057-1.686-3.727-3.77-3.727-.199 0-.396.015-.59.045l-1.105.172-.375-1.048c-.71-1.989-2.617-3.347-4.786-3.347zm0-1.342c2.797 0 5.176 1.77 6.058 4.24.26-.04.527-.062.799-.062 2.827 0 5.118 2.27 5.118 5.069s-2.291 5.068-5.118 5.068H4.289C1.92 14.315 0 12.415 0 10.07c0-2.346 1.92-4.247 4.289-4.247h.368C4.934 2.562 7.694 0 11.058 0z" transform="translate(3.000000, 5.000000) translate(11.966581, 4.384038)"/>
                    </g>
                </g>
                <g fill="#00D7FF">
                    <g>
                        <path d="M1.679 8.291c0 .461-.376.835-.84.835-.463 0-.839-.374-.839-.835V5.175c0-.46.376-.835.84-.835.463 0 .839.374.839.835v3.116zM1.679 1.948c0 .46-.376.834-.84.834C.376 2.782 0 2.41 0 1.948V.835C0 .374.376 0 .84 0c.463 0 .839.374.839.835v1.113z" transform="translate(3.000000, 5.000000) translate(6.708377, 20.853443) translate(16.460021, 4.573278) scale(-1, 1) rotate(160.000000) translate(-16.460021, -4.573278) translate(15.620627, 0.010300)"/>
                    </g>
                    <g>
                        <path d="M1.679 8.291c0 .461-.376.835-.84.835-.463 0-.839-.374-.839-.835V5.175c0-.46.376-.835.84-.835.463 0 .839.374.839.835v3.116zM1.679 1.948c0 .46-.376.834-.84.834C.376 2.782 0 2.41 0 1.948V.835C0 .374.376 0 .84 0c.463 0 .839.374.839.835v1.113z" transform="translate(3.000000, 5.000000) translate(6.708377, 20.853443) translate(11.759413, 4.573278) rotate(20.000000) translate(-11.759413, -4.573278) translate(10.920019, 0.010300)"/>
                    </g>
                    <g>
                        <path d="M1.679 8.291c0 .461-.376.835-.84.835-.463 0-.839-.374-.839-.835V5.175c0-.46.376-.835.84-.835.463 0 .839.374.839.835v3.116zM1.679 1.948c0 .46-.376.834-.84.834C.376 2.782 0 2.41 0 1.948V.835C0 .374.376 0 .84 0c.463 0 .839.374.839.835v1.113z" transform="translate(3.000000, 5.000000) translate(6.708377, 20.853443) translate(7.058805, 4.573278) scale(-1, 1) rotate(160.000000) translate(-7.058805, -4.573278) translate(6.219411, 0.010300)"/>
                    </g>
                    <g>
                        <path d="M1.679 8.291c0 .461-.376.835-.84.835-.463 0-.839-.374-.839-.835V5.175c0-.46.376-.835.84-.835.463 0 .839.374.839.835v3.116zM1.679 1.948c0 .46-.376.834-.84.834C.376 2.782 0 2.41 0 1.948V.835C0 .374.376 0 .84 0c.463 0 .839.374.839.835v1.113z" transform="translate(3.000000, 5.000000) translate(6.708377, 20.853443) translate(2.358197, 4.573278) rotate(20.000000) translate(-2.358197, -4.573278) translate(1.518802, 0.010300)"/>
                    </g>
                </g>
            </g>
        </g>
    </g>
</svg>
