<svg xmlns="http://www.w3.org/2000/svg" width="40" height="40" viewBox="0 0 40 40">
    <g fill="none" fill-rule="evenodd">
        <g fill-rule="nonzero">
            <g>
                <g>
                    <path fill="#4CD7FF" d="M3.988 11.238C1.67 10.47 0 8.311 0 5.77 0 2.583 2.623 0 5.86 0c2.538 0 4.7 1.59 5.513 3.815l-2.179 3.02-.45 2.75H5.408l-1.42 1.653z" transform="translate(4.000000, 5.000000)"/>
                    <path fill="#78EBFF" d="M11.373 3.815l-1.017.36c-.677-1.85-2.466-3.11-4.497-3.11-2.638 0-4.777 2.106-4.777 4.704 0 2.035 1.324 3.82 3.252 4.46l-.346 1.01C1.67 10.468 0 8.31 0 5.768 0 2.583 2.623 0 5.86 0c2.538 0 4.7 1.59 5.513 3.815z" transform="translate(4.000000, 5.000000)"/>
                </g>
                <g fill="#FFF">
                    <path d="M14.41 1.331c-3.654 0-6.69 2.763-6.994 6.325l-.104 1.22H5.59c-2.34 0-4.237 1.867-4.237 4.171 0 2.305 1.897 4.172 4.237 4.172h17.757c2.938 0 5.319-2.345 5.319-5.237s-2.381-5.236-5.319-5.236c-.28 0-.558.02-.831.063l-1.11.171-.374-1.042c-.984-2.739-3.621-4.607-6.62-4.607zm0-1.331c3.645 0 6.746 2.293 7.895 5.494.34-.053.687-.08 1.041-.08 3.684 0 6.67 2.94 6.67 6.568 0 3.628-2.986 6.568-6.67 6.568H5.59C2.502 18.55 0 16.087 0 13.047c0-3.039 2.502-5.503 5.589-5.503h.48C6.43 3.32 10.027 0 14.411 0z" transform="translate(4.000000, 5.000000) translate(1.983099, 1.065089)"/>
                </g>
                <g fill="#00D7FF">
                    <path d="M5.048 5.504c0 1.372-1.13 2.484-2.524 2.484C1.13 7.988 0 6.876 0 5.504c0-.38.087-.74.242-1.062L1.655.9c.48-1.2 1.256-1.202 1.736 0l1.407 3.524c.16.327.25.693.25 1.08z" transform="translate(4.000000, 5.000000) translate(14.422535, 22.011834)"/>
                </g>
            </g>
        </g>
    </g>
</svg>
