<svg xmlns="http://www.w3.org/2000/svg" width="40" height="40" viewBox="0 0 40 40">
    <g fill="none" fill-rule="evenodd">
        <g fill-rule="nonzero">
            <g>
                <g fill="#FFF">
                    <g>
                        <path d="M22.041 4.949l-1.236.535c-1.108-2.5-3.611-4.15-6.42-4.15-3.649 0-6.679 2.769-6.982 6.339l-.104 1.223h-1.72c-2.336 0-4.23 1.871-4.23 4.18 0 2.31 1.894 4.182 4.23 4.182h12.943v1.334H5.579C2.498 18.592 0 16.123 0 13.077S2.497 7.56 5.579 7.56h.479C6.418 3.326 10.008 0 14.384 0c3.424 0 6.366 2.035 7.657 4.949z" transform="translate(3.000000, 6.000000)"/>
                    </g>
                    <g>
                        <path d="M11.058 1.334c-2.643 0-4.837 1.996-5.056 4.567l-.104 1.222h-1.61c-1.624 0-2.938 1.294-2.938 2.888 0 1.594 1.314 2.888 2.939 2.888h13.626c2.083 0 3.769-1.66 3.769-3.705s-1.686-3.705-3.77-3.705c-.199 0-.396.015-.59.045l-1.105.17-.375-1.042c-.71-1.977-2.617-3.328-4.786-3.328zm0-1.334c2.797 0 5.176 1.759 6.058 4.215.26-.04.527-.06.799-.06 2.827 0 5.118 2.255 5.118 5.039 0 2.783-2.291 5.04-5.118 5.04H4.289C1.92 14.233 0 12.343 0 10.01c0-2.332 1.92-4.222 4.289-4.222h.368C4.934 2.546 7.694 0 11.058 0z" transform="translate(3.000000, 6.000000) translate(11.966581, 4.358896)"/>
                    </g>
                </g>
                <g transform="translate(3.000000, 6.000000) translate(7.647815, 20.549080)">
                    <g fill="#FD5267" transform="translate(2.249357, 0.000000)">
                        <circle cx=".99" cy=".979" r="1"/>
                        <circle cx=".99" cy="4.359" r="1"/>
                    </g>
                    <g fill="#FD5267" transform="translate(6.388175, 0.000000)">
                        <circle cx=".99" cy=".979" r="1"/>
                        <circle cx=".99" cy="4.359" r="1"/>
                    </g>
                    <g fill="#FD5267" transform="translate(10.526992, 0.000000)">
                        <circle cx=".99" cy=".979" r="1"/>
                        <circle cx=".99" cy="4.359" r="1"/>
                    </g>
                    <g fill="#FD5267" transform="translate(14.665810, 0.000000)">
                        <circle cx=".99" cy=".979" r="1"/>
                        <circle cx=".99" cy="4.359" r="1"/>
                    </g>
                    <rect width="18.895" height="1.779" y="6.672" fill="#00D7FF" rx=".89"/>
                </g>
            </g>
        </g>
    </g>
</svg>
