<svg xmlns="http://www.w3.org/2000/svg" width="40" height="40" viewBox="0 0 40 40">
    <g fill="none" fill-rule="evenodd">
        <g fill-rule="nonzero">
            <g>
                <g>
                    <path fill="#4CD7FF" d="M3.988 11.305C1.67 10.532 0 8.361 0 5.804 0 2.598 2.623 0 5.86 0c2.538 0 4.7 1.6 5.513 3.837L9.194 6.875l-.45 2.768H5.408l-1.42 1.662z" transform="translate(4.000000, 5.000000)"/>
                    <path fill="#78EBFF" d="M11.373 3.837l-1.017.363C9.679 2.338 7.89 1.071 5.859 1.071c-2.638 0-4.777 2.12-4.777 4.733 0 2.047 1.324 3.843 3.252 4.486l-.346 1.015C1.67 10.532 0 8.361 0 5.804 0 2.598 2.623 0 5.86 0c2.538 0 4.7 1.6 5.513 3.837z" transform="translate(4.000000, 5.000000)"/>
                </g>
                <g fill="#FFF">
                    <path d="M14.41 1.34c-3.654 0-6.69 2.778-6.994 6.361L7.312 8.93H5.59c-2.34 0-4.237 1.878-4.237 4.196 0 2.318 1.897 4.196 4.237 4.196h17.757c2.938 0 5.319-2.358 5.319-5.267 0-2.91-2.381-5.268-5.319-5.268-.28 0-.558.021-.831.064l-1.11.172-.374-1.05c-.984-2.754-3.621-4.633-6.62-4.633zm0-1.34c3.645 0 6.746 2.306 7.895 5.526.34-.052.687-.08 1.041-.08 3.684 0 6.67 2.959 6.67 6.608 0 3.649-2.986 6.607-6.67 6.607H5.59C2.502 18.66 0 16.183 0 13.125c0-3.057 2.502-5.536 5.589-5.536h.48C6.43 3.34 10.027 0 14.411 0z" transform="translate(4.000000, 5.000000) translate(1.983099, 1.071429)"/>
                </g>
                <g>
                    <path fill="#00D7FF" d="M10.276 5.537c0 1.38-1.13 2.499-2.524 2.499-1.394 0-2.524-1.119-2.524-2.499 0-.382.087-.745.242-1.069L6.883.906c.48-1.208 1.257-1.209 1.736 0l1.407 3.546c.16.328.25.696.25 1.085zM3.425 3.691c0 .92-.766 1.666-1.712 1.666S0 4.611 0 3.691c0-.255.059-.496.164-.712l.96-2.375c.325-.805.852-.806 1.177 0l.955 2.364c.108.219.17.464.17.723z" transform="translate(4.000000, 5.000000) translate(3.605634, 21.964286)"/>
                    <path fill="#FFF" d="M24.578 1.845l1.202-.71c.23-.132.524-.053.657.177.133.23.054.524-.176.656l-1.202.71 1.202.71c.23.134.309.427.176.657-.133.23-.427.309-.657.176l-1.202-.71v1.375c0 .26-.215.471-.48.471-.266 0-.481-.21-.481-.47V3.511l-1.262.71c-.23.132-.524.053-.657-.177-.133-.23-.054-.523.176-.656l1.202-.71-1.202-.71c-.23-.133-.309-.427-.176-.657.133-.23.427-.309.657-.176l1.262.71V.47c0-.26.215-.471.48-.471.266 0 .481.21.481.471v1.374zM16.946 2.768l1.803-1.064c.345-.2.786-.081.985.264.2.345.081.785-.264.985l-1.802 1.065 1.802 1.065c.345.2.463.64.264.985s-.64.463-.985.264l-1.803-1.064v2.061c0 .39-.322.707-.72.707-.399 0-.722-.317-.722-.707V5.268l-1.892 1.064c-.345.199-.786.08-.986-.264-.199-.345-.08-.786.264-.985l1.803-1.065-1.803-1.065c-.345-.2-.463-.64-.264-.985.2-.345.64-.463.986-.264l1.892 1.064V.706c0-.39.323-.706.721-.706.399 0 .721.316.721.706v2.062z" transform="translate(4.000000, 5.000000) translate(3.605634, 21.964286)"/>
                </g>
            </g>
        </g>
    </g>
</svg>
