<svg xmlns="http://www.w3.org/2000/svg" width="40" height="40" viewBox="0 0 40 40">
    <g fill="none" fill-rule="evenodd">
        <g fill-rule="nonzero">
            <g>
                <g>
                    <path fill="#4CD7FF" d="M1.37 9.502C.516 8.497 0 7.2 0 5.782 0 2.59 2.618 0 5.848 0c1.39 0 2.666.479 3.669 1.279L8.097 2.49 6.839 5.16l-.36 2.134h-1.71l-2.429.712-.968 1.496z" transform="translate(3.000000, 6.000000) translate(0.359897, 1.245399)"/>
                    <path fill="#78EBFF" d="M8.683 1.99c-.8-.584-1.785-.923-2.835-.923-2.633 0-4.768 2.111-4.768 4.715 0 1.024.333 1.984.907 2.768l-.616.952C.515 8.497 0 7.2 0 5.782 0 2.59 2.618 0 5.848 0c1.39 0 2.666.479 3.669 1.279l-.834.712z" transform="translate(3.000000, 6.000000) translate(0.359897, 1.245399)"/>
                </g>
                <g fill="#FFF">
                    <g>
                        <path d="M22.041 4.949l-1.236.535c-1.108-2.5-3.611-4.15-6.42-4.15-3.649 0-6.679 2.769-6.982 6.339l-.104 1.223h-1.72c-2.336 0-4.23 1.871-4.23 4.18 0 2.31 1.894 4.182 4.23 4.182h12.943v1.334H5.579C2.498 18.592 0 16.123 0 13.077S2.497 7.56 5.579 7.56h.479C6.418 3.326 10.008 0 14.384 0c3.424 0 6.366 2.035 7.657 4.949z" transform="translate(3.000000, 6.000000)"/>
                    </g>
                    <g>
                        <path d="M11.058 1.334c-2.643 0-4.837 1.996-5.056 4.567l-.104 1.222h-1.61c-1.624 0-2.938 1.294-2.938 2.888 0 1.594 1.314 2.888 2.939 2.888h13.626c2.083 0 3.769-1.66 3.769-3.705s-1.686-3.705-3.77-3.705c-.199 0-.396.015-.59.045l-1.105.17-.375-1.042c-.71-1.977-2.617-3.328-4.786-3.328zm0-1.334c2.797 0 5.176 1.759 6.058 4.215.26-.04.527-.06.799-.06 2.827 0 5.118 2.255 5.118 5.039 0 2.783-2.291 5.04-5.118 5.04H4.289C1.92 14.233 0 12.343 0 10.01c0-2.332 1.92-4.222 4.289-4.222h.368C4.934 2.546 7.694 0 11.058 0z" transform="translate(3.000000, 6.000000) translate(11.966581, 4.358896)"/>
                    </g>
                </g>
                <g>
                    <path fill="#00D7FF" d="M5.039 5.517c0 1.375-1.128 2.49-2.52 2.49C1.128 8.006 0 6.891 0 5.516c0-.381.087-.742.241-1.065L1.652.903c.479-1.204 1.254-1.204 1.733 0l1.404 3.532c.16.327.25.694.25 1.082z" transform="translate(3.000000, 6.000000) translate(9.627249, 20.993865)"/>
                    <path fill="#FFF" d="M12.057 2.758l1.798-1.06c.345-.199.785-.081.984.262.199.344.081.783-.263.982l-1.8 1.061 1.8 1.061c.344.199.462.638.263.982-.199.343-.64.46-.984.263l-1.798-1.06v2.053c0 .389-.323.704-.72.704-.398 0-.72-.315-.72-.704V5.248l-1.889 1.06c-.344.199-.785.081-.984-.262-.198-.344-.08-.783.264-.982l1.8-1.06-1.8-1.062c-.344-.199-.462-.638-.264-.982.2-.343.64-.46.984-.262l1.889 1.06V.704c0-.389.322-.704.72-.704.397 0 .72.315.72.704v2.054z" transform="translate(3.000000, 6.000000) translate(9.627249, 20.993865)"/>
                </g>
            </g>
        </g>
    </g>
</svg>
