<svg xmlns="http://www.w3.org/2000/svg" width="40" height="40" viewBox="0 0 40 40">
    <g fill="none" fill-rule="evenodd">
        <g fill-rule="nonzero">
            <g>
                <g>
                    <path fill="#4CD7FF" d="M1.37 9.537C.516 8.528 0 7.226 0 5.804 0 2.598 2.618 0 5.848 0c1.39 0 2.666.48 3.669 1.284L8.097 2.5 6.839 5.179l-.36 2.142h-1.71l-2.429.715-.968 1.501z" transform="translate(3.000000, 5.000000) translate(0.359897, 1.250000)"/>
                    <path fill="#78EBFF" d="M8.683 1.998c-.8-.587-1.785-.927-2.835-.927-2.633 0-4.768 2.12-4.768 4.733 0 1.027.333 1.99.907 2.778l-.616.955C.515 8.528 0 7.226 0 5.804 0 2.598 2.618 0 5.848 0c1.39 0 2.666.48 3.669 1.284l-.834.714z" transform="translate(3.000000, 5.000000) translate(0.359897, 1.250000)"/>
                </g>
                <g fill="#FFF" transform="translate(3.000000, 5.000000)">
                    <g>
                        <path d="M20.46 4.824c-1.227-2.115-3.52-3.485-6.076-3.485-3.648 0-6.678 2.78-6.981 6.362L7.299 8.93h-1.72c-2.336 0-4.23 1.878-4.23 4.196 0 2.318 1.894 4.196 4.23 4.196h3.238v1.34H5.58C2.498 18.66 0 16.183 0 13.125c0-3.057 2.497-5.536 5.579-5.536h.479C6.418 3.34 10.008 0 14.384 0c3.227 0 6.027 1.815 7.419 4.472.398-.064.81-.097 1.23-.097 2.797 0 5.167 1.765 6.05 4.23.26-.04.527-.06.798-.06 2.827 0 5.119 2.264 5.119 5.058 0 2.793-2.292 5.058-5.119 5.058h-4.493v-1.34h4.493c2.083 0 3.77-1.666 3.77-3.718 0-2.053-1.687-3.72-3.77-3.72-.2 0-.396.016-.59.046l-1.106.171-.374-1.046c-.711-1.987-2.61-3.34-4.778-3.34-2.778 0-4.835 1.68-5.043 4.13l-.104 1.227h-1.24c-1.28 0-2.704 1.107-3.02 2.234l-1.3-.359c.45-1.607 2.333-3.214 4.32-3.214.2-2.368 1.71-4.126 3.813-4.908z"/>
                    </g>
                    <circle cx="25.328" cy="17.991" r="1"/>
                    <circle cx="8.772" cy="17.991" r="1"/>
                    <circle cx="13.001" cy="13.08" r="1"/>
                </g>
                <g>
                    <path fill="#FFF" d="M19.192 8.883l-.681.39c-.25.143-.571.058-.716-.19-.144-.25-.059-.567.192-.71l.67-.384-.67-.384c-.25-.143-.336-.461-.192-.71.145-.248.465-.334.716-.19l.68.39v-.772c0-.287.235-.52.525-.52.289 0 .523.233.523.52v.76l.659-.378c.25-.144.571-.058.716.19.144.249.058.567-.192.71l-.67.384.67.383c.25.144.336.462.192.71-.145.249-.465.334-.716.19l-.659-.377v.764c0 .287-.234.52-.523.52-.29 0-.524-.233-.524-.52v-.776zM13.17 4.518l-1.54.889c-.294.17-.67.069-.84-.226-.17-.294-.07-.67.225-.84l1.539-.852-1.54-.904c-.294-.17-.394-.546-.225-.84.17-.295.547-.396.841-.226l1.54.888V.616c0-.34.275-.616.615-.616.34 0 .615.276.615.616v1.77l1.502-.867c.294-.17.67-.069.84.225.17.295.07.671-.225.841l-1.501.904 1.501.851c.295.17.396.547.226.841-.17.295-.547.396-.841.226L14.4 4.54v1.72c0 .34-.275.615-.615.615-.34 0-.616-.276-.616-.616V4.52zM13.222 12.679l-1.403.808c-.269.154-.612.062-.767-.205-.155-.268-.063-.61.206-.765l1.403-.774-1.403-.821c-.269-.155-.36-.497-.206-.765.155-.267.498-.36.767-.205l1.403.808V9.131c0-.309.251-.56.561-.56.31 0 .561.251.561.56v1.61l1.37-.789c.268-.154.611-.062.766.205.155.268.063.61-.206.765l-1.368.821 1.368.774c.269.155.361.497.206.765-.155.267-.498.36-.767.205l-1.369-.788v1.563c0 .309-.25.56-.56.56-.31 0-.562-.251-.562-.56v-1.583z" transform="translate(3.000000, 5.000000) translate(6.388175, 15.178571)"/>
                    <path fill="#00D7FF" d="M2.737 8.286c.091.19.142.403.142.627 0 .798-.644 1.444-1.44 1.444C.646 10.357 0 9.711 0 8.913c0-.22.05-.43.138-.617l.806-2.058c.274-.698.717-.699.99 0l.803 2.048zM8.505 3.957c.143.292.223.619.223.965 0 1.226-1.008 2.22-2.25 2.22s-2.25-.994-2.25-2.22c0-.34.078-.662.216-.95L5.704.806c.427-1.074 1.12-1.075 1.547 0l1.254 3.15zM8.262 12.034c.125.255.196.541.196.844 0 1.073-.887 1.943-1.98 1.943s-1.98-.87-1.98-1.943c0-.297.069-.58.19-.831l1.109-2.77c.376-.94.985-.94 1.361 0l1.104 2.757z" transform="translate(3.000000, 5.000000) translate(6.388175, 15.178571)"/>
                </g>
            </g>
        </g>
    </g>
</svg>
