<svg xmlns="http://www.w3.org/2000/svg" width="40" height="40" viewBox="0 0 40 40">
    <g fill="none" fill-rule="evenodd">
        <g fill-rule="nonzero">
            <g>
                <g fill="#FFF">
                    <g>
                        <path d="M22.041 4.98l-1.236.538c-1.108-2.516-3.611-4.175-6.42-4.175-3.649 0-6.679 2.785-6.982 6.377l-.104 1.23h-1.72c-2.336 0-4.23 1.884-4.23 4.207 0 2.324 1.894 4.207 4.23 4.207h12.943v1.343H5.579C2.498 18.707 0 16.223 0 13.157c0-3.064 2.497-5.549 5.579-5.549h.479C6.418 3.347 10.008 0 14.384 0c3.424 0 6.366 2.047 7.657 4.98z" transform="translate(3.000000, 6.000000)"/>
                    </g>
                    <g>
                        <path d="M11.058 1.343c-2.643 0-4.837 2.008-5.056 4.594l-.104 1.23h-1.61c-1.624 0-2.938 1.302-2.938 2.906 0 1.603 1.314 2.905 2.939 2.905h13.626c2.083 0 3.769-1.67 3.769-3.728 0-2.057-1.686-3.728-3.77-3.728-.199 0-.396.016-.59.046l-1.105.171-.375-1.049c-.71-1.989-2.617-3.347-4.786-3.347zm0-1.343c2.797 0 5.176 1.77 6.058 4.241.26-.04.527-.061.799-.061 2.827 0 5.118 2.27 5.118 5.07 0 2.8-2.291 5.071-5.118 5.071H4.289C1.92 14.321 0 12.419 0 10.073c0-2.347 1.92-4.249 4.289-4.249h.368C4.934 2.562 7.694 0 11.058 0z" transform="translate(3.000000, 6.000000) translate(11.966581, 4.385802)"/>
                    </g>
                </g>
                <g>
                    <path fill="#00D7FF" d="M10.257 5.55c0 1.384-1.128 2.506-2.52 2.506-1.39 0-2.518-1.122-2.518-2.505 0-.384.086-.747.24-1.072L6.872.91c.478-1.211 1.254-1.212 1.732 0l1.405 3.554c.16.329.25.698.25 1.088zM3.419 3.7c0 .923-.765 1.67-1.71 1.67C.766 5.37 0 4.623 0 3.7c0-.255.059-.497.164-.714L1.12.606c.325-.808.851-.808 1.176 0l.953 2.369c.108.22.169.465.169.725z" transform="translate(3.000000, 6.000000) translate(3.778920, 20.944444)"/>
                    <path fill="#FFF" d="M24.533 1.85l1.2-.711c.229-.133.522-.054.655.176.133.23.054.525-.176.658l-1.2.712 1.2.712c.23.133.309.428.176.658-.133.23-.426.31-.656.177l-1.199-.711v1.377c0 .261-.215.472-.48.472s-.48-.211-.48-.472V3.521l-1.259.71c-.23.134-.523.055-.656-.176-.132-.23-.054-.525.176-.658l1.2-.712-1.2-.712c-.23-.133-.308-.428-.176-.658.133-.23.426-.31.656-.176l1.26.71V.473c0-.26.214-.472.48-.472.264 0 .479.211.479.472V1.85zM16.915 2.775l1.799-1.067c.344-.2.785-.081.984.265.199.345.08.787-.264.987l-1.799 1.068 1.8 1.068c.344.2.462.641.263.987-.2.346-.64.464-.984.264l-1.799-1.066v2.066c0 .391-.322.709-.72.709-.397 0-.72-.318-.72-.709V5.281l-1.888 1.066c-.345.2-.785.082-.984-.264-.199-.346-.08-.788.264-.987l1.799-1.068-1.8-1.068c-.344-.2-.462-.642-.263-.987.199-.346.64-.465.984-.265l1.889 1.067V.708c0-.39.322-.708.72-.708.397 0 .72.317.72.708v2.067z" transform="translate(3.000000, 6.000000) translate(3.778920, 20.944444)"/>
                </g>
            </g>
        </g>
    </g>
</svg>
