<svg xmlns="http://www.w3.org/2000/svg" width="40" height="40" viewBox="0 0 40 40">
    <g fill="none" fill-rule="evenodd">
        <g fill-rule="nonzero">
            <g>
                <g>
                    <path fill="#4CD7FF" d="M3.988 11.377C1.67 10.6 0 8.414 0 5.841 0 2.615 2.623 0 5.86 0c2.538 0 4.7 1.61 5.513 3.862L9.194 6.919l-.45 2.785H5.408l-1.42 1.673z" transform="translate(4.000000, 5.000000)"/>
                    <path fill="#78EBFF" d="M11.373 3.862l-1.017.365C9.679 2.353 7.89 1.078 5.859 1.078c-2.638 0-4.777 2.132-4.777 4.763 0 2.06 1.324 3.867 3.252 4.514l-.346 1.022C1.67 10.6 0 8.414 0 5.841 0 2.615 2.623 0 5.86 0c2.538 0 4.7 1.61 5.513 3.862z" transform="translate(4.000000, 5.000000)"/>
                </g>
                <g fill="#FFF">
                    <path d="M14.41 1.348c-3.654 0-6.69 2.796-6.994 6.402l-.104 1.236H5.59c-2.34 0-4.237 1.89-4.237 4.223s1.897 4.223 4.237 4.223h17.757c2.938 0 5.319-2.374 5.319-5.302 0-2.927-2.381-5.301-5.319-5.301-.28 0-.558.022-.831.064l-1.11.174-.374-1.056c-.984-2.772-3.621-4.663-6.62-4.663zm0-1.348c3.645 0 6.746 2.32 7.895 5.562.34-.053.687-.08 1.041-.08 3.684 0 6.67 2.976 6.67 6.648 0 3.673-2.986 6.65-6.67 6.65H5.59C2.502 18.78 0 16.286 0 13.209c0-3.077 2.502-5.571 5.589-5.571h.48C6.43 3.36 10.027 0 14.411 0z" transform="translate(4.000000, 5.000000) translate(1.983099, 1.078261)"/>
                </g>
                <g fill="#FFF">
                    <path d="M4.507 3.145l2.231-1.257c.323-.187.737-.076.923.246.187.322.076.735-.247.92l-2.186 1.26 2.186 1.258c.323.186.434.598.247.92-.186.322-.6.433-.923.247L4.507 5.48v2.561c0 .372-.303.674-.676.674-.373 0-.676-.302-.676-.674v-2.56L1.014 6.738c-.323.186-.737.075-.923-.247-.187-.322-.076-.734.247-.92l2.186-1.259L.338 3.055c-.323-.186-.434-.599-.247-.92.186-.323.6-.434.923-.247l2.14 1.257V.674c0-.372.304-.674.677-.674.373 0 .676.302.676.674v2.47zM14.242 3.145l2.231-1.257c.324-.187.737-.076.924.246.186.322.076.735-.248.92l-2.186 1.26 2.186 1.258c.324.186.434.598.248.92-.187.322-.6.433-.924.247l-2.23-1.258v2.561c0 .372-.303.674-.677.674-.373 0-.676-.302-.676-.674v-2.56l-2.14 1.257c-.324.186-.737.075-.924-.247-.187-.322-.076-.734.247-.92l2.186-1.259-2.186-1.258c-.323-.186-.434-.599-.247-.92.187-.323.6-.434.923-.247l2.141 1.257V.674c0-.372.303-.674.676-.674.374 0 .676.302.676.674v2.47zM23.977 3.145l2.232-1.257c.323-.187.736-.076.923.246.187.322.076.735-.248.92l-2.186 1.26 2.186 1.258c.324.186.435.598.248.92-.187.322-.6.433-.923.247L23.977 5.48v2.561c0 .372-.302.674-.676.674-.373 0-.676-.302-.676-.674v-2.56l-2.14 1.257c-.324.186-.737.075-.924-.247-.187-.322-.076-.734.247-.92l2.187-1.259-2.187-1.258c-.323-.186-.434-.599-.247-.92.187-.323.6-.434.923-.247l2.141 1.257V.674c0-.372.303-.674.676-.674.374 0 .676.302.676.674v2.47z" transform="translate(4.000000, 5.000000) translate(3.335211, 22.284058)"/>
                </g>
            </g>
        </g>
    </g>
</svg>
