<svg xmlns="http://www.w3.org/2000/svg" width="40" height="40" viewBox="0 0 40 40">
    <g fill="none" fill-rule="evenodd">
        <g fill-rule="nonzero">
            <g>
                <g>
                    <g transform="translate(4.000000, 5.000000) translate(9.640333, 19.238235) translate(5.588732, 0.000000)">
                        <path fill="#FFF" d="M1.717 7.75L3.435 8.753 3.435 10.759 1.717 11.762 0 10.759 0 8.753z"/>
                        <rect width="1.803" height="6.474" x=".861" fill="#00D7FF" rx=".9"/>
                    </g>
                    <g>
                        <path fill="#FFF" d="M1.717 5.926L3.435 6.929 3.435 8.935 1.717 9.938 0 8.935 0 6.929z" transform="translate(4.000000, 5.000000) translate(9.640333, 19.238235)"/>
                        <path fill="#00D7FF" d="M1.762 0c.498 0 .902.408.902.912v2.826c0 .504-.404.912-.902.912-.497 0-.9-.408-.9-.912V.912c0-.504.403-.912.9-.912z" transform="translate(4.000000, 5.000000) translate(9.640333, 19.238235)"/>
                    </g>
                    <g>
                        <path fill="#FFF" d="M1.717 5.926L3.435 6.929 3.435 8.935 1.717 9.938 0 8.935 0 6.929z" transform="translate(4.000000, 5.000000) translate(9.640333, 19.238235) translate(11.177465, 0.000000)"/>
                        <path fill="#00D7FF" d="M1.762 0c.498 0 .902.408.902.912v2.826c0 .504-.404.912-.902.912-.497 0-.9-.408-.9-.912V.912c0-.504.403-.912.9-.912z" transform="translate(4.000000, 5.000000) translate(9.640333, 19.238235) translate(11.177465, 0.000000)"/>
                    </g>
                </g>
                <g>
                    <path fill="#4CD7FF" d="M3.988 11.544C1.67 10.754 0 8.538 0 5.926 0 2.653 2.623 0 5.86 0c2.538 0 4.7 1.634 5.513 3.918L9.194 7.021l-.45 2.826H5.408l-1.42 1.697z" transform="translate(4.000000, 5.000000)"/>
                    <path fill="#78EBFF" d="M11.373 3.918l-1.017.371C9.679 2.388 7.89 1.094 5.859 1.094c-2.638 0-4.777 2.164-4.777 4.832 0 2.091 1.324 3.925 3.252 4.582l-.346 1.036C1.67 10.754 0 8.538 0 5.926 0 2.653 2.623 0 5.86 0c2.538 0 4.7 1.634 5.513 3.918z" transform="translate(4.000000, 5.000000)"/>
                </g>
                <g fill="#FFF">
                    <path d="M14.41 1.368c-3.654 0-6.69 2.837-6.994 6.496l-.104 1.254H5.59c-2.34 0-4.237 1.918-4.237 4.285s1.897 4.285 4.237 4.285h17.757c2.938 0 5.319-2.408 5.319-5.38 0-2.97-2.381-5.379-5.319-5.379-.28 0-.558.022-.831.066l-1.11.175-.374-1.07c-.984-2.813-3.621-4.732-6.62-4.732zm0-1.368c3.645 0 6.746 2.355 7.895 5.643.34-.053.687-.081 1.041-.081 3.684 0 6.67 3.02 6.67 6.747 0 3.726-2.986 6.747-6.67 6.747H5.59C2.502 19.056 0 16.526 0 13.403 0 10.28 2.502 7.75 5.589 7.75h.48C6.43 3.41 10.027 0 14.411 0z" transform="translate(4.000000, 5.000000) translate(1.983099, 1.094118)"/>
                </g>
            </g>
        </g>
    </g>
</svg>
