<svg xmlns="http://www.w3.org/2000/svg" width="40" height="40" viewBox="0 0 40 40">
    <g fill="none" fill-rule="evenodd">
        <g fill-rule="nonzero">
            <g>
                <g fill="#FFF">
                    <g>
                        <path d="M22.041 4.964l-1.236.537c-1.108-2.508-3.611-4.163-6.42-4.163-3.649 0-6.679 2.778-6.982 6.359l-.104 1.226h-1.72c-2.336 0-4.23 1.877-4.23 4.194s1.894 4.194 4.23 4.194h12.943v1.338H5.579C2.498 18.65 0 16.173 0 13.117c0-3.055 2.497-5.532 5.579-5.532h.479C6.418 3.337 10.008 0 14.384 0c3.424 0 6.366 2.041 7.657 4.964z" transform="translate(3.000000, 6.000000)"/>
                    </g>
                    <g>
                        <path d="M11.058 1.338c-2.643 0-4.837 2.003-5.056 4.58l-.104 1.227h-1.61c-1.624 0-2.938 1.298-2.938 2.897 0 1.599 1.314 2.896 2.939 2.896h13.626c2.083 0 3.769-1.665 3.769-3.716s-1.686-3.717-3.77-3.717c-.199 0-.396.016-.59.046l-1.105.17-.375-1.045c-.71-1.983-2.617-3.338-4.786-3.338zm0-1.338c2.797 0 5.176 1.764 6.058 4.228.26-.04.527-.061.799-.061 2.827 0 5.118 2.263 5.118 5.055s-2.291 5.055-5.118 5.055H4.289C1.92 14.277 0 12.38 0 10.042c0-2.34 1.92-4.236 4.289-4.236h.368C4.934 2.554 7.694 0 11.058 0z" transform="translate(3.000000, 6.000000) translate(11.966581, 4.372308)"/>
                    </g>
                </g>
                <g fill="#FD5267">
                    <path d="M3.329 0L0 8.209 0 0M9.717 0L6.388 8.209 6.388 0M16.105 0L12.776 8.209 12.776 0" transform="translate(3.000000, 6.000000) translate(9.087404, 20.790769)"/>
                </g>
            </g>
        </g>
    </g>
</svg>
