<svg xmlns="http://www.w3.org/2000/svg" width="40" height="40" viewBox="0 0 40 40">
    <g fill="none" fill-rule="evenodd">
        <g fill-rule="nonzero">
            <g>
                <g>
                    <path fill="#4CD7FF" d="M3.988 11.344C1.67 10.568 0 8.39 0 5.824 0 2.607 2.623 0 5.86 0c2.538 0 4.7 1.605 5.513 3.85L9.194 6.9l-.45 2.777H5.408l-1.42 1.668z" transform="translate(4.000000, 5.000000)"/>
                    <path fill="#78EBFF" d="M11.373 3.85l-1.017.365c-.677-1.868-2.466-3.14-4.497-3.14-2.638 0-4.777 2.126-4.777 4.749 0 2.054 1.324 3.856 3.252 4.501l-.346 1.02C1.67 10.567 0 8.39 0 5.823 0 2.607 2.623 0 5.86 0c2.538 0 4.7 1.605 5.513 3.85z" transform="translate(4.000000, 5.000000)"/>
                </g>
                <g fill="#FFF">
                    <path d="M28.665 12.095c0-2.92-2.381-5.286-5.319-5.286-.28 0-.558.022-.831.064l-1.11.173-.374-1.052c-.984-2.764-3.621-4.65-6.62-4.65-3.655 0-6.69 2.788-6.995 6.384L7.312 8.96H5.59c-2.34 0-4.237 1.885-4.237 4.21 0 2.327 1.897 4.212 4.237 4.212h5.138c.352.024.63.315.63.671 0 .357-.278.648-.63.671l-5.138.001C2.502 18.725 0 16.24 0 13.171s2.502-5.555 5.589-5.555h.48C6.43 3.35 10.027 0 14.411 0c3.644 0 6.745 2.314 7.894 5.546.34-.053.687-.08 1.041-.08 3.684 0 6.67 2.968 6.67 6.63 0 3.571-2.84 6.483-6.4 6.624-.418-.004-.72-.304-.72-.675 0-.372.302-.672.676-.672 2.867-.142 5.093-2.458 5.093-5.278z" transform="translate(4.000000, 5.000000) translate(1.983099, 1.075145)"/>
                </g>
                <g>
                    <path fill="#FED731" d="M2.614 0L0 9.228 4.507 9.228 1.983 20.428 10.817 5.824 6.039 5.824 8.654 0z" transform="translate(4.000000, 5.000000) translate(14.512676, 10.572254)"/>
                    <path fill="#FEEA39" d="M7.264.896H3.297L1.19 8.332h4.443l-1.553 6.89L9.223 6.72H4.65L7.264.896zM4.507 9.228H0L2.614 0h6.04L6.039 5.824h4.778L1.983 20.428l2.524-11.2z" transform="translate(4.000000, 5.000000) translate(14.512676, 10.572254)"/>
                </g>
            </g>
        </g>
    </g>
</svg>
