<svg xmlns="http://www.w3.org/2000/svg" width="40" height="40" viewBox="0 0 40 40">
    <g fill="none" fill-rule="evenodd">
        <g fill-rule="nonzero">
            <g>
                <g>
                    <path fill="#FED731" d="M9.75 14.107c-2.365 0-4.282-1.928-4.282-4.305 0-2.378 1.917-4.306 4.283-4.306 2.365 0 4.283 1.928 4.283 4.306 0 2.377-1.918 4.305-4.283 4.305z" transform="translate(1.000000, 8.000000)"/>
                    <path fill="#FEEA39" d="M9.75 13.008c1.762 0 3.19-1.436 3.19-3.206 0-1.771-1.428-3.207-3.19-3.207-1.76 0-3.189 1.436-3.189 3.207 0 1.77 1.428 3.206 3.19 3.206zm0 1.099c-2.365 0-4.282-1.928-4.282-4.305 0-2.378 1.917-4.306 4.283-4.306 2.365 0 4.283 1.928 4.283 4.306 0 2.377-1.918 4.305-4.283 4.305z" transform="translate(1.000000, 8.000000)"/>
                    <g fill="#FEEA39" transform="translate(1.000000, 8.000000) translate(0.000000, 9.068702)">
                        <rect width="4.101" height="1.466" rx=".72"/>
                        <rect width="4.101" height="1.466" x="15.4" rx=".72"/>
                    </g>
                    <g fill="#FEEA39" transform="translate(1.000000, 8.000000) translate(9.750600, 9.801527) rotate(-45.000000) translate(-9.750600, -9.801527) translate(0.000000, 9.068702)">
                        <rect width="4.101" height="1.466" rx=".72"/>
                        <rect width="4.101" height="1.466" x="15.4" rx=".72"/>
                    </g>
                    <g fill="#FEEA39" transform="translate(1.000000, 8.000000) translate(9.750600, 9.801527) rotate(45.000000) translate(-9.750600, -9.801527) translate(0.000000, 9.068702)">
                        <rect width="4.101" height="1.466" rx=".72"/>
                        <rect width="4.101" height="1.466" x="15.4" rx=".72"/>
                    </g>
                    <g fill="#FEEA39" transform="translate(1.000000, 8.000000) translate(9.021583, 0.000000)">
                        <rect width="1.458" height="4.122" rx=".72"/>
                        <rect width="1.458" height="4.122" y="15.573" rx=".72"/>
                    </g>
                </g>
                <g fill="#FFF">
                    <path d="M18.499 5.744c-.146 0-.402.028-.702.075l-1.122.175-.377-1.077c-.737-2.106-2.685-3.543-4.907-3.543-2.728 0-4.985 2.118-5.199 4.834l-.1 1.266H4.466c-1.713 0-3.098 1.359-3.098 3.028 0 1.678 1.392 3.055 3.098 3.055h13.943c2.16 0 3.918-1.753 3.918-3.906 0-2.179-1.692-3.907-3.827-3.907zm0-1.374c2.908 0 5.194 2.361 5.194 5.28 0 2.92-2.377 5.281-5.285 5.281H4.465C2.015 14.931 0 12.95 0 10.501 0 8.057 2.015 6.1 4.465 6.1h.365C5.097 2.702 7.917 0 11.39 0c2.887 0 5.297 1.887 6.198 4.461.264-.041.634-.09.91-.09z" transform="translate(1.000000, 8.000000) translate(14.306954, 9.068702)"/>
                </g>
            </g>
        </g>
    </g>
</svg>
