<svg xmlns="http://www.w3.org/2000/svg" width="40" height="40" viewBox="0 0 40 40">
    <g fill="none" fill-rule="evenodd">
        <g fill-rule="nonzero">
            <g>
                <g>
                    <path fill="#FED731" d="M13.863 10.394c-.4.322-.657.815-.657 1.369 0 .076.005.151.014.225-.761 1.14-2.063 1.893-3.542 1.893-2.348 0-4.25-1.897-4.25-4.237s1.902-4.236 4.25-4.236 4.252 1.897 4.252 4.236c0 .256-.023.507-.067.75z" transform="translate(2.000000, 2.000000)"/>
                    <path fill="#FEEA39" d="M9.678 12.8c1.749 0 3.166-1.413 3.166-3.156 0-1.742-1.417-3.154-3.166-3.154-1.748 0-3.165 1.412-3.165 3.154 0 1.743 1.417 3.155 3.165 3.155zm4.185-2.406c-.4.322-.657.815-.657 1.369 0 .076.005.151.014.225-.761 1.14-2.063 1.893-3.542 1.893-2.348 0-4.25-1.897-4.25-4.237s1.902-4.236 4.25-4.236 4.252 1.897 4.252 4.236c0 .256-.023.507-.067.75z" transform="translate(2.000000, 2.000000)"/>
                    <g fill="#FEEA39" transform="translate(2.000000, 2.000000) translate(0.000000, 8.923345)">
                        <rect width="4.07" height="1.442" rx=".72"/>
                    </g>
                    <g fill="#FEEA39" transform="translate(2.000000, 2.000000) translate(9.678392, 9.644423) rotate(-45.000000) translate(-9.678392, -9.644423) translate(0.000000, 8.923345)">
                        <rect width="4.07" height="1.442" rx=".72"/>
                        <rect width="4.07" height="1.442" x="15.286" rx=".72"/>
                    </g>
                    <g fill="#FEEA39" transform="translate(2.000000, 2.000000) translate(4.273822, 4.258822) rotate(45.000000) translate(-4.273822, -4.258822) translate(2.238646, 3.537744)">
                        <rect width="4.07" height="1.442" rx=".72"/>
                    </g>
                    <g fill="#FEEA39" transform="translate(2.000000, 2.000000) translate(8.954774, 0.000000)">
                        <rect width="1.447" height="4.056" rx=".72"/>
                    </g>
                </g>
                <g fill="#FFF">
                    <path d="M14.46 1.352c-3.667 0-6.713 2.805-7.018 6.423l-.104 1.238h-1.73c-2.348 0-4.251 1.897-4.251 4.237s1.903 4.236 4.251 4.236h17.819c2.948 0 5.337-2.38 5.337-5.318 0-2.937-2.39-5.318-5.337-5.318-.282 0-.56.022-.834.065l-1.114.174-.376-1.06c-.986-2.78-3.633-4.677-6.642-4.677zm0-1.352c3.658 0 6.769 2.328 7.923 5.579.34-.053.689-.08 1.044-.08 3.697 0 6.694 2.985 6.694 6.67 0 3.683-2.997 6.67-6.694 6.67H5.608C2.511 18.838 0 16.336 0 13.248c0-3.086 2.51-5.588 5.608-5.588h.482C6.452 3.371 10.062 0 14.46 0z" transform="translate(2.000000, 2.000000) translate(5.879397, 4.777144)"/>
                </g>
                <g fill="#00D7FF">
                    <g>
                        <path d="M1.688 8.353c0 .464-.378.84-.844.84-.466 0-.844-.376-.844-.84v-3.14c0-.464.378-.84.844-.84.466 0 .844.376.844.84v3.14zM1.688 1.962c0 .464-.378.841-.844.841-.466 0-.844-.377-.844-.84V.84C0 .376.378 0 .844 0c.466 0 .844.376.844.84v1.122z" transform="translate(2.000000, 2.000000) translate(10.452556, 25.785498) translate(16.547461, 4.607251) scale(-1, 1) rotate(160.000000) translate(-16.547461, -4.607251) translate(15.703608, 0.010376)"/>
                    </g>
                    <g>
                        <path d="M1.688 8.353c0 .464-.378.84-.844.84-.466 0-.844-.376-.844-.84v-3.14c0-.464.378-.84.844-.84.466 0 .844.376.844.84v3.14zM1.688 1.962c0 .464-.378.841-.844.841-.466 0-.844-.377-.844-.84V.84C0 .376.378 0 .844 0c.466 0 .844.376.844.84v1.122z" transform="translate(2.000000, 2.000000) translate(10.452556, 25.785498) translate(11.821882, 4.607251) rotate(20.000000) translate(-11.821882, -4.607251) translate(10.978029, 0.010377)"/>
                    </g>
                    <g>
                        <path d="M1.688 8.353c0 .464-.378.84-.844.84-.466 0-.844-.376-.844-.84v-3.14c0-.464.378-.84.844-.84.466 0 .844.376.844.84v3.14zM1.688 1.962c0 .464-.378.841-.844.841-.466 0-.844-.377-.844-.84V.84C0 .376.378 0 .844 0c.466 0 .844.376.844.84v1.122z" transform="translate(2.000000, 2.000000) translate(10.452556, 25.785498) translate(7.096303, 4.607251) scale(-1, 1) rotate(160.000000) translate(-7.096303, -4.607251) translate(6.252450, 0.010376)"/>
                    </g>
                    <g>
                        <path d="M1.688 8.353c0 .464-.378.84-.844.84-.466 0-.844-.376-.844-.84v-3.14c0-.464.378-.84.844-.84.466 0 .844.376.844.84v3.14zM1.688 1.962c0 .464-.378.841-.844.841-.466 0-.844-.377-.844-.84V.84C0 .376.378 0 .844 0c.466 0 .844.376.844.84v1.122z" transform="translate(2.000000, 2.000000) translate(10.452556, 25.785498) translate(2.370724, 4.607251) rotate(20.000000) translate(-2.370724, -4.607251) translate(1.526871, 0.010377)"/>
                    </g>
                </g>
            </g>
        </g>
    </g>
</svg>
