<svg xmlns="http://www.w3.org/2000/svg" width="40" height="40" viewBox="0 0 40 40">
    <g fill="none" fill-rule="evenodd">
        <g fill-rule="nonzero">
            <g>
                <g>
                    <path fill="#FED731" d="M6.062 12.109c-.44-.678-.697-1.49-.697-2.363 0-2.364 1.881-4.281 4.202-4.281.784 0 1.518.219 2.147.6l-.985 1.404-.983 3.46-2.414.274-1.27.906z" transform="translate(1.000000, 4.000000)"/>
                    <path fill="#FEEA39" d="M6.828 11.29c-.254-.468-.39-.994-.39-1.544 0-1.76 1.4-3.188 3.13-3.188.486 0 .955.113 1.38.326l.766-.82c-.629-.38-1.363-.599-2.147-.599-2.32 0-4.202 1.917-4.202 4.28 0 .874.256 1.686.697 2.364l.766-.82z" transform="translate(1.000000, 4.000000)"/>
                    <g fill="#FEEA39" transform="translate(1.000000, 4.000000) translate(0.000000, 9.017207)">
                        <rect width="4.024" height="1.457" rx=".72"/>
                    </g>
                    <g fill="#FEEA39" transform="translate(1.000000, 4.000000) translate(4.224659, 4.303619) rotate(45.000000) translate(-4.224659, -4.303619) translate(2.212894, 3.574956)">
                        <rect width="4.024" height="1.457" rx=".72"/>
                    </g>
                    <g fill="#FEEA39" transform="translate(1.000000, 4.000000) translate(8.851765, 0.000000)">
                        <rect width="1.431" height="4.099" rx=".715"/>
                    </g>
                </g>
                <g fill="#FFF">
                    <g>
                        <path d="M21.904 5.067l-1.229.548c-1.101-2.56-3.589-4.249-6.38-4.249-3.626 0-6.637 2.835-6.938 6.49l-.104 1.252h-1.71c-2.32 0-4.202 1.917-4.202 4.281 0 2.365 1.881 4.281 4.203 4.281h12.862v1.366H5.544C2.482 19.036 0 16.51 0 13.39c0-3.119 2.481-5.647 5.544-5.647h.476C6.378 3.406 9.946 0 14.294 0c3.402 0 6.326 2.084 7.61 5.067z" transform="translate(1.000000, 4.000000) translate(3.218824, 2.459238)"/>
                    </g>
                    <g>
                        <path d="M10.989 1.366c-2.627 0-4.807 2.044-5.025 4.676l-.103 1.251h-1.6c-1.614 0-2.92 1.325-2.92 2.957s1.306 2.957 2.92 2.957h13.542c2.07 0 3.745-1.7 3.745-3.794 0-2.094-1.675-3.793-3.745-3.793-.199 0-.395.015-.587.046l-1.099.174-.372-1.067c-.706-2.024-2.6-3.407-4.756-3.407zm0-1.366c2.78 0 5.143 1.801 6.02 4.316.259-.041.524-.063.794-.063 2.81 0 5.086 2.31 5.086 5.16s-2.277 5.16-5.086 5.16H4.262C1.908 14.573 0 12.638 0 10.25c0-2.388 1.908-4.323 4.262-4.323h.366C4.903 2.607 7.646 0 10.989 0z" transform="translate(1.000000, 4.000000) translate(3.218824, 2.459238) translate(11.891765, 4.463062)"/>
                    </g>
                </g>
                <g fill="#00D7FF">
                    <g>
                        <path d="M1.668 8.44c0 .47-.373.85-.834.85-.46 0-.834-.38-.834-.85V5.269c0-.469.373-.85.834-.85.46 0 .834.381.834.85v3.173zM1.668 1.983c0 .469-.373.85-.834.85-.46 0-.834-.381-.834-.85V.85C0 .38.373 0 .834 0c.46 0 .834.38.834.85v1.133z" transform="translate(1.000000, 4.000000) translate(9.885259, 23.688573) translate(16.357112, 4.655713) scale(-1, 1) rotate(160.000000) translate(-16.357112, -4.655713) translate(15.522965, 0.010486)"/>
                    </g>
                    <g>
                        <path d="M1.668 8.44c0 .47-.373.85-.834.85-.46 0-.834-.38-.834-.85V5.269c0-.469.373-.85.834-.85.46 0 .834.381.834.85v3.173zM1.668 1.983c0 .469-.373.85-.834.85-.46 0-.834-.381-.834-.85V.85C0 .38.373 0 .834 0c.46 0 .834.38.834.85v1.133z" transform="translate(1.000000, 4.000000) translate(9.885259, 23.688573) translate(11.685892, 4.655714) rotate(20.000000) translate(-11.685892, -4.655714) translate(10.851746, 0.010486)"/>
                    </g>
                    <g>
                        <path d="M1.668 8.44c0 .47-.373.85-.834.85-.46 0-.834-.38-.834-.85V5.269c0-.469.373-.85.834-.85.46 0 .834.381.834.85v3.173zM1.668 1.983c0 .469-.373.85-.834.85-.46 0-.834-.381-.834-.85V.85C0 .38.373 0 .834 0c.46 0 .834.38.834.85v1.133z" transform="translate(1.000000, 4.000000) translate(9.885259, 23.688573) translate(7.014673, 4.655713) scale(-1, 1) rotate(160.000000) translate(-7.014673, -4.655713) translate(6.180526, 0.010486)"/>
                    </g>
                    <g>
                        <path d="M1.668 8.44c0 .47-.373.85-.834.85-.46 0-.834-.38-.834-.85V5.269c0-.469.373-.85.834-.85.46 0 .834.381.834.85v3.173zM1.668 1.983c0 .469-.373.85-.834.85-.46 0-.834-.381-.834-.85V.85C0 .38.373 0 .834 0c.46 0 .834.38.834.85v1.133z" transform="translate(1.000000, 4.000000) translate(9.885259, 23.688573) translate(2.343453, 4.655714) rotate(20.000000) translate(-2.343453, -4.655714) translate(1.509307, 0.010486)"/>
                    </g>
                </g>
            </g>
        </g>
    </g>
</svg>
