<svg xmlns="http://www.w3.org/2000/svg" width="40" height="40" viewBox="0 0 40 40">
    <g fill="none" fill-rule="evenodd">
        <g fill-rule="nonzero">
            <g>
                <g>
                    <path fill="#FED731" d="M13.863 10.345c-.4.32-.657.812-.657 1.362 0 .076.005.151.014.224-.761 1.136-2.063 1.884-3.542 1.884-2.348 0-4.25-1.887-4.25-4.216s1.902-4.216 4.25-4.216S13.93 7.27 13.93 9.599c0 .254-.023.504-.067.746z" transform="translate(2.000000, 2.000000)"/>
                    <path fill="#FEEA39" d="M9.678 12.739c1.749 0 3.166-1.406 3.166-3.14 0-1.734-1.417-3.14-3.166-3.14-1.748 0-3.165 1.406-3.165 3.14 0 1.734 1.417 3.14 3.165 3.14zm4.185-2.394c-.4.32-.657.812-.657 1.362 0 .076.005.151.014.224-.761 1.136-2.063 1.884-3.542 1.884-2.348 0-4.25-1.887-4.25-4.216s1.902-4.216 4.25-4.216S13.93 7.27 13.93 9.599c0 .254-.023.504-.067.746z" transform="translate(2.000000, 2.000000)"/>
                    <g fill="#FEEA39" transform="translate(2.000000, 2.000000) translate(0.000000, 8.881266)">
                        <rect width="4.07" height="1.435" rx=".718"/>
                    </g>
                    <g fill="#FEEA39" transform="translate(2.000000, 2.000000) translate(9.678392, 9.598945) rotate(-45.000000) translate(-9.678392, -9.598945) translate(0.000000, 8.881266)">
                        <rect width="4.07" height="1.435" rx=".718"/>
                        <rect width="4.07" height="1.435" x="15.286" rx=".718"/>
                    </g>
                    <g fill="#FEEA39" transform="translate(2.000000, 2.000000) translate(4.273822, 4.238739) rotate(45.000000) translate(-4.273822, -4.238739) translate(2.238646, 3.521061)">
                        <rect width="4.07" height="1.435" rx=".718"/>
                    </g>
                    <g fill="#FEEA39" transform="translate(2.000000, 2.000000) translate(8.954774, 0.000000)">
                        <rect width="1.447" height="4.037" rx=".72"/>
                    </g>
                </g>
                <g fill="#FFF">
                    <path d="M14.46 1.346c-3.667 0-6.713 2.792-7.018 6.392L7.338 8.97h-1.73c-2.348 0-4.251 1.887-4.251 4.216 0 2.33 1.903 4.217 4.251 4.217h17.819c2.948 0 5.337-2.37 5.337-5.293s-2.39-5.293-5.337-5.293c-.282 0-.56.022-.834.064l-1.114.173-.376-1.054c-.986-2.767-3.633-4.655-6.642-4.655zm0-1.346c3.658 0 6.769 2.317 7.923 5.553.34-.053.689-.08 1.044-.08 3.697 0 6.694 2.971 6.694 6.638 0 3.666-2.997 6.638-6.694 6.638H5.608C2.511 18.75 0 16.26 0 13.187c0-3.071 2.51-5.562 5.608-5.562h.482C6.452 3.355 10.062 0 14.46 0z" transform="translate(2.000000, 2.000000) translate(5.879397, 4.754617)"/>
                </g>
                <g fill="#00D7FF">
                    <path d="M5.065 5.563c0 1.387-1.134 2.51-2.532 2.51C1.133 8.074 0 6.95 0 5.564c0-.384.087-.748.243-1.073L1.66.91c.481-1.213 1.26-1.214 1.742 0l1.412 3.563c.16.33.25.7.25 1.09zM12.844 5.563c0 1.387-1.134 2.51-2.532 2.51-1.4 0-2.533-1.123-2.533-2.51 0-.384.087-.748.243-1.073L9.44.91c.48-1.213 1.26-1.214 1.742 0l1.411 3.563c.161.33.251.7.251 1.09zM20.623 5.563c0 1.387-1.134 2.51-2.533 2.51-1.398 0-2.532-1.123-2.532-2.51 0-.384.087-.748.242-1.073L17.22.91c.48-1.213 1.26-1.214 1.742 0l1.411 3.563c.161.33.251.7.251 1.09z" transform="translate(2.000000, 2.000000) translate(10.582915, 25.926121)"/>
                </g>
            </g>
        </g>
    </g>
</svg>
