<svg xmlns="http://www.w3.org/2000/svg" width="40" height="40" viewBox="0 0 40 40">
    <g fill="none" fill-rule="evenodd">
        <g fill-rule="nonzero">
            <g>
                <g>
                    <path fill="#FED731" d="M6.062 12.051c-.44-.674-.697-1.482-.697-2.351 0-2.353 1.881-4.26 4.202-4.26.784 0 1.518.217 2.147.596l-.985 1.397-.983 3.445-2.414.272-1.27.901z" transform="translate(1.000000, 4.000000)"/>
                    <path fill="#FEEA39" d="M6.828 11.236c-.254-.465-.39-.99-.39-1.536 0-1.753 1.4-3.173 3.13-3.173.486 0 .955.112 1.38.324l.766-.815c-.629-.38-1.363-.597-2.147-.597-2.32 0-4.202 1.908-4.202 4.26 0 .87.256 1.678.697 2.352l.766-.815z" transform="translate(1.000000, 4.000000)"/>
                    <g fill="#FEEA39" transform="translate(1.000000, 4.000000) translate(0.000000, 8.974504)">
                        <rect width="4.024" height="1.45" rx=".72"/>
                    </g>
                    <g fill="#FEEA39" transform="translate(1.000000, 4.000000) translate(4.224659, 4.283239) rotate(45.000000) translate(-4.224659, -4.283239) translate(2.212894, 3.558026)">
                        <rect width="4.024" height="1.45" rx=".72"/>
                    </g>
                    <g fill="#FEEA39" transform="translate(1.000000, 4.000000) translate(8.851765, 0.000000)">
                        <rect width="1.431" height="4.079" rx=".715"/>
                    </g>
                </g>
                <g fill="#FFF">
                    <g>
                        <path d="M21.904 5.043l-1.229.546c-1.101-2.549-3.589-4.23-6.38-4.23-3.626 0-6.637 2.822-6.938 6.46l-.104 1.246h-1.71c-2.32 0-4.202 1.907-4.202 4.26 0 2.354 1.881 4.261 4.203 4.261h12.862v1.36H5.544C2.482 18.946 0 16.431 0 13.326c0-3.104 2.481-5.62 5.544-5.62h.476C6.378 3.39 9.946 0 14.294 0c3.402 0 6.326 2.074 7.61 5.043z" transform="translate(1.000000, 4.000000) translate(3.218824, 2.447592)"/>
                    </g>
                    <g>
                        <path d="M10.989 1.36c-2.627 0-4.807 2.034-5.025 4.653L5.861 7.26h-1.6c-1.614 0-2.92 1.318-2.92 2.943 0 1.624 1.306 2.942 2.92 2.942h13.542c2.07 0 3.745-1.691 3.745-3.775 0-2.084-1.675-3.776-3.745-3.776-.199 0-.395.016-.587.046l-1.099.174-.372-1.062c-.706-2.015-2.6-3.391-4.756-3.391zm0-1.36c2.78 0 5.143 1.793 6.02 4.295.259-.04.524-.062.794-.062 2.81 0 5.086 2.3 5.086 5.136 0 2.836-2.277 5.135-5.086 5.135H4.262C1.908 14.504 0 12.578 0 10.202c0-2.377 1.908-4.303 4.262-4.303h.366C4.903 2.595 7.646 0 10.989 0z" transform="translate(1.000000, 4.000000) translate(3.218824, 2.447592) translate(11.891765, 4.441926)"/>
                    </g>
                </g>
                <g fill="#00D7FF">
                    <path d="M5.007 5.622c0 1.4-1.12 2.537-2.503 2.537S0 7.023 0 5.622c0-.389.086-.756.24-1.085L1.642.92c.475-1.226 1.246-1.227 1.722 0l1.395 3.6c.159.333.248.707.248 1.102zM12.696 5.622c0 1.4-1.12 2.537-2.503 2.537S7.689 7.023 7.689 5.622c0-.389.086-.756.24-1.085L9.331.92c.476-1.226 1.246-1.227 1.722 0l1.396 3.6c.158.333.247.707.247 1.102zM20.386 5.622c0 1.4-1.121 2.537-2.504 2.537-1.382 0-2.503-1.136-2.503-2.537 0-.389.086-.756.24-1.085L17.02.92c.475-1.226 1.246-1.227 1.722 0l1.395 3.6c.159.333.248.707.248 1.102z" transform="translate(1.000000, 4.000000) translate(10.014118, 23.841360)"/>
                </g>
            </g>
        </g>
    </g>
</svg>
