<svg xmlns="http://www.w3.org/2000/svg" width="40" height="40" viewBox="0 0 40 40">
    <g fill="none" fill-rule="evenodd">
        <g fill-rule="nonzero">
            <g>
                <g>
                    <path fill="#FED731" d="M13.863 10.563c-.4.328-.657.829-.657 1.391 0 .078.005.154.014.23-.761 1.159-2.063 1.923-3.542 1.923-2.348 0-4.25-1.928-4.25-4.305 0-2.378 1.902-4.306 4.25-4.306s4.252 1.928 4.252 4.306c0 .26-.023.514-.067.761z" transform="translate(2.000000, 8.000000)"/>
                    <path fill="#FEEA39" d="M9.678 13.008c1.749 0 3.166-1.436 3.166-3.206 0-1.771-1.417-3.207-3.166-3.207-1.748 0-3.165 1.436-3.165 3.207 0 1.77 1.417 3.206 3.165 3.206zm4.185-2.445c-.4.328-.657.829-.657 1.391 0 .078.005.154.014.23-.761 1.159-2.063 1.923-3.542 1.923-2.348 0-4.25-1.928-4.25-4.305 0-2.378 1.902-4.306 4.25-4.306s4.252 1.928 4.252 4.306c0 .26-.023.514-.067.761z" transform="translate(2.000000, 8.000000)"/>
                    <g fill="#FEEA39" transform="translate(2.000000, 8.000000) translate(0.000000, 9.068702)">
                        <rect width="4.07" height="1.466" rx=".72"/>
                    </g>
                    <g fill="#FEEA39" transform="translate(2.000000, 8.000000) translate(9.678392, 9.801527) rotate(-45.000000) translate(-9.678392, -9.801527) translate(-0.000000, 9.068702)">
                        <rect width="4.07" height="1.466" rx=".72"/>
                        <rect width="4.07" height="1.466" x="15.286" rx=".72"/>
                    </g>
                    <g fill="#FEEA39" transform="translate(2.000000, 8.000000) translate(4.273822, 4.328196) rotate(45.000000) translate(-4.273822, -4.328196) translate(2.238646, 3.595372)">
                        <rect width="4.07" height="1.466" rx=".72"/>
                    </g>
                    <g fill="#FEEA39" transform="translate(2.000000, 8.000000) translate(8.954774, 0.000000)">
                        <rect width="1.447" height="4.122" rx=".72"/>
                    </g>
                </g>
                <g fill="#FFF">
                    <path d="M14.46 1.374c-3.667 0-6.713 2.851-7.018 6.527l-.104 1.26h-1.73c-2.348 0-4.251 1.927-4.251 4.305 0 2.378 1.903 4.305 4.251 4.305h17.819c2.948 0 5.337-2.42 5.337-5.405 0-2.984-2.39-5.404-5.337-5.404-.282 0-.56.022-.834.065l-1.114.177-.376-1.076c-.986-2.826-3.633-4.754-6.642-4.754zm0-1.374c3.658 0 6.769 2.366 7.923 5.67.34-.054.689-.082 1.044-.082 3.697 0 6.694 3.035 6.694 6.778 0 3.744-2.997 6.779-6.694 6.779H5.608C2.511 19.145 0 16.603 0 13.465c0-3.136 2.51-5.679 5.608-5.679h.482C6.452 3.426 10.062 0 14.46 0z" transform="translate(2.000000, 8.000000) translate(5.879397, 4.854962)"/>
                </g>
            </g>
        </g>
    </g>
</svg>
