<svg xmlns="http://www.w3.org/2000/svg" width="40" height="40" viewBox="0 0 40 40">
    <g fill="none" fill-rule="evenodd">
        <g fill-rule="nonzero">
            <g>
                <g>
                    <path fill="#FED731" d="M6.062 12.12c-.44-.678-.697-1.49-.697-2.365 0-2.366 1.881-4.285 4.202-4.285.784 0 1.518.22 2.147.6l-.985 1.406-.983 3.464-2.414.274-1.27.906z" transform="translate(1.000000, 4.000000)"/>
                    <path fill="#FEEA39" d="M6.828 11.3c-.254-.467-.39-.995-.39-1.545 0-1.762 1.4-3.19 3.13-3.19.486 0 .955.112 1.38.325l.766-.82c-.629-.38-1.363-.6-2.147-.6-2.32 0-4.202 1.919-4.202 4.285 0 .874.256 1.687.697 2.365l.766-.82z" transform="translate(1.000000, 4.000000)"/>
                    <g fill="#FEEA39" transform="translate(1.000000, 4.000000) translate(0.000000, 9.025641)">
                        <rect width="4.024" height="1.459" rx=".72"/>
                    </g>
                    <g fill="#FEEA39" transform="translate(1.000000, 4.000000) translate(4.224659, 4.307645) rotate(45.000000) translate(-4.224659, -4.307645) translate(2.212894, 3.578300)">
                        <rect width="4.024" height="1.459" rx=".72"/>
                    </g>
                    <g fill="#FEEA39" transform="translate(1.000000, 4.000000) translate(8.851765, 0.000000)">
                        <rect width="1.431" height="4.103" rx=".715"/>
                    </g>
                </g>
                <g fill="#FFF">
                    <g>
                        <path d="M21.904 5.072l-1.229.549c-1.101-2.563-3.589-4.253-6.38-4.253-3.626 0-6.637 2.837-6.938 6.496l-.104 1.253h-1.71c-2.32 0-4.202 1.918-4.202 4.285s1.881 4.285 4.203 4.285h12.862v1.367H5.544C2.482 19.054 0 16.524 0 13.402c0-3.122 2.481-5.653 5.544-5.653h.476C6.378 3.41 9.946 0 14.294 0c3.402 0 6.326 2.085 7.61 5.072z" transform="translate(1.000000, 4.000000) translate(3.218824, 2.461538)"/>
                    </g>
                    <g>
                        <path d="M10.989 1.368c-2.627 0-4.807 2.045-5.025 4.68L5.861 7.3h-1.6c-1.614 0-2.92 1.326-2.92 2.96 0 1.633 1.306 2.96 2.92 2.96h13.542c2.07 0 3.745-1.702 3.745-3.798s-1.675-3.797-3.745-3.797c-.199 0-.395.015-.587.046l-1.099.175-.372-1.068c-.706-2.027-2.6-3.41-4.756-3.41zm0-1.368c2.78 0 5.143 1.803 6.02 4.32.259-.041.524-.063.794-.063 2.81 0 5.086 2.313 5.086 5.165 0 2.853-2.277 5.165-5.086 5.165H4.262C1.908 14.587 0 12.65 0 10.26c0-2.39 1.908-4.328 4.262-4.328h.366C4.903 2.61 7.646 0 10.989 0z" transform="translate(1.000000, 4.000000) translate(3.218824, 2.461538) translate(11.891765, 4.467236)"/>
                    </g>
                </g>
                <g>
                    <path fill="#00D7FF" d="M10.193 5.654c0 1.409-1.12 2.551-2.504 2.551-1.382 0-2.503-1.142-2.503-2.551 0-.39.086-.76.24-1.091L6.828.925c.475-1.233 1.246-1.234 1.722 0l1.395 3.62c.159.336.248.712.248 1.109zM3.398 3.77c0 .939-.76 1.7-1.7 1.7C.762 5.47 0 4.71 0 3.77c0-.261.058-.508.163-.728L1.114.617c.323-.822.846-.823 1.169 0l.946 2.413c.108.224.169.474.169.74z" transform="translate(1.000000, 4.000000) translate(6.974118, 23.794872)"/>
                    <path fill="#FFF" d="M24.38 1.884l1.191-.724c.228-.136.52-.055.652.18.132.234.054.534-.175.67l-1.192.725 1.192.725c.229.136.307.436.175.67-.132.235-.424.316-.652.18l-1.191-.724v1.403c0 .266-.214.481-.477.481-.264 0-.477-.215-.477-.48V3.585l-1.251.724c-.229.136-.52.055-.652-.18-.132-.234-.054-.534.174-.67l1.192-.725-1.192-.725c-.228-.136-.306-.436-.174-.67.132-.235.423-.316.652-.18l1.25.724V.481c0-.266.214-.481.478-.481.263 0 .477.215.477.48v1.404zM16.81 2.826l1.787-1.086c.342-.204.78-.083.978.27.197.351.08.802-.262 1.005l-1.788 1.088 1.788 1.087c.342.204.46.654.262 1.006s-.636.473-.978.27l-1.788-1.087v2.105c0 .398-.32.721-.715.721-.395 0-.715-.323-.715-.721V5.379l-1.877 1.086c-.342.204-.78.083-.978-.27-.197-.351-.08-.801.262-1.005l1.788-1.087-1.788-1.088c-.342-.203-.46-.654-.262-1.006s.636-.473.978-.27l1.877 1.087V.721c0-.398.32-.721.715-.721.395 0 .715.323.715.721v2.105z" transform="translate(1.000000, 4.000000) translate(6.974118, 23.794872)"/>
                </g>
            </g>
        </g>
    </g>
</svg>
