<svg xmlns="http://www.w3.org/2000/svg" width="40" height="40" viewBox="0 0 40 40">
    <g fill="none" fill-rule="evenodd">
        <g fill-rule="nonzero">
            <g>
                <g>
                    <path fill="#FED731" d="M6.062 12.085c-.44-.675-.697-1.486-.697-2.358 0-2.36 1.881-4.272 4.202-4.272.784 0 1.518.218 2.147.598l-.985 1.402-.983 3.454-2.414.273-1.27.903z" transform="translate(1.000000, 4.000000)"/>
                    <path fill="#FEEA39" d="M6.828 11.268c-.254-.466-.39-.992-.39-1.54 0-1.758 1.4-3.183 3.13-3.183.486 0 .955.113 1.38.326l.766-.818c-.629-.38-1.363-.598-2.147-.598-2.32 0-4.202 1.913-4.202 4.272 0 .872.256 1.683.697 2.358l.766-.817z" transform="translate(1.000000, 4.000000)"/>
                    <g fill="#FEEA39" transform="translate(1.000000, 4.000000) translate(0.000000, 9.000000)">
                        <rect width="4.024" height="1.455" rx=".72"/>
                    </g>
                    <g fill="#FEEA39" transform="translate(1.000000, 4.000000) translate(4.224659, 4.295407) rotate(45.000000) translate(-4.224659, -4.295407) translate(2.212894, 3.568134)">
                        <rect width="4.024" height="1.455" rx=".72"/>
                    </g>
                    <g fill="#FEEA39" transform="translate(1.000000, 4.000000) translate(8.851765, 0.000000)">
                        <rect width="1.431" height="4.091" rx=".715"/>
                    </g>
                </g>
                <g fill="#FFF" transform="translate(1.000000, 4.000000) translate(3.218824, 2.454545)">
                    <g>
                        <path d="M20.331 4.911c-1.219-2.153-3.497-3.547-6.037-3.547-3.625 0-6.636 2.829-6.937 6.477l-.104 1.25h-1.71c-2.32 0-4.202 1.913-4.202 4.273 0 2.36 1.881 4.272 4.203 4.272h3.218V19H5.544C2.482 19 0 16.477 0 13.364s2.481-5.637 5.544-5.637h.476C6.378 3.4 9.946 0 14.294 0c3.207 0 5.989 1.848 7.372 4.553.396-.065.805-.098 1.223-.098 2.78 0 5.135 1.797 6.012 4.307.258-.04.524-.062.794-.062 2.809 0 5.086 2.306 5.086 5.15 0 2.844-2.277 5.15-5.086 5.15h-4.466v-1.364h4.466c2.07 0 3.745-1.696 3.745-3.786s-1.676-3.786-3.745-3.786c-.199 0-.395.015-.587.046l-1.099.174-.372-1.065c-.707-2.023-2.594-3.4-4.748-3.4-2.76 0-4.804 1.709-5.011 4.205l-.104 1.249h-1.233c-1.271 0-2.686 1.127-3 2.274l-1.292-.365c.447-1.637 2.319-3.273 4.292-3.273.2-2.41 1.7-4.201 3.79-4.998z"/>
                    </g>
                    <circle cx="25.169" cy="18.318" r="1"/>
                    <circle cx="8.718" cy="18.318" r="1"/>
                    <circle cx="12.92" cy="13.318" r="1"/>
                </g>
                <g>
                    <path fill="#FFF" d="M19.072 9.044l-.677.397c-.249.146-.567.06-.711-.194-.144-.253-.058-.576.19-.723l.666-.39-.665-.39c-.25-.147-.335-.47-.191-.723.144-.254.462-.34.711-.194l.677.397v-.786c0-.292.233-.529.52-.529.288 0 .52.237.52.53v.772l.655-.384c.25-.146.568-.06.711.194.144.253.059.576-.19.723l-.666.39.666.39c.249.147.334.47.19.723-.143.254-.462.34-.71.194l-.655-.384v.777c0 .293-.233.53-.52.53-.288 0-.521-.237-.521-.53v-.79zM13.087 4.6l-1.53.905c-.292.173-.666.07-.835-.23-.169-.3-.069-.683.224-.856l1.53-.867-1.53-.92c-.293-.173-.393-.556-.224-.856.169-.3.543-.402.836-.23l1.529.905V.627c0-.346.274-.627.612-.627.337 0 .611.28.611.627v1.802l1.492-.882c.293-.173.667-.07.836.23.169.299.069.682-.224.855l-1.492.92 1.492.867c.293.173.393.557.224.856-.169.3-.543.403-.836.23l-1.492-.883v1.751c0 .346-.274.627-.611.627-.338 0-.612-.28-.612-.627V4.6zM13.14 12.91l-1.395.822c-.267.157-.608.064-.762-.209-.154-.272-.063-.621.204-.778l1.395-.788-1.395-.837c-.267-.157-.358-.505-.204-.778s.495-.366.762-.209l1.394.823V9.297c0-.315.25-.57.558-.57.308 0 .558.255.558.57v1.639l1.36-.803c.267-.157.608-.064.762.209.154.273.063.621-.204.778l-1.36.837 1.36.788c.267.157.358.506.204.778-.154.273-.495.366-.762.209l-1.36-.802v1.591c0 .315-.25.57-.558.57-.308 0-.558-.255-.558-.57v-1.612z" transform="translate(1.000000, 4.000000) translate(9.567059, 17.909091)"/>
                    <path fill="#00D7FF" d="M2.72 8.437c.09.193.141.41.141.638 0 .812-.64 1.47-1.43 1.47C.64 10.545 0 9.887 0 9.075c0-.224.05-.438.137-.628L.938 6.35c.272-.71.712-.71.984 0l.798 2.086zM8.452 4.029c.141.297.22.63.22.982 0 1.25-1 2.262-2.234 2.262-1.235 0-2.236-1.013-2.236-2.262 0-.346.077-.674.215-.967L5.668.82c.425-1.093 1.113-1.094 1.538 0L8.452 4.03zM8.21 12.253c.125.26.195.551.195.86 0 1.092-.881 1.978-1.967 1.978-1.087 0-1.967-.886-1.967-1.979 0-.303.067-.59.188-.846l1.102-2.821c.373-.957.979-.957 1.352 0l1.097 2.808z" transform="translate(1.000000, 4.000000) translate(9.567059, 17.909091)"/>
                </g>
            </g>
        </g>
    </g>
</svg>
