<svg xmlns="http://www.w3.org/2000/svg" width="40" height="40" viewBox="0 0 40 40">
    <g fill="none" fill-rule="evenodd">
        <g fill-rule="nonzero">
            <g>
                <g>
                    <path fill="#FED731" d="M13.863 10.456c-.4.324-.657.82-.657 1.377 0 .077.005.152.014.227-.761 1.147-2.063 1.904-3.542 1.904-2.348 0-4.25-1.908-4.25-4.262 0-2.354 1.902-4.262 4.25-4.262s4.252 1.908 4.252 4.262c0 .257-.023.51-.067.754z" transform="translate(2.000000, 2.000000)"/>
                    <path fill="#FEEA39" d="M9.678 12.876c1.749 0 3.166-1.421 3.166-3.174s-1.417-3.174-3.166-3.174c-1.748 0-3.165 1.421-3.165 3.174s1.417 3.174 3.165 3.174zm4.185-2.42c-.4.324-.657.82-.657 1.377 0 .077.005.152.014.227-.761 1.147-2.063 1.904-3.542 1.904-2.348 0-4.25-1.908-4.25-4.262 0-2.354 1.902-4.262 4.25-4.262s4.252 1.908 4.252 4.262c0 .257-.023.51-.067.754z" transform="translate(2.000000, 2.000000)"/>
                    <g fill="#FEEA39" transform="translate(2.000000, 2.000000) translate(0.000000, 8.976684)">
                        <rect width="4.07" height="1.451" rx=".72"/>
                    </g>
                    <g fill="#FEEA39" transform="translate(2.000000, 2.000000) translate(9.678392, 9.702073) rotate(-45.000000) translate(-9.678392, -9.702073) translate(-0.000000, 8.976684)">
                        <rect width="4.07" height="1.451" rx=".72"/>
                        <rect width="4.07" height="1.451" x="15.286" rx=".72"/>
                    </g>
                    <g fill="#FEEA39" transform="translate(2.000000, 2.000000) translate(4.273822, 4.284279) rotate(45.000000) translate(-4.273822, -4.284279) translate(2.238646, 3.558890)">
                        <rect width="4.07" height="1.451" rx=".72"/>
                    </g>
                    <g fill="#FEEA39" transform="translate(2.000000, 2.000000) translate(8.954774, 0.000000)">
                        <rect width="1.447" height="4.08" rx=".72"/>
                    </g>
                </g>
                <g fill="#FFF">
                    <path d="M14.46 1.36c-3.667 0-6.713 2.822-7.018 6.461l-.104 1.246h-1.73c-2.348 0-4.251 1.908-4.251 4.262 0 2.354 1.903 4.262 4.251 4.262h17.819c2.948 0 5.337-2.395 5.337-5.35 0-2.955-2.39-5.35-5.337-5.35-.282 0-.56.022-.834.065l-1.114.175-.376-1.065c-.986-2.798-3.633-4.706-6.642-4.706zm0-1.36c3.658 0 6.769 2.342 7.923 5.612.34-.053.689-.08 1.044-.08 3.697 0 6.694 3.003 6.694 6.709 0 3.706-2.997 6.71-6.694 6.71H5.608C2.511 18.95 0 16.435 0 13.329c0-3.105 2.51-5.622 5.608-5.622h.482C6.452 3.39 10.062 0 14.46 0z" transform="translate(2.000000, 2.000000) translate(5.879397, 4.805699)"/>
                </g>
                <g fill="#FFF">
                    <path d="M4.523 3.174l2.238-1.27c.325-.187.74-.076.927.25.187.325.076.74-.248.929l-2.194 1.27 2.194 1.27c.324.187.435.603.248.928-.187.326-.602.437-.927.25L4.523 5.53v2.584c0 .376-.304.68-.679.68-.374 0-.678-.304-.678-.68V5.531l-2.148 1.27c-.325.187-.74.076-.927-.25-.187-.325-.076-.74.248-.929l2.194-1.27-2.194-1.27c-.324-.187-.435-.603-.248-.928.187-.326.602-.437.927-.25l2.148 1.27V.68c0-.376.304-.68.678-.68.375 0 .679.304.679.68v2.494zM14.291 3.174l2.24-1.27c.324-.187.738-.076.926.25.187.325.076.74-.249.929l-2.193 1.27 2.193 1.27c.325.187.436.603.249.928-.188.326-.602.437-.927.25l-2.239-1.27v2.584c0 .376-.303.68-.678.68-.375 0-.678-.304-.678-.68V5.531l-2.149 1.27c-.324.187-.739.076-.926-.25-.187-.325-.076-.74.248-.929l2.194-1.27-2.194-1.27c-.324-.187-.435-.603-.248-.928.187-.326.602-.437.926-.25l2.149 1.27V.68c0-.376.303-.68.678-.68.375 0 .678.304.678.68v2.494zM24.06 3.174l2.24-1.27c.323-.187.738-.076.926.25.187.325.076.74-.249.929l-2.193 1.27 2.193 1.27c.325.187.436.603.249.928-.188.326-.603.437-.927.25L24.06 5.53v2.584c0 .376-.303.68-.678.68-.375 0-.678-.304-.678-.68V5.531l-2.149 1.27c-.324.187-.739.076-.926-.25-.188-.325-.076-.74.248-.929l2.194-1.27-2.194-1.27c-.324-.187-.436-.603-.248-.928.187-.326.602-.437.926-.25l2.149 1.27V.68c0-.376.303-.68.678-.68.375 0 .678.304.678.68v2.494z" transform="translate(2.000000, 2.000000) translate(7.236181, 26.204663)"/>
                </g>
            </g>
        </g>
    </g>
</svg>
