<svg xmlns="http://www.w3.org/2000/svg" width="40" height="40" viewBox="0 0 40 40">
    <g fill="none" fill-rule="evenodd">
        <g fill-rule="nonzero">
            <g>
                <g>
                    <path fill="#FED731" d="M6.062 11.817c-.44-.66-.697-1.454-.697-2.306 0-2.307 1.881-4.178 4.202-4.178.784 0 1.518.214 2.147.586l-.985 1.37-.983 3.378-2.414.266-1.27.884z" transform="translate(1.000000, 4.000000)"/>
                    <path fill="#FEEA39" d="M6.828 11.018c-.254-.456-.39-.97-.39-1.507 0-1.718 1.4-3.111 3.13-3.111.486 0 .955.11 1.38.318l.766-.8c-.629-.371-1.363-.585-2.147-.585-2.32 0-4.202 1.87-4.202 4.178 0 .852.256 1.645.697 2.306l.766-.8z" transform="translate(1.000000, 4.000000)"/>
                    <g fill="#FEEA39" transform="translate(1.000000, 4.000000) translate(0.000000, 8.800000)">
                        <rect width="4.024" height="1.422" rx=".711"/>
                    </g>
                    <g fill="#FEEA39" transform="translate(1.000000, 4.000000) translate(4.224659, 4.199954) rotate(45.000000) translate(-4.224659, -4.199954) translate(2.212894, 3.488842)">
                        <rect width="4.024" height="1.422" rx=".711"/>
                    </g>
                    <g fill="#FEEA39" transform="translate(1.000000, 4.000000) translate(8.851765, 0.000000)">
                        <rect width="1.431" height="4" rx=".715"/>
                    </g>
                </g>
                <g fill="#FFF">
                    <g>
                        <path d="M21.904 4.945l-1.229.535c-1.101-2.499-3.589-4.147-6.38-4.147-3.626 0-6.637 2.767-6.938 6.334L7.253 8.89h-1.71c-2.32 0-4.202 1.87-4.202 4.178 0 2.307 1.881 4.177 4.203 4.177h12.862v1.334H5.544C2.482 18.578 0 16.11 0 13.067s2.481-5.511 5.544-5.511h.476C6.378 3.324 9.946 0 14.294 0c3.402 0 6.326 2.033 7.61 4.945z" transform="translate(1.000000, 4.000000) translate(3.218824, 2.400000)"/>
                    </g>
                    <g>
                        <path d="M10.989 1.333c-2.627 0-4.807 1.995-5.025 4.563l-.103 1.221h-1.6c-1.614 0-2.92 1.294-2.92 2.886 0 1.593 1.306 2.886 2.92 2.886h13.542c2.07 0 3.745-1.659 3.745-3.702 0-2.044-1.675-3.703-3.745-3.703-.199 0-.395.015-.587.045l-1.099.17-.372-1.04c-.706-1.976-2.6-3.326-4.756-3.326zm0-1.333c2.78 0 5.143 1.758 6.02 4.212.259-.04.524-.061.794-.061 2.81 0 5.086 2.255 5.086 5.036 0 2.78-2.277 5.035-5.086 5.035H4.262C1.908 14.222 0 12.334 0 10.003c0-2.33 1.908-4.219 4.262-4.219h.366C4.903 2.544 7.646 0 10.989 0z" transform="translate(1.000000, 4.000000) translate(3.218824, 2.400000) translate(11.891765, 4.355556)"/>
                    </g>
                </g>
                <g fill="#FFF">
                    <path d="M4.47 3.111l2.214-1.244c.32-.184.73-.075.915.244.186.32.076.727-.245.91L5.186 4.268l2.168 1.245c.32.184.43.591.245.91-.185.32-.595.428-.915.244L4.47 5.422v2.534c0 .368-.3.666-.671.666-.37 0-.67-.298-.67-.666V5.422L1.005 6.666c-.32.184-.73.075-.916-.244-.185-.319-.075-.726.245-.91l2.169-1.245L.335 3.022c-.32-.184-.43-.592-.245-.91.185-.32.595-.429.916-.245l2.123 1.244V.667C3.13.298 3.43 0 3.8 0c.37 0 .67.298.67.667V3.11zM14.127 3.111l2.213-1.244c.32-.184.73-.075.916.244.185.32.075.727-.245.91l-2.169 1.246 2.169 1.245c.32.184.43.591.245.91-.185.32-.595.428-.916.244l-2.213-1.244v2.534c0 .368-.3.666-.67.666-.37 0-.671-.298-.671-.666V5.422l-2.124 1.244c-.32.184-.73.075-.916-.244-.185-.319-.075-.726.246-.91l2.168-1.245-2.168-1.245c-.32-.184-.43-.592-.246-.91.186-.32.596-.429.916-.245l2.124 1.244V.667c0-.369.3-.667.67-.667.37 0 .671.298.671.667V3.11zM23.784 3.111l2.213-1.244c.32-.184.73-.075.915.244.186.32.076.727-.245.91l-2.168 1.246 2.168 1.245c.32.184.43.591.245.91-.185.32-.595.428-.915.244l-2.213-1.244v2.534c0 .368-.3.666-.671.666-.37 0-.67-.298-.67-.666V5.422l-2.124 1.244c-.32.184-.731.075-.916-.244-.185-.319-.075-.726.245-.91l2.169-1.245-2.169-1.245c-.32-.184-.43-.592-.245-.91.185-.32.595-.429.916-.245l2.123 1.244V.667c0-.369.3-.667.67-.667.371 0 .672.298.672.667V3.11z" transform="translate(1.000000, 4.000000) translate(6.705882, 23.377778)"/>
                </g>
            </g>
        </g>
    </g>
</svg>
