<svg xmlns="http://www.w3.org/2000/svg" width="40" height="40" viewBox="0 0 40 40">
    <g fill="none" fill-rule="evenodd">
        <g fill="#FFF" fill-rule="nonzero">
            <g>
                <g>
                    <g>
                        <path d="M22.041 5.012l-1.236.542c-1.108-2.532-3.611-4.203-6.42-4.203-3.649 0-6.679 2.804-6.982 6.42l-.104 1.238h-1.72c-2.336 0-4.23 1.895-4.23 4.234 0 2.34 1.894 4.234 4.23 4.234h12.943v1.352H5.579c-3.081 0-5.579-2.5-5.579-5.586 0-3.085 2.497-5.585 5.579-5.585h.479C6.418 3.368 10.008 0 14.384 0c3.424 0 6.366 2.06 7.657 5.012z" transform="translate(3.000000, 5.000000)"/>
                    </g>
                    <g>
                        <path d="M11.058 1.351c-2.643 0-4.837 2.022-5.056 4.625l-.104 1.238h-1.61c-1.624 0-2.938 1.31-2.938 2.924 0 1.615 1.314 2.925 2.939 2.925h13.626c2.083 0 3.769-1.681 3.769-3.752 0-2.071-1.686-3.753-3.77-3.753-.199 0-.396.016-.59.046l-1.105.173-.375-1.056c-.71-2.002-2.617-3.37-4.786-3.37zm0-1.351c2.797 0 5.176 1.781 6.058 4.269.26-.04.527-.062.799-.062 2.827 0 5.118 2.285 5.118 5.104 0 2.818-2.291 5.103-5.118 5.103H4.289C1.92 14.414 0 12.5 0 10.138c0-2.361 1.92-4.276 4.289-4.276h.368C4.934 2.58 7.694 0 11.058 0z" transform="translate(3.000000, 5.000000) translate(11.966581, 4.414414)"/>
                    </g>
                </g>
                <g>
                    <path d="M4.499 3.153l2.227-1.26c.322-.187.735-.076.921.247.187.323.076.736-.247.923L5.218 4.324 7.4 5.586c.323.187.434.6.247.923-.186.323-.599.434-.921.247l-2.227-1.26v2.567c0 .373-.302.676-.675.676-.373 0-.675-.303-.675-.676V5.495L1.012 6.756c-.323.187-.735.076-.921-.247-.187-.323-.076-.736.246-.923L2.52 4.324.337 3.063c-.322-.187-.433-.6-.246-.923.186-.323.598-.434.921-.248L3.15 3.153V.676c0-.373.302-.676.675-.676.373 0 .675.303.675.676v2.477zM15.026 3.153l2.227-1.26c.322-.187.735-.076.921.247.187.323.076.736-.247.923l-2.182 1.261 2.182 1.262c.323.187.434.6.247.923-.186.323-.599.434-.921.247l-2.227-1.26v2.567c0 .373-.302.676-.675.676-.373 0-.675-.303-.675-.676V5.495L11.54 6.756c-.323.187-.735.076-.922-.247-.186-.323-.075-.736.247-.923l2.183-1.262-2.183-1.261c-.322-.187-.433-.6-.247-.923.187-.323.6-.434.922-.248l2.137 1.261V.676c0-.373.302-.676.675-.676.373 0 .675.303.675.676v2.477z" transform="translate(3.000000, 5.000000) translate(8.007712, 21.261261)"/>
                </g>
            </g>
        </g>
    </g>
</svg>
