<svg xmlns="http://www.w3.org/2000/svg" width="40" height="40" viewBox="0 0 40 40">
    <g fill="none" fill-rule="evenodd">
        <g fill-rule="nonzero">
            <g>
                <g>
                    <path fill="#FED731" d="M6.062 11.83c-.44-.662-.697-1.456-.697-2.309 0-2.31 1.881-4.182 4.202-4.182.784 0 1.518.214 2.147.586l-.985 1.372-.983 3.381-2.414.267-1.27.884z" transform="translate(1.000000, 10.000000)"/>
                    <path fill="#FEEA39" d="M6.828 11.03c-.254-.457-.39-.972-.39-1.509 0-1.72 1.4-3.114 3.13-3.114.486 0 .955.11 1.38.318l.766-.8c-.629-.372-1.363-.586-2.147-.586-2.32 0-4.202 1.872-4.202 4.182 0 .853.256 1.647.697 2.308l.766-.8z" transform="translate(1.000000, 10.000000)"/>
                    <g fill="#FEEA39" transform="translate(1.000000, 10.000000) translate(0.000000, 8.809322)">
                        <rect width="4.024" height="1.424" rx=".712"/>
                    </g>
                    <g fill="#FEEA39" transform="translate(1.000000, 10.000000) translate(4.224659, 4.204403) rotate(45.000000) translate(-4.224659, -4.204403) translate(2.212894, 3.492538)">
                        <rect width="4.024" height="1.424" rx=".712"/>
                    </g>
                    <g fill="#FEEA39" transform="translate(1.000000, 10.000000) translate(8.851765, 0.000000)">
                        <rect width="1.431" height="4.004" rx=".715"/>
                    </g>
                </g>
                <g fill="#FFF">
                    <g>
                        <path d="M21.904 4.95l-1.229.536c-1.101-2.502-3.589-4.151-6.38-4.151-3.626 0-6.637 2.77-6.938 6.34l-.104 1.223h-1.71c-2.32 0-4.202 1.872-4.202 4.183 0 2.31 1.881 4.182 4.203 4.182h12.862v1.334H5.544C2.482 18.597 0 16.128 0 13.081s2.481-5.517 5.544-5.517h.476C6.378 3.327 9.946 0 14.294 0c3.402 0 6.326 2.035 7.61 4.95z" transform="translate(1.000000, 10.000000) translate(3.218824, 2.402542)"/>
                    </g>
                    <g>
                        <path d="M10.989 1.335c-2.627 0-4.807 1.996-5.025 4.567l-.103 1.223h-1.6c-1.614 0-2.92 1.294-2.92 2.889 0 1.594 1.306 2.889 2.92 2.889h13.542c2.07 0 3.745-1.661 3.745-3.707 0-2.045-1.675-3.706-3.745-3.706-.199 0-.395.015-.587.045l-1.099.17-.372-1.042c-.706-1.978-2.6-3.328-4.756-3.328zm0-1.335c2.78 0 5.143 1.76 6.02 4.216.259-.04.524-.06.794-.06 2.81 0 5.086 2.256 5.086 5.04 0 2.784-2.277 5.041-5.086 5.041H4.262C1.908 14.237 0 12.347 0 10.014S1.908 5.79 4.262 5.79h.366C4.903 2.547 7.646 0 10.989 0z" transform="translate(1.000000, 10.000000) translate(3.218824, 2.402542) translate(11.891765, 4.360169)"/>
                    </g>
                </g>
            </g>
        </g>
    </g>
</svg>
