<svg xmlns="http://www.w3.org/2000/svg" width="40" height="40" viewBox="0 0 40 40">
    <g fill="none" fill-rule="evenodd">
        <g fill-rule="nonzero">
            <g>
                <g>
                    <path fill="#FED731" d="M6.062 11.983c-.44-.67-.697-1.474-.697-2.338 0-2.34 1.881-4.237 4.202-4.237.784 0 1.518.217 2.147.594l-.985 1.39-.983 3.425-2.414.27-1.27.896z" transform="translate(1.000000, 4.000000)"/>
                    <path fill="#FEEA39" d="M6.828 11.173c-.254-.462-.39-.984-.39-1.528 0-1.742 1.4-3.155 3.13-3.155.486 0 .955.112 1.38.323l.766-.81c-.629-.378-1.363-.595-2.147-.595-2.32 0-4.202 1.897-4.202 4.237 0 .864.256 1.668.697 2.338l.766-.81z" transform="translate(1.000000, 4.000000)"/>
                    <g fill="#FEEA39" transform="translate(1.000000, 4.000000) translate(0.000000, 8.923944)">
                        <rect width="4.024" height="1.442" rx=".72"/>
                    </g>
                    <g fill="#FEEA39" transform="translate(1.000000, 4.000000) translate(4.224659, 4.259108) rotate(45.000000) translate(-4.224659, -4.259108) translate(2.212894, 3.537981)">
                        <rect width="4.024" height="1.442" rx=".72"/>
                    </g>
                    <g fill="#FEEA39" transform="translate(1.000000, 4.000000) translate(8.851765, 0.000000)">
                        <rect width="1.431" height="4.056" rx=".715"/>
                    </g>
                </g>
                <g>
                    <g transform="translate(1.000000, 4.000000) translate(12.960007, 20.371831) translate(5.543529, 0.000000)">
                        <path fill="#FFF" d="M1.704 7.662L3.407 8.654 3.407 10.637 1.704 11.628 0 10.637 0 8.654z"/>
                        <rect width="1.788" height="6.4" x=".854" fill="#00D7FF" rx=".894"/>
                    </g>
                    <g>
                        <path fill="#FFF" d="M1.704 5.859L3.407 6.851 3.407 8.834 1.704 9.825 0 8.834 0 6.851z" transform="translate(1.000000, 4.000000) translate(12.960007, 20.371831)"/>
                        <path fill="#00D7FF" d="M1.748 0c.494 0 .894.404.894.901v2.795c0 .498-.4.901-.894.901s-.894-.403-.894-.901V.9c0-.497.4-.901.894-.901z" transform="translate(1.000000, 4.000000) translate(12.960007, 20.371831)"/>
                    </g>
                    <g>
                        <path fill="#FFF" d="M1.704 5.859L3.407 6.851 3.407 8.834 1.704 9.825 0 8.834 0 6.851z" transform="translate(1.000000, 4.000000) translate(12.960007, 20.371831) translate(11.087059, 0.000000)"/>
                        <path fill="#00D7FF" d="M1.748 0c.494 0 .894.404.894.901v2.795c0 .498-.4.901-.894.901s-.894-.403-.894-.901V.9c0-.497.4-.901.894-.901z" transform="translate(1.000000, 4.000000) translate(12.960007, 20.371831) translate(11.087059, 0.000000)"/>
                    </g>
                </g>
                <g fill="#FFF">
                    <g>
                        <path d="M21.904 5.015l-1.229.542c-1.101-2.534-3.589-4.205-6.38-4.205-3.626 0-6.637 2.806-6.938 6.423l-.104 1.24h-1.71c-2.32 0-4.202 1.896-4.202 4.236s1.881 4.236 4.203 4.236h12.862v1.352H5.544C2.482 18.84 0 16.338 0 13.251s2.481-5.589 5.544-5.589h.476C6.378 3.371 9.946 0 14.294 0c3.402 0 6.326 2.062 7.61 5.015z" transform="translate(1.000000, 4.000000) translate(3.218824, 2.433803)"/>
                    </g>
                    <g>
                        <path d="M10.989 1.352c-2.627 0-4.807 2.023-5.025 4.627l-.103 1.239h-1.6c-1.614 0-2.92 1.311-2.92 2.926 0 1.615 1.306 2.926 2.92 2.926h13.542c2.07 0 3.745-1.682 3.745-3.754s-1.675-3.754-3.745-3.754c-.199 0-.395.015-.587.045l-1.099.173-.372-1.056c-.706-2.004-2.6-3.372-4.756-3.372zm0-1.352c2.78 0 5.143 1.782 6.02 4.271.259-.04.524-.062.794-.062 2.81 0 5.086 2.287 5.086 5.107 0 2.82-2.277 5.107-5.086 5.107H4.262C1.908 14.423 0 12.508 0 10.144c0-2.363 1.908-4.278 4.262-4.278h.366C4.903 2.58 7.646 0 10.989 0z" transform="translate(1.000000, 4.000000) translate(3.218824, 2.433803) translate(11.891765, 4.416901)"/>
                    </g>
                </g>
            </g>
        </g>
    </g>
</svg>
