<svg xmlns="http://www.w3.org/2000/svg" width="40" height="40" viewBox="0 0 40 40">
    <g fill="none" fill-rule="evenodd">
        <g fill-rule="nonzero">
            <g>
                <g>
                    <g transform="translate(3.000000, 5.000000) translate(9.802469, 18.201220) translate(5.578406, 0.000000)">
                        <path fill="#FFF" d="M1.714 7.774L3.428 8.78 3.428 10.793 1.714 11.799 0 10.793 0 8.78z"/>
                        <rect width="1.799" height="6.494" x=".859" fill="#00D7FF" rx=".9"/>
                    </g>
                    <g>
                        <path fill="#FFF" d="M1.714 5.945L3.428 6.951 3.428 8.963 1.714 9.97 0 8.963 0 6.951z" transform="translate(3.000000, 5.000000) translate(9.802469, 18.201220)"/>
                        <path fill="#00D7FF" d="M1.76 0c.496 0 .899.41.899.915V3.75c0 .505-.403.915-.9.915s-.9-.41-.9-.915V.915c0-.506.403-.915.9-.915z" transform="translate(3.000000, 5.000000) translate(9.802469, 18.201220)"/>
                    </g>
                    <g>
                        <path fill="#FFF" d="M1.714 5.945L3.428 6.951 3.428 8.963 1.714 9.97 0 8.963 0 6.951z" transform="translate(3.000000, 5.000000) translate(9.802469, 18.201220) translate(11.156812, 0.000000)"/>
                        <path fill="#00D7FF" d="M1.76 0c.496 0 .899.41.899.915V3.75c0 .505-.403.915-.9.915s-.9-.41-.9-.915V.915c0-.506.403-.915.9-.915z" transform="translate(3.000000, 5.000000) translate(9.802469, 18.201220) translate(11.156812, 0.000000)"/>
                    </g>
                </g>
                <g fill="#FFF">
                    <g>
                        <path d="M22.041 5.088l-1.236.55c-1.108-2.57-3.611-4.266-6.42-4.266-3.649 0-6.679 2.847-6.982 6.517l-.104 1.257h-1.72c-2.336 0-4.23 1.925-4.23 4.3 0 2.374 1.894 4.298 4.23 4.298h12.943v1.372H5.579C2.498 19.116 0 16.578 0 13.446c0-3.133 2.497-5.672 5.579-5.672h.479C6.418 3.42 10.008 0 14.384 0c3.424 0 6.366 2.092 7.657 5.088z" transform="translate(3.000000, 5.000000)"/>
                    </g>
                    <g>
                        <path d="M11.058 1.372c-2.643 0-4.837 2.052-5.056 4.695l-.104 1.257h-1.61c-1.624 0-2.938 1.33-2.938 2.969 0 1.639 1.314 2.97 2.939 2.97h13.626c2.083 0 3.769-1.708 3.769-3.81 0-2.103-1.686-3.81-3.77-3.81-.199 0-.396.016-.59.046l-1.105.176-.375-1.072c-.71-2.033-2.617-3.421-4.786-3.421zm0-1.372c2.797 0 5.176 1.809 6.058 4.334.26-.041.527-.063.799-.063 2.827 0 5.118 2.32 5.118 5.182 0 2.861-2.291 5.181-5.118 5.181H4.289C1.92 14.634 0 12.691 0 10.293s1.92-4.341 4.289-4.341h.368C4.934 2.618 7.694 0 11.058 0z" transform="translate(3.000000, 5.000000) translate(11.966581, 4.481707)"/>
                    </g>
                </g>
            </g>
        </g>
    </g>
</svg>
