<svg xmlns="http://www.w3.org/2000/svg" width="40" height="40" viewBox="0 0 40 40">
    <g fill="none" fill-rule="evenodd">
        <g fill-rule="nonzero">
            <g>
                <g>
                    <path fill="#FED731" d="M13.863 10.429c-.4.323-.657.818-.657 1.373 0 .077.005.152.014.227-.761 1.144-2.063 1.899-3.542 1.899-2.348 0-4.25-1.903-4.25-4.251 0-2.348 1.902-4.25 4.25-4.25s4.252 1.902 4.252 4.25c0 .257-.023.508-.067.752z" transform="translate(2.000000, 2.000000)"/>
                    <path fill="#FEEA39" d="M9.678 12.842c1.749 0 3.166-1.417 3.166-3.165s-1.417-3.165-3.166-3.165c-1.748 0-3.165 1.417-3.165 3.165s1.417 3.165 3.165 3.165zm4.185-2.413c-.4.323-.657.818-.657 1.373 0 .077.005.152.014.227-.761 1.144-2.063 1.899-3.542 1.899-2.348 0-4.25-1.903-4.25-4.251 0-2.348 1.902-4.25 4.25-4.25s4.252 1.902 4.252 4.25c0 .257-.023.508-.067.752z" transform="translate(2.000000, 2.000000)"/>
                    <g fill="#FEEA39" transform="translate(2.000000, 2.000000) translate(0.000000, 8.953488)">
                        <rect width="4.07" height="1.447" rx=".72"/>
                    </g>
                    <g fill="#FEEA39" transform="translate(2.000000, 2.000000) translate(9.678392, 9.677003) rotate(-45.000000) translate(-9.678392, -9.677003) translate(-0.000000, 8.953488)">
                        <rect width="4.07" height="1.447" rx=".72"/>
                        <rect width="4.07" height="1.447" x="15.286" rx=".72"/>
                    </g>
                    <g fill="#FEEA39" transform="translate(2.000000, 2.000000) translate(4.273822, 4.273209) rotate(45.000000) translate(-4.273822, -4.273209) translate(2.238646, 3.549694)">
                        <rect width="4.07" height="1.447" rx=".72"/>
                    </g>
                    <g fill="#FEEA39" transform="translate(2.000000, 2.000000) translate(8.954774, 0.000000)">
                        <rect width="1.447" height="4.07" rx=".72"/>
                    </g>
                </g>
                <g fill="#FFF">
                    <path d="M28.764 12.21c0-2.948-2.39-5.337-5.337-5.337-.282 0-.56.022-.834.065l-1.114.175-.376-1.063c-.986-2.79-3.633-4.693-6.642-4.693-3.668 0-6.714 2.814-7.019 6.444l-.104 1.243h-1.73c-2.348 0-4.251 1.903-4.251 4.25 0 2.349 1.903 4.251 4.251 4.251h5.156c.353.025.633.32.633.679 0 .359-.28.653-.633.676l-5.156.002C2.511 18.902 0 16.392 0 13.295c0-3.097 2.51-5.608 5.608-5.608h.482C6.452 3.382 10.062 0 14.46 0c3.658 0 6.769 2.336 7.923 5.598.34-.054.689-.081 1.044-.081 3.697 0 6.694 2.996 6.694 6.692 0 3.606-2.852 6.545-6.423 6.687-.42-.003-.723-.307-.723-.682 0-.374.304-.678.678-.678 2.878-.142 5.11-2.48 5.11-5.327z" transform="translate(2.000000, 2.000000) translate(5.879397, 4.793282)"/>
                </g>
                <g>
                    <path fill="#FED731" d="M2.623 0L0 9.315 4.523 9.315 1.99 20.62 10.854 5.879 6.06 5.879 8.683 0z" transform="translate(2.000000, 2.000000) translate(18.452261, 14.379845)"/>
                    <path fill="#FEEA39" d="M7.29.904H3.307L1.194 8.411h4.458l-1.558 6.955 5.161-8.583H4.666L7.29.904zM4.522 9.315H0L2.623 0h6.06L6.06 5.879h4.794L1.99 20.62 4.523 9.315z" transform="translate(2.000000, 2.000000) translate(18.452261, 14.379845)"/>
                </g>
            </g>
        </g>
    </g>
</svg>
